<?xml version="1.0" encoding="UTF-8" ?>
<!DOCTYPE svg PUBLIC "-//W3C//DTD SVG 1.1//EN" "http://www.w3.org/Graphics/SVG/1.1/DTD/svg11.dtd">
<svg width="1803pt" height="555pt" viewBox="0 0 1803 555" version="1.1" xmlns="http://www.w3.org/2000/svg">
<path fill="#ffffff" d=" M 0.00 0.00 L 71.29 0.00 C 69.16 3.80 68.83 8.89 72.05 12.20 C 75.49 8.92 74.95 3.90 73.00 0.00 L 1730.54 0.00 C 1727.35 3.32 1727.77 9.03 1731.05 12.15 C 1734.26 8.83 1734.16 3.66 1731.57 0.00 L 1803.00 0.00 L 1803.00 69.90 C 1799.18 67.76 1794.60 68.00 1790.77 69.95 C 1793.42 74.34 1798.88 73.23 1803.00 72.16 L 1803.00 482.76 C 1799.46 481.44 1794.91 480.33 1791.76 483.06 C 1790.57 484.87 1792.61 485.61 1794.05 485.81 C 1797.03 486.75 1800.16 485.88 1803.00 484.83 L 1803.00 555.00 L 1731.40 555.00 C 1734.40 551.43 1734.18 546.16 1731.00 542.79 C 1727.64 546.06 1727.78 551.24 1730.22 555.00 L 72.43 555.00 C 75.30 551.82 75.68 545.86 71.97 543.18 C 68.38 546.13 69.70 551.23 71.02 555.00 L 0.00 555.00 L 0.00 486.53 L 0.01 485.58 C 3.32 487.12 7.45 488.08 10.54 485.52 C 12.21 484.96 10.30 482.95 9.34 482.70 C 6.27 481.82 2.71 481.78 0.00 483.67 L 0.00 70.70 C 2.85 74.34 8.37 72.89 11.86 70.96 C 9.05 67.17 3.80 67.23 0.00 69.42 L 0.00 0.00 Z" />
<path fill="#000000" d=" M 71.29 0.00 L 73.00 0.00 C 74.95 3.90 75.49 8.92 72.05 12.20 C 68.83 8.89 69.16 3.80 71.29 0.00 Z" />
<path fill="#000000" d=" M 1730.54 0.00 L 1731.57 0.00 C 1734.16 3.66 1734.26 8.83 1731.05 12.15 C 1727.77 9.03 1727.35 3.32 1730.54 0.00 Z" />
<path fill="#000000" d=" M 1.92 1.76 C 6.61 4.34 10.43 9.31 16.17 9.33 C 18.45 7.61 20.32 5.35 22.95 4.12 C 21.83 5.85 20.52 7.44 19.22 9.03 C 22.51 9.20 26.17 9.77 28.42 12.46 C 29.88 14.07 29.54 16.40 29.90 18.39 C 30.52 18.48 31.77 18.67 32.39 18.77 C 29.71 19.65 26.97 20.32 24.22 20.92 C 26.50 23.57 28.91 26.33 32.23 27.68 C 35.16 29.07 38.50 28.75 41.59 29.46 C 43.00 30.32 43.95 31.75 45.13 32.88 C 48.85 31.74 52.11 29.39 56.01 28.78 C 60.25 28.00 65.00 27.02 67.50 23.10 C 69.72 18.09 61.70 13.73 58.80 18.45 C 60.60 19.45 63.53 20.33 62.47 23.02 C 61.87 23.38 60.67 24.12 60.07 24.49 C 59.47 24.17 58.26 23.54 57.65 23.23 C 55.43 19.75 57.61 14.94 61.87 14.83 C 66.09 14.04 68.33 18.12 71.17 20.34 C 70.79 18.44 70.66 16.25 69.05 14.91 C 66.05 12.03 61.60 12.05 57.91 10.59 C 63.08 9.27 69.02 11.23 72.01 15.74 C 74.94 11.71 79.86 9.87 84.74 10.19 C 84.77 10.50 84.82 11.12 84.85 11.42 C 81.27 12.15 76.94 12.31 74.55 15.51 C 73.29 16.91 73.26 18.90 72.94 20.65 C 75.19 18.69 76.74 15.55 79.94 15.00 C 82.99 14.09 86.06 16.22 87.44 18.85 C 87.69 20.40 86.78 21.78 86.36 23.22 C 85.76 23.51 84.56 24.10 83.97 24.40 C 83.26 24.07 81.84 23.41 81.13 23.08 C 80.94 20.40 82.58 18.97 85.23 18.78 C 82.73 13.68 74.15 17.79 76.39 22.97 C 80.11 29.18 88.38 27.64 93.90 31.12 C 96.61 33.10 100.02 32.57 103.17 32.65 C 103.17 34.24 103.17 35.84 103.17 37.44 C 81.57 37.50 59.98 37.45 38.38 37.47 C 38.38 58.58 38.39 79.68 38.38 100.79 C 36.68 100.79 34.98 100.79 33.28 100.80 C 33.30 97.96 33.45 94.92 31.65 92.52 C 27.87 87.02 29.64 78.19 23.06 74.65 C 18.22 73.29 14.11 79.96 18.16 83.42 C 19.19 82.21 20.01 80.83 21.02 79.60 C 24.16 78.24 25.87 83.48 22.85 84.60 C 19.28 87.21 15.31 83.62 14.53 80.06 C 15.07 76.12 18.21 73.69 21.06 71.33 C 14.86 70.83 11.89 77.68 11.43 82.86 C 11.10 82.84 10.45 82.82 10.12 82.80 C 9.91 78.10 11.59 73.01 15.91 70.61 C 11.61 67.57 9.20 61.93 10.78 56.77 C 12.41 60.33 12.12 64.90 15.38 67.59 C 16.88 69.16 19.10 69.50 21.16 69.70 C 18.50 67.37 14.53 65.11 15.19 60.93 C 14.71 56.45 21.01 53.69 23.89 57.23 C 25.48 58.59 23.86 60.53 23.08 61.86 C 20.58 61.52 19.42 59.20 17.99 57.44 C 16.59 59.94 15.91 63.31 18.48 65.33 C 21.18 68.20 25.50 65.67 26.98 62.77 C 28.91 58.60 28.96 53.81 31.13 49.73 C 32.06 47.99 32.86 46.18 33.46 44.30 C 31.19 43.02 29.63 40.79 29.70 38.12 C 29.80 32.21 26.02 26.99 21.17 23.95 C 20.75 25.92 20.43 27.92 20.05 29.90 C 19.58 30.59 19.12 31.28 18.66 31.98 C 18.71 31.33 18.81 30.01 18.86 29.35 C 13.17 29.57 8.63 24.26 9.19 18.69 C 7.69 19.87 6.27 21.15 4.67 22.20 C 5.67 19.69 7.96 18.11 9.55 16.01 C 9.80 10.22 4.75 6.29 1.92 1.76 Z" />
<path fill="#000000" d=" M 1801.05 2.33 C 1798.43 7.00 1792.83 10.74 1793.34 16.62 C 1795.12 18.57 1797.20 20.35 1798.26 22.86 C 1796.62 21.68 1795.08 20.36 1793.59 19.03 C 1793.07 21.85 1793.17 25.15 1790.92 27.26 C 1789.07 29.33 1786.18 29.66 1783.61 29.83 C 1783.53 30.45 1783.39 31.70 1783.32 32.33 C 1783.38 31.06 1780.73 27.23 1783.04 27.68 C 1786.22 29.46 1789.09 27.48 1791.19 25.00 C 1789.84 25.34 1787.14 26.02 1785.79 26.37 C 1785.52 25.82 1784.98 24.74 1784.72 24.19 C 1785.59 24.29 1787.34 24.49 1788.21 24.59 C 1789.34 23.27 1791.25 21.87 1789.55 20.12 C 1786.13 19.92 1784.74 23.65 1782.83 25.76 C 1782.44 25.63 1781.67 25.37 1781.29 25.24 C 1776.02 27.44 1773.09 33.41 1772.92 38.92 C 1773.71 42.50 1767.59 44.09 1770.44 47.53 C 1774.27 52.89 1772.85 60.62 1777.75 65.29 C 1780.47 68.22 1785.86 65.99 1785.89 62.09 C 1786.11 60.28 1784.75 58.91 1783.91 57.49 C 1782.93 58.69 1783.18 61.94 1780.98 61.51 C 1778.04 62.06 1778.09 58.76 1778.58 56.84 C 1780.32 56.45 1782.19 55.08 1784.00 56.02 C 1787.85 57.22 1788.56 62.55 1786.37 65.52 C 1784.97 67.22 1783.07 68.39 1781.53 69.92 C 1784.68 69.90 1787.82 68.33 1789.28 65.44 C 1790.45 62.60 1790.78 59.49 1791.93 56.63 C 1793.57 61.94 1790.89 67.25 1787.10 70.87 C 1790.81 74.26 1793.43 79.34 1791.99 84.45 C 1790.24 81.13 1790.59 76.92 1787.98 74.05 C 1786.37 72.17 1783.81 71.71 1781.52 71.34 C 1783.68 74.09 1787.96 75.76 1787.39 79.95 C 1788.14 83.79 1783.25 87.13 1779.92 85.20 C 1777.83 84.04 1777.59 80.48 1779.95 79.47 C 1782.24 79.92 1783.21 81.99 1784.12 83.91 C 1784.91 82.56 1785.69 81.18 1786.48 79.80 C 1785.59 77.66 1784.22 75.61 1782.04 74.64 C 1779.26 74.20 1777.15 76.58 1775.73 78.63 C 1773.33 83.12 1773.50 88.55 1770.74 92.89 C 1769.08 95.20 1769.53 98.13 1769.43 100.80 C 1767.81 100.79 1766.19 100.79 1764.62 100.80 C 1764.61 79.69 1764.62 58.58 1764.62 37.47 C 1742.70 37.44 1720.78 37.52 1698.86 37.43 C 1698.84 36.05 1698.84 34.68 1698.87 33.30 C 1702.39 33.24 1706.17 33.27 1709.18 31.12 C 1714.07 28.03 1720.87 29.44 1725.07 25.07 C 1727.13 23.30 1727.40 19.64 1725.04 18.01 C 1722.92 16.61 1719.70 16.66 1717.87 18.54 C 1719.28 19.66 1722.10 20.20 1721.56 22.56 C 1721.12 25.59 1716.49 24.66 1715.94 22.05 C 1714.31 18.30 1718.32 14.61 1722.01 15.30 C 1725.82 15.24 1727.72 18.94 1730.01 21.36 C 1729.74 19.41 1729.75 17.23 1728.28 15.74 C 1725.53 12.54 1720.99 12.53 1717.35 11.08 C 1722.45 9.26 1727.73 12.19 1731.06 15.99 C 1734.16 11.80 1739.65 9.41 1744.78 11.03 C 1739.72 12.64 1731.42 13.67 1731.91 20.80 C 1733.68 19.18 1735.21 17.29 1737.10 15.79 C 1740.21 15.03 1745.19 15.06 1745.96 19.04 C 1747.37 22.19 1744.00 25.75 1740.80 24.14 C 1738.55 21.36 1742.54 19.72 1744.07 18.02 C 1742.66 17.53 1741.27 17.05 1739.90 16.57 C 1737.92 17.47 1735.09 18.36 1735.12 21.00 C 1734.65 23.94 1737.26 25.98 1739.58 27.17 C 1742.54 28.47 1745.80 28.90 1748.94 29.71 C 1752.03 30.50 1754.51 32.90 1757.82 33.06 C 1758.95 30.60 1761.51 29.59 1764.11 29.60 C 1769.85 29.37 1775.17 26.14 1778.31 21.37 C 1776.46 20.92 1774.64 20.53 1772.81 20.20 C 1771.86 19.66 1770.97 19.13 1770.08 18.59 C 1770.70 18.65 1771.94 18.77 1772.56 18.84 C 1772.69 13.27 1777.68 9.76 1782.80 9.11 C 1782.36 7.37 1780.67 6.27 1779.78 4.78 C 1783.27 5.72 1784.92 10.52 1788.91 9.75 C 1793.67 8.69 1796.87 4.58 1801.05 2.33 Z" />
<path fill="#ffffff" d=" M 9.87 8.95 C 11.61 10.17 13.14 11.65 14.81 12.94 L 15.52 11.16 C 16.56 11.17 17.61 11.16 18.66 11.16 C 18.92 12.39 17.36 15.88 19.77 14.74 C 20.03 14.09 20.56 12.80 20.82 12.16 C 22.50 12.52 23.77 13.64 24.91 14.85 C 24.51 15.57 23.70 17.00 23.29 17.72 C 27.65 17.74 25.52 13.72 25.12 11.25 C 26.31 13.07 29.81 15.40 27.99 17.88 C 26.18 20.44 23.11 17.33 21.00 16.66 L 20.01 16.48 C 21.35 18.84 23.03 21.02 23.94 23.59 C 21.58 22.51 19.40 21.09 17.14 19.82 C 18.15 19.33 19.15 18.83 20.17 18.36 C 19.28 17.55 18.40 16.72 17.54 15.87 L 16.61 16.93 L 15.67 16.02 C 15.98 16.72 16.58 18.11 16.89 18.80 C 15.49 18.66 12.70 18.36 11.31 18.21 C 11.31 17.42 11.32 15.82 11.33 15.03 C 12.46 14.65 14.72 13.91 15.85 13.53 C 12.66 14.66 10.33 11.69 9.87 8.95 Z" />
<path fill="#ffffff" d=" M 1789.66 15.03 C 1786.98 12.54 1791.59 10.78 1793.29 9.65 C 1792.62 11.78 1791.07 13.40 1789.66 15.03 Z" />
<path fill="#ffffff" d=" M 1775.69 19.79 C 1773.31 16.93 1775.43 13.47 1778.07 11.76 L 1776.98 14.80 C 1777.76 14.54 1779.31 14.02 1780.09 13.76 L 1778.94 12.99 C 1780.08 12.81 1781.25 12.65 1782.43 12.50 C 1783.84 16.70 1779.08 19.10 1775.69 19.79 Z" />
<path fill="#ffffff" d=" M 1784.38 11.45 C 1786.63 11.24 1788.10 12.05 1787.97 14.46 C 1789.08 14.86 1790.22 15.25 1791.40 15.63 C 1791.39 16.68 1791.40 17.73 1791.44 18.78 C 1790.25 18.76 1789.08 18.73 1787.95 18.70 C 1784.85 20.44 1781.96 22.51 1778.80 24.11 C 1779.73 22.14 1780.37 19.02 1782.98 18.79 L 1783.94 18.83 C 1785.07 18.79 1786.01 18.27 1786.75 17.26 L 1785.16 16.46 C 1784.68 16.85 1783.73 17.65 1783.26 18.05 C 1783.77 15.87 1784.45 13.72 1784.38 11.45 Z" />
<path fill="#000000" d=" M 1776.65 15.80 C 1777.44 14.82 1778.19 14.83 1778.91 15.81 C 1778.07 17.26 1777.31 17.26 1776.65 15.80 Z" />
<path fill="#ededed" d=" M 12.50 20.86 C 11.85 18.32 15.68 19.37 16.46 20.58 C 17.48 21.55 18.45 22.57 19.37 23.64 C 16.96 23.86 12.57 24.43 12.50 20.86 Z" />
<path fill="#ffffff" d=" M 60.80 32.32 C 64.35 28.83 67.75 24.78 72.01 22.24 C 76.26 24.91 79.70 28.79 83.23 32.34 C 75.77 32.77 68.26 32.77 60.80 32.32 Z" />
<path fill="#ffffff" d=" M 1719.51 32.66 C 1723.15 29.05 1726.77 25.35 1730.96 22.34 C 1735.05 25.46 1738.55 29.26 1742.36 32.72 C 1734.73 32.82 1727.11 33.42 1719.51 32.66 Z" />
<path fill="#ffffff" d=" M 11.59 24.34 C 13.93 24.43 17.28 27.18 18.82 23.86 C 18.95 24.69 19.20 26.37 19.32 27.20 C 16.33 28.86 13.30 26.80 11.59 24.34 Z" />
<path fill="#ffffff" d=" M 28.86 28.24 C 31.02 28.95 33.13 29.80 35.19 30.76 C 33.98 32.12 32.59 33.29 31.09 34.30 C 30.29 32.30 29.50 30.30 28.86 28.24 Z" />
<path fill="#050505" d=" M 67.72 30.28 C 69.75 27.31 74.16 27.57 76.32 30.26 C 73.46 30.51 70.58 30.51 67.72 30.28 Z" />
<path fill="#000000" d=" M 1726.63 30.36 C 1728.83 27.66 1732.81 28.14 1735.23 30.30 C 1732.39 31.10 1729.44 31.28 1726.63 30.36 Z" />
<path fill="#ffffff" d=" M 1768.15 30.94 C 1770.07 30.06 1772.03 29.23 1774.06 28.54 C 1773.30 30.71 1772.37 32.80 1771.25 34.79 C 1769.85 33.81 1768.56 32.66 1768.15 30.94 Z" />
<path fill="#ffffff" d=" M 50.40 32.42 C 53.37 30.79 56.75 30.20 60.11 30.37 C 57.48 32.92 53.80 32.89 50.40 32.42 Z" />
<path fill="#ffffff" d=" M 84.59 30.21 C 87.65 30.35 90.61 31.21 93.41 32.40 C 90.44 32.36 85.96 33.89 84.59 30.21 Z" />
<path fill="#ffffff" d=" M 1710.09 32.24 C 1712.71 31.27 1715.49 30.80 1718.27 30.48 C 1717.16 33.58 1713.19 33.25 1710.53 33.12 C 1710.42 32.90 1710.20 32.46 1710.09 32.24 Z" />
<path fill="#868686" d=" M 35.11 32.95 C 36.93 29.94 41.55 30.45 43.76 32.75 C 40.89 33.07 37.99 33.11 35.11 32.95 Z" />
<path fill="#ffffff" d=" M 1751.23 33.08 C 1748.75 33.00 1744.63 33.90 1743.94 30.61 C 1746.32 31.33 1749.52 30.85 1751.23 33.08 Z" />
<path fill="#ffffff" d=" M 1759.58 32.55 C 1762.13 32.14 1764.75 32.20 1767.31 32.74 C 1764.75 33.31 1762.07 33.34 1759.58 32.55 Z" />
<path fill="#ffffff" d=" M 32.33 41.71 C 32.27 39.30 32.09 36.81 33.05 34.54 C 33.33 36.92 33.32 39.33 33.35 41.72 C 33.09 41.72 32.59 41.71 32.33 41.71 Z" />
<path fill="#ffffff" d=" M 1769.75 35.48 C 1770.78 37.64 1771.10 40.23 1769.78 42.35 C 1769.45 40.07 1769.45 37.76 1769.75 35.48 Z" />
<path fill="#ffffff" d=" M 33.00 49.62 C 33.52 52.67 33.68 56.13 31.21 58.43 C 31.01 55.38 31.35 52.26 33.00 49.62 Z" />
<path fill="#ffffff" d=" M 1769.69 49.61 C 1771.15 52.53 1771.79 55.77 1771.55 59.04 C 1769.23 56.40 1769.27 52.89 1769.69 49.61 Z" />
<path fill="#ffffff" d=" M 24.18 68.14 C 26.85 65.13 29.76 62.32 32.61 59.47 C 33.67 66.75 33.24 74.16 33.06 81.49 C 29.33 79.40 27.31 75.41 24.12 72.67 C 22.57 71.59 22.96 69.31 24.18 68.14 Z" />
<path fill="#ffffff" d=" M 1769.80 59.74 C 1773.30 62.66 1776.45 66.01 1779.36 69.51 C 1780.45 70.80 1778.93 72.22 1778.17 73.20 C 1775.40 76.18 1772.49 79.02 1769.77 82.04 C 1769.36 74.62 1768.98 67.15 1769.80 59.74 Z" />
<path fill="#141414" d=" M 31.05 74.40 C 27.29 73.21 28.34 68.36 30.25 65.96 C 31.54 68.61 31.33 71.56 31.05 74.40 Z" />
<path fill="#010101" d=" M 1771.61 67.15 C 1772.07 67.28 1773.00 67.56 1773.47 67.70 C 1773.95 70.00 1773.82 72.35 1773.12 74.59 C 1772.72 74.33 1771.93 73.80 1771.53 73.54 C 1771.53 71.41 1771.56 69.28 1771.61 67.15 Z" />
<path fill="#000000" d=" M 0.00 69.42 C 3.80 67.23 9.05 67.17 11.86 70.96 C 8.37 72.89 2.85 74.34 0.00 70.70 L 0.00 69.42 Z" />
<path fill="#000000" d=" M 1790.77 69.95 C 1794.60 68.00 1799.18 67.76 1803.00 69.90 L 1803.00 72.16 C 1798.88 73.23 1793.42 74.34 1790.77 69.95 Z" />
<path fill="#ffffff" d=" M 30.60 82.91 C 33.77 84.42 33.32 88.41 33.09 91.31 C 31.20 88.93 31.02 85.79 30.60 82.91 Z" />
<path fill="#ffffff" d=" M 1769.22 91.57 C 1769.32 88.60 1768.43 84.37 1771.67 82.72 C 1771.84 85.86 1771.18 89.06 1769.22 91.57 Z" />
<path fill="#000000" d=" M 33.28 454.19 C 34.98 454.20 36.68 454.20 38.38 454.21 C 38.38 475.32 38.38 496.42 38.38 517.53 C 60.11 517.53 81.83 517.53 103.56 517.54 C 103.55 519.09 103.54 520.65 103.54 522.22 C 100.54 522.38 97.18 521.74 94.60 523.67 C 89.49 527.06 82.51 526.00 77.81 530.16 C 76.37 531.25 75.79 533.16 76.27 534.91 C 77.22 538.80 83.65 540.12 85.24 535.98 C 84.35 535.79 82.55 535.43 81.65 535.25 C 81.55 534.39 81.34 532.67 81.24 531.82 C 81.91 531.51 83.26 530.89 83.93 530.58 C 84.54 530.89 85.75 531.50 86.36 531.80 C 87.01 533.64 88.39 535.97 86.48 537.56 C 85.13 539.90 82.33 540.18 79.91 539.78 C 76.64 539.60 75.20 536.20 72.96 534.33 C 73.26 536.10 73.28 538.12 74.59 539.53 C 77.31 543.06 82.22 542.77 86.10 544.01 C 80.98 546.07 75.38 543.37 72.04 539.40 C 68.79 543.63 63.14 545.79 57.92 544.42 C 61.60 542.93 66.07 542.97 69.06 540.08 C 70.65 538.72 70.82 536.53 71.26 534.64 C 69.29 536.16 67.73 538.14 65.73 539.61 C 62.55 541.13 57.74 539.79 56.68 536.15 C 56.60 534.62 57.28 533.21 57.65 531.78 C 58.26 531.46 59.47 530.82 60.08 530.51 C 61.65 531.26 63.23 532.15 62.52 534.21 C 61.45 535.25 60.06 535.85 58.79 536.60 C 61.80 541.26 69.51 536.87 67.52 531.89 C 63.60 525.86 55.55 527.33 49.95 524.11 C 48.09 523.32 45.53 521.10 43.86 523.50 C 43.44 523.07 43.02 522.66 42.59 522.25 C 40.17 522.39 37.74 522.38 35.34 522.69 C 37.85 523.94 40.96 523.07 43.22 524.98 C 39.57 526.40 35.39 525.66 31.85 527.47 C 28.75 528.84 26.41 531.40 24.54 534.17 C 27.19 534.64 29.82 535.24 32.33 536.22 C 31.72 536.32 30.51 536.52 29.91 536.63 C 30.88 542.82 24.62 546.34 19.21 545.97 C 20.52 547.55 21.82 549.15 22.92 550.89 C 20.34 549.58 18.44 547.35 16.08 545.75 C 10.39 545.56 6.60 550.57 2.06 553.23 C 4.90 548.60 9.57 544.76 9.90 538.95 C 7.96 537.11 5.64 535.47 4.69 532.85 C 6.27 533.90 7.69 535.15 9.16 536.35 C 8.46 530.70 13.23 525.47 18.88 525.65 C 18.82 525.01 18.69 523.72 18.62 523.08 C 19.13 523.74 19.64 524.41 20.15 525.08 C 20.34 526.51 20.49 527.95 20.58 529.40 C 21.65 529.38 22.73 529.36 23.81 529.35 C 26.68 526.14 29.61 522.47 29.61 517.92 C 29.54 514.99 30.59 512.03 33.38 510.70 C 32.54 507.24 30.23 504.35 29.51 500.85 C 28.33 496.69 28.13 491.41 23.86 489.10 C 20.94 487.09 16.76 489.68 16.61 493.04 C 16.35 494.83 17.72 496.20 18.60 497.59 C 19.79 495.96 20.37 492.82 23.08 493.57 C 25.15 494.63 24.95 497.93 22.78 498.75 C 19.24 500.96 14.49 497.46 15.17 493.46 C 14.89 489.56 18.65 487.58 21.12 485.33 C 14.21 485.01 11.87 492.71 11.03 498.23 C 9.01 493.32 11.54 487.35 15.92 484.62 C 11.80 481.90 9.81 477.04 10.12 472.19 C 10.45 472.18 11.11 472.17 11.44 472.16 C 11.91 477.35 14.86 484.12 21.06 483.69 C 18.46 481.29 14.55 479.05 15.09 474.92 C 14.70 470.84 20.17 467.76 23.29 470.69 C 25.89 472.15 23.74 476.72 20.93 475.45 C 20.03 474.19 19.26 472.86 18.63 471.46 C 13.81 474.48 18.10 481.81 23.05 480.34 C 29.62 476.80 27.88 468.03 31.62 462.52 C 33.44 460.10 33.30 457.05 33.28 454.19 Z" />
<path fill="#000000" d=" M 1764.62 454.21 C 1766.19 454.20 1767.80 454.20 1769.42 454.20 C 1769.43 456.88 1769.30 459.74 1770.97 462.03 C 1774.23 467.25 1773.05 474.73 1778.33 478.74 C 1781.09 481.44 1785.98 478.52 1785.91 475.00 C 1786.07 473.34 1784.94 472.00 1784.20 470.67 C 1783.10 473.10 1781.50 475.15 1778.58 474.86 C 1778.37 473.15 1778.35 471.44 1778.47 469.74 C 1782.03 467.43 1787.29 469.67 1787.58 474.03 C 1788.04 477.72 1784.98 480.31 1782.19 482.06 C 1782.22 483.30 1782.27 484.55 1782.35 485.81 C 1785.36 487.31 1788.18 490.23 1787.53 493.88 C 1787.49 498.32 1781.38 500.43 1778.52 497.10 C 1778.47 496.21 1778.37 494.42 1778.33 493.53 C 1779.67 493.36 1781.05 493.23 1782.45 493.15 C 1782.89 494.47 1783.34 495.79 1783.80 497.12 C 1784.82 495.55 1786.32 493.96 1785.84 491.91 C 1785.62 489.41 1782.94 488.40 1781.04 487.46 C 1776.77 488.77 1774.57 492.86 1773.94 497.02 C 1773.37 501.27 1771.46 505.09 1769.63 508.89 C 1769.04 510.47 1770.79 511.27 1771.52 512.38 C 1773.17 513.72 1772.71 516.02 1773.15 517.88 C 1773.60 522.79 1776.65 527.73 1781.25 529.73 C 1781.65 529.60 1782.43 529.35 1782.82 529.23 C 1784.72 531.74 1786.48 534.77 1789.91 535.31 C 1790.67 531.94 1787.94 529.30 1784.56 530.55 L 1785.88 528.83 C 1787.21 529.10 1789.88 529.64 1791.21 529.91 C 1789.02 527.54 1786.20 525.50 1783.03 527.35 L 1782.00 527.50 C 1782.34 525.82 1782.85 524.17 1783.35 522.53 C 1783.41 523.19 1783.53 524.51 1783.59 525.17 C 1786.13 525.35 1788.94 525.61 1790.81 527.62 C 1793.15 529.72 1793.08 533.10 1793.59 535.97 C 1795.08 534.64 1796.62 533.33 1798.25 532.15 C 1797.28 534.61 1795.38 536.48 1793.28 538.00 C 1792.76 544.07 1798.25 547.95 1801.11 552.65 C 1796.87 550.46 1793.69 546.31 1788.93 545.25 C 1784.93 544.45 1783.28 549.25 1779.81 550.23 C 1780.89 548.64 1782.18 547.22 1783.49 545.80 C 1781.25 545.40 1779.12 544.91 1777.00 544.20 C 1775.93 543.01 1774.87 541.85 1773.86 540.66 C 1774.55 540.51 1775.27 540.37 1776.01 540.25 C 1776.35 541.39 1776.63 542.50 1777.02 543.66 C 1777.55 542.47 1778.17 541.32 1778.79 540.17 L 1779.98 542.10 C 1780.51 542.17 1781.58 542.30 1782.11 542.37 C 1784.16 539.46 1780.50 536.59 1777.91 535.83 C 1775.46 534.31 1774.90 536.86 1774.43 538.75 C 1772.71 538.63 1771.64 537.03 1770.29 536.19 C 1772.26 533.66 1775.72 534.78 1778.36 533.48 C 1775.12 529.26 1770.48 525.79 1765.00 525.49 C 1762.18 525.47 1759.10 524.73 1757.82 521.95 C 1754.51 522.09 1752.03 524.50 1748.93 525.30 C 1745.23 526.34 1741.15 526.53 1737.88 528.72 C 1735.96 529.88 1735.27 532.11 1734.44 534.04 C 1735.50 535.29 1736.48 536.68 1737.90 537.62 C 1740.05 538.33 1742.25 537.54 1744.38 537.06 C 1743.05 535.67 1740.72 534.94 1740.20 532.99 C 1739.57 530.05 1744.20 529.79 1745.36 531.82 C 1747.75 534.95 1744.94 540.11 1740.91 539.53 C 1736.72 540.56 1734.57 536.49 1731.90 534.19 C 1732.23 535.93 1732.05 538.14 1733.64 539.37 C 1736.59 542.30 1740.95 542.48 1744.65 543.92 C 1739.60 545.66 1734.12 543.11 1731.06 539.01 C 1727.71 542.81 1722.49 545.67 1717.36 543.97 C 1721.00 542.48 1725.52 542.45 1728.27 539.27 C 1729.73 537.78 1729.74 535.60 1730.03 533.68 C 1727.69 536.03 1725.85 539.76 1722.06 539.73 C 1718.48 540.27 1714.27 536.76 1715.93 533.01 C 1716.55 530.54 1720.15 529.49 1721.57 531.90 C 1722.13 534.55 1719.25 535.52 1717.76 537.11 C 1720.68 538.48 1724.92 538.60 1726.49 535.18 C 1727.74 531.34 1723.96 528.26 1720.70 527.27 C 1716.64 526.01 1712.19 525.92 1708.54 523.54 C 1705.65 521.57 1702.04 521.85 1698.74 521.67 C 1698.83 520.28 1698.98 518.91 1699.14 517.53 C 1720.96 517.54 1742.78 517.52 1764.61 517.54 C 1764.63 496.43 1764.61 475.32 1764.62 454.21 Z" />
<path fill="#ffffff" d=" M 1769.37 462.68 C 1771.01 465.58 1772.17 468.96 1771.25 472.32 C 1769.07 469.56 1768.92 466.00 1769.37 462.68 Z" />
<path fill="#ffffff" d=" M 30.52 472.25 C 31.02 469.30 31.20 466.07 33.11 463.63 C 33.37 466.63 33.67 470.60 30.52 472.25 Z" />
<path fill="#050505" d=" M 1789.76 476.90 C 1790.55 474.86 1790.23 472.17 1792.23 470.79 C 1793.07 475.73 1790.68 480.59 1786.96 483.75 C 1790.95 487.01 1793.16 492.21 1792.25 497.36 C 1790.18 495.42 1790.76 492.28 1789.59 489.90 C 1788.78 487.52 1786.79 485.82 1784.41 485.18 C 1783.71 484.47 1783.07 483.76 1782.43 483.05 C 1785.89 482.82 1789.00 480.30 1789.76 476.90 Z" />
<path fill="#ffffff" d=" M 23.70 482.85 C 26.58 479.50 29.59 476.21 33.00 473.38 C 33.23 480.76 33.67 488.21 32.61 495.55 C 29.77 492.66 26.82 489.86 24.16 486.81 C 23.12 485.78 22.58 484.02 23.70 482.85 Z" />
<path fill="#ffffff" d=" M 1769.75 472.71 C 1773.41 475.74 1776.23 479.64 1779.64 482.95 C 1780.01 485.07 1778.29 486.50 1777.03 487.91 C 1774.65 490.31 1772.31 492.75 1769.82 495.02 C 1769.35 487.60 1769.44 480.13 1769.75 472.71 Z" />
<path fill="#010101" d=" M 1771.56 480.45 C 1772.04 480.47 1773.00 480.52 1773.49 480.54 C 1774.01 483.21 1774.20 486.27 1771.78 488.07 C 1771.55 485.53 1771.51 482.99 1771.56 480.45 Z" />
<path fill="#151515" d=" M 30.47 488.97 C 28.21 486.83 27.27 481.72 31.04 480.68 C 31.33 483.45 31.44 486.30 30.47 488.97 Z" />
<path fill="#000000" d=" M 0.00 483.67 C 2.71 481.78 6.27 481.82 9.34 482.70 C 10.30 482.95 12.21 484.96 10.54 485.52 C 7.45 488.08 3.32 487.12 0.01 485.58 L 0.00 486.53 L 0.00 483.67 Z" />
<path fill="#000000" d=" M 1791.76 483.06 C 1794.91 480.33 1799.46 481.44 1803.00 482.76 L 1803.00 484.83 C 1800.16 485.88 1797.03 486.75 1794.05 485.81 C 1792.61 485.61 1790.57 484.87 1791.76 483.06 Z" />
<path fill="#ffffff" d=" M 1770.48 503.05 C 1768.09 501.62 1770.04 497.51 1771.53 495.59 C 1771.68 498.12 1771.45 500.68 1770.48 503.05 Z" />
<path fill="#e3e3e3" d=" M 32.77 503.65 C 31.33 502.61 30.72 499.02 31.81 497.61 C 33.08 499.15 33.25 501.78 32.77 503.65 Z" />
<path fill="#ffffff" d=" M 32.47 512.34 C 33.96 514.74 33.17 517.70 33.08 520.35 C 31.97 517.83 32.07 515.00 32.47 512.34 Z" />
<path fill="#6c6c6c" d=" M 1769.09 519.46 C 1769.25 517.12 1767.94 513.64 1770.92 512.60 C 1770.67 514.89 1772.15 518.59 1769.09 519.46 Z" />
<path fill="#ffffff" d=" M 31.10 520.68 C 32.61 521.69 33.99 522.88 35.16 524.27 C 33.11 525.22 31.01 526.05 28.86 526.75 C 29.51 524.69 30.30 522.68 31.10 520.68 Z" />
<path fill="#ffffff" d=" M 1709.68 521.91 C 1712.21 522.09 1717.56 520.85 1717.86 524.52 C 1715.07 523.98 1711.82 524.01 1709.68 521.91 Z" />
<path fill="#ffffff" d=" M 1743.46 524.35 C 1745.16 521.01 1749.23 521.75 1752.30 522.16 C 1749.49 523.42 1746.50 524.13 1743.46 524.35 Z" />
<path fill="#ffffff" d=" M 1759.54 522.35 C 1762.07 521.55 1764.78 521.65 1767.36 522.29 C 1764.77 522.77 1762.11 522.82 1759.54 522.35 Z" />
<path fill="#ffffff" d=" M 1768.08 524.01 C 1768.59 522.53 1769.73 520.22 1771.70 521.27 C 1772.72 522.80 1773.30 524.57 1773.99 526.28 C 1771.96 525.66 1769.99 524.86 1768.08 524.01 Z" />
<path fill="#ffffff" d=" M 50.54 522.59 C 53.86 522.18 57.59 521.95 60.05 524.67 C 56.76 524.74 53.48 524.09 50.54 522.59 Z" />
<path fill="#ffffff" d=" M 60.81 522.64 C 68.23 522.23 75.71 522.26 83.14 522.63 C 79.95 526.25 76.39 529.58 72.57 532.52 C 71.12 533.30 70.22 531.53 69.21 530.82 C 66.48 528.02 63.26 525.71 60.81 522.64 Z" />
<path fill="#ffffff" d=" M 84.53 524.75 C 86.17 521.11 90.72 522.31 93.85 522.48 C 90.88 523.71 87.75 524.59 84.53 524.75 Z" />
<path fill="#ffffff" d=" M 1719.58 522.44 C 1727.11 521.68 1734.82 521.27 1742.33 522.52 C 1738.68 526.06 1734.86 529.42 1730.95 532.67 C 1726.91 529.55 1723.16 526.07 1719.58 522.44 Z" />
<path fill="#020202" d=" M 67.78 524.77 C 70.62 524.45 73.48 524.41 76.32 524.69 C 74.33 527.43 69.71 527.71 67.78 524.77 Z" />
<path fill="#000000" d=" M 1726.64 524.66 C 1729.48 523.70 1732.46 523.73 1735.32 524.72 C 1732.80 526.74 1728.90 527.39 1726.64 524.66 Z" />
<path fill="#ffffff" d=" M 11.56 530.66 C 13.27 528.32 16.20 526.09 19.16 527.77 C 19.21 528.59 19.31 530.22 19.36 531.04 C 17.11 528.70 14.18 529.82 11.56 530.66 Z" />
<path fill="#ffffff" d=" M 22.71 532.02 C 22.39 531.56 20.42 530.23 21.88 530.12 C 23.02 530.32 23.53 531.60 23.61 532.64 C 21.81 536.50 17.18 539.21 18.62 544.05 C 16.43 544.02 14.38 543.27 12.31 542.66 L 13.37 543.81 C 12.17 544.53 10.96 545.25 9.74 545.96 C 10.40 544.35 11.34 542.90 12.27 541.45 C 13.02 541.35 14.53 541.16 15.28 541.06 C 14.30 540.80 12.33 540.26 11.34 539.99 C 11.33 539.19 11.31 537.59 11.30 536.79 C 12.69 536.64 15.48 536.34 16.87 536.19 C 16.58 536.89 15.99 538.27 15.69 538.96 L 16.64 538.08 L 17.77 539.22 C 18.28 538.51 19.29 537.09 19.79 536.39 C 18.89 535.98 18.00 535.58 17.10 535.18 C 19.00 534.18 20.84 533.06 22.71 532.02 Z" />
<path fill="#ffffff" d=" M 12.68 535.46 C 11.34 531.44 16.52 530.59 19.34 531.38 C 17.51 533.23 15.73 536.11 12.68 535.46 Z" />
<path fill="#ffffff" d=" M 1778.66 530.90 C 1782.99 532.60 1786.39 536.90 1791.44 536.36 C 1791.43 537.12 1791.40 538.64 1791.38 539.39 C 1790.19 539.75 1788.81 539.85 1787.96 540.82 C 1788.04 543.08 1786.37 543.63 1784.40 543.57 C 1784.45 541.29 1783.76 539.13 1783.20 536.96 C 1783.73 537.34 1784.79 538.10 1785.32 538.48 C 1786.49 537.10 1784.93 535.64 1783.76 535.01 C 1783.62 535.50 1783.34 536.48 1783.20 536.96 C 1780.90 535.67 1779.66 533.21 1778.66 530.90 Z" />
<path fill="#000000" d=" M 1783.20 536.96 C 1783.34 536.48 1783.62 535.50 1783.76 535.01 C 1784.93 535.64 1786.49 537.10 1785.32 538.48 C 1784.79 538.10 1783.73 537.34 1783.20 536.96 Z" />
<path fill="#ffffff" d=" M 20.24 542.77 C 19.04 538.65 25.99 533.54 28.48 537.81 C 28.83 540.24 26.63 541.92 25.06 543.42 C 25.43 541.83 25.90 540.27 26.30 538.70 C 25.59 538.31 24.18 537.52 23.48 537.12 C 26.16 539.80 23.25 542.89 20.24 542.77 Z" />
<path fill="#020202" d=" M 1777.37 538.37 C 1777.64 538.65 1777.64 538.65 1777.37 538.37 Z" />
<path fill="#ffffff" d=" M 1789.24 541.18 C 1791.51 540.02 1792.41 543.83 1793.27 545.31 C 1791.90 544.22 1788.48 543.46 1789.24 541.18 Z" />
<path fill="#000000" d=" M 71.02 555.00 C 69.70 551.23 68.38 546.13 71.97 543.18 C 75.68 545.86 75.30 551.82 72.43 555.00 L 71.02 555.00 Z" />
<path fill="#000000" d=" M 1730.22 555.00 C 1727.78 551.24 1727.64 546.06 1731.00 542.79 C 1734.18 546.16 1734.40 551.43 1731.40 555.00 L 1730.22 555.00 Z" />
</svg>
