<?xml version="1.0" encoding="UTF-8" ?>
<!DOCTYPE svg PUBLIC "-//W3C//DTD SVG 1.1//EN" "http://www.w3.org/Graphics/SVG/1.1/DTD/svg11.dtd">
<svg width="1803pt" height="555pt" viewBox="0 0 1803 555" version="1.1" xmlns="http://www.w3.org/2000/svg">
<path fill="#ffffff" d=" M 0.00 0.00 L 71.57 0.00 C 68.59 3.61 68.84 8.85 72.01 12.25 C 75.33 8.92 75.11 3.88 72.92 0.00 L 1730.54 0.00 C 1727.38 3.48 1727.86 8.96 1730.99 12.29 C 1734.09 8.86 1733.73 3.95 1731.91 0.00 L 1803.00 0.00 L 1803.00 69.54 C 1799.45 67.41 1794.84 67.17 1791.62 70.03 C 1793.58 74.25 1799.48 72.98 1803.00 71.62 L 1803.00 484.24 C 1800.08 480.66 1794.60 482.14 1791.10 484.05 C 1793.99 487.77 1799.13 487.75 1803.00 485.64 L 1803.00 555.00 L 72.58 555.00 C 75.53 551.50 75.22 546.00 71.95 542.80 C 68.75 546.17 68.85 551.27 71.37 555.00 L 0.00 555.00 L 0.00 72.25 C 3.58 73.61 8.01 74.54 11.31 72.01 C 12.43 69.49 9.66 69.38 7.94 68.97 C 5.24 68.41 2.54 69.29 0.00 70.11 L 0.00 0.00 Z" />
<path fill="#000000" d=" M 71.57 0.00 L 72.92 0.00 C 75.11 3.88 75.33 8.92 72.01 12.25 C 68.84 8.85 68.59 3.61 71.57 0.00 Z" />
<path fill="#000000" d=" M 1730.54 0.00 L 1731.91 0.00 C 1733.73 3.95 1734.09 8.86 1730.99 12.29 C 1727.86 8.96 1727.38 3.48 1730.54 0.00 Z" />
<path fill="#010101" d=" M 1.89 2.33 C 6.76 4.72 10.62 10.69 16.63 9.61 C 18.87 8.02 20.66 5.78 23.26 4.70 C 22.13 6.34 20.74 7.77 19.38 9.21 C 24.89 9.11 30.27 13.18 30.47 18.91 C 31.08 18.82 32.30 18.63 32.91 18.54 C 31.98 19.14 31.05 19.74 30.12 20.34 C 29.03 20.43 27.94 20.52 26.85 20.59 C 26.25 20.22 25.65 19.84 25.04 19.46 C 26.65 19.71 28.62 19.00 28.39 17.02 C 28.55 14.66 26.18 13.10 24.93 11.33 C 25.45 13.38 26.11 15.38 26.75 17.39 C 26.10 17.54 24.82 17.84 24.17 17.99 C 24.32 17.20 24.62 15.62 24.77 14.83 C 23.80 13.89 22.83 12.95 21.85 12.02 C 20.82 13.34 19.84 14.70 18.84 16.05 C 18.80 14.92 18.71 12.67 18.67 11.54 C 17.57 11.62 16.46 11.70 15.35 11.77 C 15.33 12.46 15.29 13.83 15.26 14.52 C 14.04 15.08 12.82 15.62 11.56 16.11 C 10.63 19.46 14.16 18.66 16.24 19.09 C 14.98 19.63 13.71 20.13 12.43 20.63 C 12.91 21.79 13.42 22.95 13.94 24.10 L 14.55 25.40 C 13.16 25.38 11.76 25.36 10.37 25.34 C 10.09 23.29 9.76 21.26 9.50 19.21 C 7.89 20.43 6.32 21.69 4.64 22.79 C 5.67 19.45 10.74 17.92 9.58 14.04 C 8.19 9.47 4.36 6.29 1.89 2.33 Z" />
<path fill="#060606" d=" M 1786.94 9.22 C 1792.62 9.46 1796.40 4.37 1800.96 1.77 C 1798.11 6.39 1793.49 10.23 1793.09 16.01 C 1795.05 17.88 1797.40 19.56 1798.33 22.24 C 1796.75 21.13 1795.30 19.84 1793.86 18.61 C 1794.53 24.25 1789.86 29.54 1784.17 29.36 C 1784.18 30.06 1784.20 31.46 1784.21 32.16 C 1782.90 29.50 1782.18 26.63 1781.46 23.79 C 1776.82 27.50 1772.96 32.77 1773.20 38.99 C 1773.54 42.30 1768.72 43.64 1770.25 47.01 C 1769.61 45.72 1769.46 44.31 1769.61 42.90 C 1769.90 42.41 1770.50 41.43 1770.79 40.94 C 1770.82 38.65 1770.46 36.38 1770.10 34.12 L 1770.16 33.03 C 1770.58 33.37 1771.41 34.04 1771.83 34.37 C 1772.63 32.36 1773.43 30.34 1774.26 28.32 C 1772.57 28.81 1771.06 29.32 1769.45 29.82 C 1766.65 30.11 1763.85 30.21 1761.07 30.37 L 1761.70 30.52 C 1761.35 31.10 1760.65 32.27 1760.31 32.86 C 1759.82 32.81 1758.86 32.72 1758.37 32.68 C 1759.16 31.58 1760.09 30.49 1760.94 29.40 C 1764.73 28.90 1768.80 29.05 1772.19 26.98 C 1774.84 25.59 1776.70 23.16 1778.56 20.88 C 1776.32 20.40 1774.16 19.92 1771.98 19.33 C 1771.40 18.82 1770.84 18.32 1770.30 17.82 C 1770.98 18.05 1772.33 18.51 1773.01 18.74 C 1773.44 16.47 1773.02 13.66 1775.00 12.00 C 1777.26 9.64 1780.64 9.25 1783.74 8.99 C 1782.42 7.40 1781.12 5.81 1779.99 4.09 C 1782.60 5.38 1784.53 7.62 1786.94 9.22 Z" />
<path fill="#ffffff" d=" M 9.75 9.51 C 11.61 10.61 13.36 11.93 14.70 13.65 C 14.28 13.77 13.44 14.01 13.03 14.13 C 10.87 13.73 10.64 11.10 9.75 9.51 Z" />
<path fill="#000000" d=" M 58.12 10.99 C 63.28 9.47 68.81 11.74 71.94 15.99 C 75.30 12.13 80.55 9.38 85.73 10.99 C 82.06 12.49 77.51 12.53 74.74 15.72 C 73.26 17.23 73.24 19.44 72.91 21.39 C 75.26 19.03 77.10 15.27 80.91 15.27 C 84.49 14.72 88.68 18.18 87.10 21.95 C 86.46 24.41 82.86 25.54 81.45 23.11 C 80.60 20.43 83.61 19.65 85.17 18.28 C 81.79 14.99 74.70 17.96 76.52 23.00 C 79.77 29.63 88.34 27.75 93.80 31.11 C 96.82 33.26 100.59 33.25 104.14 33.30 C 104.13 34.79 104.13 36.29 104.13 37.78 C 84.43 37.91 64.73 37.82 45.04 37.83 C 42.85 37.91 40.59 37.57 38.46 38.13 C 38.29 59.00 38.41 79.88 38.40 100.75 C 36.79 100.78 35.19 100.80 33.59 100.83 C 33.57 98.11 33.67 95.24 32.00 92.92 C 28.69 87.47 29.93 79.46 23.93 75.73 C 20.60 73.73 17.90 77.28 16.48 79.86 C 17.20 81.38 17.96 82.88 18.78 84.35 C 19.85 81.91 21.58 79.71 24.52 80.27 C 24.62 81.93 24.62 83.59 24.53 85.25 C 21.23 87.30 16.65 85.80 15.57 81.98 C 14.47 77.99 17.66 74.81 20.76 72.95 C 20.72 71.70 20.68 70.46 20.65 69.21 C 17.63 67.66 14.75 64.75 15.47 61.04 C 15.55 57.10 20.78 54.70 23.75 57.34 C 25.28 58.17 24.39 60.15 24.59 61.54 C 23.25 61.66 21.90 61.76 20.55 61.84 C 20.07 60.46 19.60 59.08 19.15 57.70 C 18.26 59.38 16.70 61.00 17.15 63.07 C 17.35 65.58 20.04 66.58 21.95 67.55 C 27.52 65.92 28.81 59.92 29.74 54.96 C 30.17 51.38 32.91 48.63 33.47 45.14 C 32.68 43.81 31.49 42.77 30.58 41.53 C 29.72 38.56 30.06 35.28 28.65 32.46 C 27.11 29.06 24.35 26.41 21.20 24.48 C 20.81 27.17 20.47 29.88 19.78 32.51 C 19.68 31.84 19.47 30.51 19.37 29.84 C 16.37 29.84 13.61 28.74 11.24 26.95 C 11.80 26.56 12.36 26.16 12.92 25.77 C 14.31 27.78 17.75 30.03 19.54 27.25 C 19.41 26.20 19.15 24.10 19.01 23.05 C 18.32 24.21 17.65 25.39 16.99 26.58 C 16.16 26.21 15.35 25.82 14.55 25.40 L 13.94 24.10 C 14.86 24.26 16.69 24.59 17.61 24.76 C 17.64 23.06 17.00 21.71 15.69 20.71 C 16.11 20.34 16.54 19.97 16.96 19.60 C 19.36 21.37 21.90 22.97 24.62 24.21 C 23.35 21.84 21.77 19.66 20.02 17.62 C 20.05 18.44 20.12 20.09 20.15 20.91 C 18.89 19.65 17.60 18.43 16.35 17.17 L 18.26 16.36 L 19.27 19.13 C 19.57 17.85 19.82 16.56 20.02 15.27 C 21.53 16.85 23.13 18.38 25.04 19.46 C 25.65 19.84 26.25 20.22 26.85 20.59 C 26.37 20.89 25.39 21.48 24.91 21.78 C 27.16 24.61 29.87 27.22 33.35 28.44 C 37.30 30.25 43.06 28.46 45.31 33.19 C 49.13 32.54 52.14 29.72 56.01 29.24 C 60.33 28.25 66.06 27.62 67.82 22.81 C 69.32 20.44 66.40 18.77 65.13 17.15 C 62.95 17.07 60.72 17.13 58.75 18.19 C 60.59 19.60 64.37 21.26 62.21 24.14 C 60.66 24.43 58.69 24.87 57.71 23.25 C 55.97 21.33 57.26 18.85 57.79 16.74 C 60.21 15.65 62.92 15.03 65.55 15.67 C 67.73 17.02 69.23 19.20 71.17 20.84 C 70.73 19.09 70.94 16.90 69.38 15.64 C 66.35 12.67 61.88 12.46 58.12 10.99 Z" />
<path fill="#000000" d=" M 1718.29 10.16 C 1723.14 9.92 1728.01 11.77 1730.99 15.72 C 1734.04 11.27 1739.90 9.27 1745.10 10.56 C 1741.40 12.09 1736.89 12.01 1733.90 14.96 C 1732.28 16.33 1732.18 18.55 1731.80 20.46 C 1733.70 18.85 1735.24 16.82 1737.30 15.37 C 1740.45 13.87 1745.28 15.22 1746.30 18.86 C 1746.75 21.34 1745.07 23.38 1743.17 24.66 C 1741.64 23.77 1739.69 22.99 1740.46 20.82 C 1741.66 19.78 1743.02 18.98 1744.38 18.12 C 1742.55 16.85 1740.09 15.52 1738.01 17.04 C 1735.60 18.32 1734.04 21.83 1736.20 24.02 C 1739.34 27.96 1744.69 28.06 1749.16 29.34 C 1752.38 30.06 1754.99 32.55 1758.37 32.68 C 1758.86 32.72 1759.82 32.81 1760.31 32.86 C 1763.00 33.08 1765.71 32.99 1768.42 32.62 C 1766.28 31.60 1763.98 30.99 1761.70 30.52 L 1761.07 30.37 C 1763.85 30.21 1766.65 30.11 1769.45 29.82 C 1769.05 30.10 1768.25 30.67 1767.85 30.95 C 1768.57 31.66 1769.35 32.37 1770.16 33.03 L 1770.10 34.12 C 1769.72 37.04 1769.66 39.97 1769.61 42.90 C 1769.46 44.31 1769.61 45.72 1770.25 47.01 C 1773.68 51.46 1773.73 57.29 1775.79 62.33 C 1777.16 65.47 1781.56 68.23 1784.54 65.42 C 1787.36 63.41 1786.18 59.75 1784.94 57.19 C 1783.40 58.74 1782.70 61.98 1779.94 61.45 C 1777.75 60.33 1778.05 57.01 1780.32 56.19 C 1783.52 54.29 1788.20 57.15 1787.81 60.93 C 1788.46 65.10 1784.48 67.34 1781.89 69.75 C 1785.96 69.87 1789.22 66.70 1790.41 63.00 C 1791.03 60.91 1791.41 58.74 1792.20 56.70 C 1793.73 61.77 1791.55 67.59 1787.09 70.43 C 1791.49 73.33 1794.08 79.19 1792.05 84.27 C 1791.13 78.81 1788.90 70.94 1781.95 71.29 C 1784.79 73.66 1787.89 76.12 1788.44 80.06 C 1787.54 82.49 1785.97 85.53 1782.97 85.43 C 1780.75 85.59 1777.54 83.55 1778.79 81.01 C 1779.38 79.60 1780.44 79.13 1781.95 79.61 C 1782.97 80.83 1783.84 82.20 1784.86 83.45 C 1788.83 79.96 1784.79 73.25 1779.94 74.69 C 1773.35 78.22 1775.11 87.07 1771.33 92.57 C 1769.47 94.95 1769.71 97.98 1769.72 100.81 C 1768.00 100.80 1766.29 100.79 1764.62 100.79 C 1764.58 79.80 1764.69 58.82 1764.57 37.83 C 1742.86 37.85 1721.15 37.83 1699.45 37.84 C 1699.43 36.16 1699.43 34.47 1699.46 32.79 C 1701.62 32.73 1703.83 32.83 1706.01 32.49 C 1708.40 31.56 1710.47 29.86 1713.04 29.32 C 1717.67 27.96 1723.42 27.73 1726.43 23.38 C 1728.28 19.90 1724.67 15.87 1721.04 16.50 C 1719.34 16.26 1718.64 18.04 1717.62 18.98 C 1718.55 19.17 1720.41 19.56 1721.34 19.76 C 1721.45 20.61 1721.66 22.32 1721.76 23.18 C 1721.09 23.49 1719.74 24.11 1719.07 24.42 C 1718.46 24.11 1717.23 23.48 1716.61 23.17 C 1715.96 21.32 1714.61 18.99 1716.53 17.42 C 1718.21 14.57 1721.89 14.82 1724.68 15.57 C 1727.00 16.66 1728.21 19.16 1730.06 20.86 C 1729.68 19.02 1729.76 16.89 1728.38 15.43 C 1725.97 12.31 1721.70 12.14 1718.15 11.43 C 1718.19 11.11 1718.25 10.48 1718.29 10.16 Z" />
<path fill="#cacaca" d=" M 1791.66 9.93 C 1793.13 8.99 1792.86 11.22 1792.03 11.69 C 1791.24 12.40 1790.39 13.92 1789.18 13.51 C 1788.75 11.96 1790.54 10.73 1791.66 9.93 Z" />
<path fill="#ffffff" d=" M 15.35 11.77 C 16.46 11.70 17.57 11.62 18.67 11.54 C 18.71 12.67 18.80 14.92 18.84 16.05 C 19.84 14.70 20.82 13.34 21.85 12.02 C 22.83 12.95 23.80 13.89 24.77 14.83 C 24.62 15.62 24.32 17.20 24.17 17.99 C 24.82 17.84 26.10 17.54 26.75 17.39 C 26.11 15.38 25.45 13.38 24.93 11.33 C 26.18 13.10 28.55 14.66 28.39 17.02 C 28.62 19.00 26.65 19.71 25.04 19.46 C 23.13 18.38 21.53 16.85 20.02 15.27 C 19.82 16.56 19.57 17.85 19.27 19.13 L 18.26 16.36 L 16.35 17.17 C 17.60 18.43 18.89 19.65 20.15 20.91 C 20.12 20.09 20.05 18.44 20.02 17.62 C 21.77 19.66 23.35 21.84 24.62 24.21 C 21.90 22.97 19.36 21.37 16.96 19.60 C 16.54 19.97 16.11 20.34 15.69 20.71 C 17.00 21.71 17.64 23.06 17.61 24.76 C 16.69 24.59 14.86 24.26 13.94 24.10 C 13.42 22.95 12.91 21.79 12.43 20.63 C 13.71 20.13 14.98 19.63 16.24 19.09 C 14.16 18.66 10.63 19.46 11.56 16.11 C 12.82 15.62 14.04 15.08 15.26 14.52 C 15.29 13.83 15.33 12.46 15.35 11.77 Z" />
<path fill="#ffffff" d=" M 1778.11 14.78 C 1779.37 13.47 1780.86 12.39 1782.74 12.19 C 1783.51 16.01 1779.60 18.99 1776.08 18.92 C 1772.52 16.85 1776.10 13.14 1777.87 11.25 C 1777.41 13.83 1775.36 17.60 1779.67 17.81 C 1779.28 17.05 1778.50 15.54 1778.11 14.78 Z" />
<path fill="#ffffff" d=" M 1784.22 11.17 C 1785.10 11.18 1786.88 11.19 1787.76 11.20 C 1787.98 12.35 1788.21 13.50 1788.45 14.65 C 1789.26 14.69 1790.87 14.78 1791.68 14.83 C 1791.68 15.68 1791.67 17.38 1791.66 18.23 C 1786.47 17.11 1783.38 22.02 1778.99 23.62 C 1779.92 21.59 1781.01 19.64 1782.03 17.64 C 1782.76 18.16 1783.50 18.68 1784.26 19.21 C 1785.05 18.46 1785.86 17.71 1786.68 16.95 C 1784.41 15.80 1784.02 13.51 1784.22 11.17 Z" />
<path fill="#ffffff" d=" M 1783.69 23.61 C 1785.49 21.76 1787.31 18.88 1790.37 19.58 C 1791.49 23.58 1786.51 24.37 1783.69 23.61 Z" />
<path fill="#ffffff" d=" M 1729.34 23.27 C 1730.03 22.68 1731.30 21.68 1732.13 22.71 C 1735.55 25.87 1739.09 28.94 1742.32 32.32 C 1734.81 32.78 1727.25 32.77 1719.76 32.33 C 1722.75 29.11 1725.98 26.11 1729.34 23.27 Z" />
<path fill="#ffffff" d=" M 60.65 32.49 C 64.31 28.95 68.12 25.57 72.05 22.33 C 76.12 25.44 79.82 29.01 83.52 32.54 C 75.94 33.33 68.19 33.71 60.65 32.49 Z" />
<path fill="#ffffff" d=" M 1783.59 24.05 C 1786.06 26.07 1788.83 25.27 1791.59 24.33 C 1789.70 26.42 1786.86 29.01 1783.91 27.19 C 1783.83 26.41 1783.67 24.84 1783.59 24.05 Z" />
<path fill="#000000" d=" M 67.62 30.28 C 69.78 28.64 72.41 28.22 75.05 28.72 C 75.25 29.20 75.66 30.17 75.86 30.66 C 73.10 31.22 70.31 31.12 67.62 30.28 Z" />
<path fill="#020202" d=" M 1726.53 30.27 C 1728.52 27.94 1731.58 27.94 1734.36 28.64 C 1734.45 29.08 1734.64 29.96 1734.73 30.41 C 1731.99 30.51 1729.24 30.55 1726.53 30.27 Z" />
<path fill="#ffffff" d=" M 28.95 28.50 C 30.97 29.27 32.96 30.14 34.93 31.06 C 34.26 32.53 33.21 33.76 31.97 34.79 C 30.71 32.82 29.77 30.68 28.95 28.50 Z" />
<path fill="#ffffff" d=" M 1769.45 29.82 C 1771.06 29.32 1772.57 28.81 1774.26 28.32 C 1773.43 30.34 1772.63 32.36 1771.83 34.37 C 1771.41 34.04 1770.58 33.37 1770.16 33.03 C 1769.35 32.37 1768.57 31.66 1767.85 30.95 C 1768.25 30.67 1769.05 30.10 1769.45 29.82 Z" />
<path fill="#ffffff" d=" M 85.13 30.42 C 88.03 30.97 91.10 31.26 93.60 33.00 C 90.87 33.44 88.16 32.94 85.48 32.40 C 85.40 31.91 85.22 30.92 85.13 30.42 Z" />
<path fill="#ffffff" d=" M 1709.26 32.41 C 1712.06 31.33 1714.99 30.60 1717.97 30.14 C 1717.81 30.69 1717.48 31.81 1717.31 32.37 C 1714.64 32.83 1711.91 32.95 1709.26 32.41 Z" />
<path fill="#ffffff" d=" M 1742.83 30.42 C 1746.18 30.20 1749.52 30.91 1752.53 32.41 C 1749.14 32.84 1745.46 32.96 1742.83 30.42 Z" />
<path fill="#ffffff" d=" M 50.64 33.01 C 53.31 31.56 56.29 30.98 59.27 30.57 C 58.11 34.22 53.53 33.04 50.64 33.01 Z" />
<path fill="#8c8c8c" d=" M 1761.70 30.52 C 1763.98 30.99 1766.28 31.60 1768.42 32.62 C 1765.71 32.99 1763.00 33.08 1760.31 32.86 C 1760.65 32.27 1761.35 31.10 1761.70 30.52 Z" />
<path fill="#ffffff" d=" M 35.54 32.73 C 38.19 32.22 40.92 32.18 43.58 32.66 C 40.96 33.41 38.18 33.34 35.54 32.73 Z" />
<path fill="#ffffff" d=" M 1769.61 42.90 C 1769.66 39.97 1769.72 37.04 1770.10 34.12 C 1770.46 36.38 1770.82 38.65 1770.79 40.94 C 1770.50 41.43 1769.90 42.41 1769.61 42.90 Z" />
<path fill="#6f6f6f" d=" M 33.77 42.50 C 31.11 41.11 31.21 36.77 33.80 35.33 C 33.95 37.72 33.93 40.11 33.77 42.50 Z" />
<path fill="#ffffff" d=" M 31.47 59.48 C 31.13 56.34 31.90 53.25 33.21 50.41 C 33.69 53.57 33.70 56.96 31.47 59.48 Z" />
<path fill="#ffffff" d=" M 1769.95 49.92 C 1771.90 52.38 1771.92 55.60 1771.72 58.57 C 1769.53 56.23 1769.40 52.92 1769.95 49.92 Z" />
<path fill="#060606" d=" M 10.86 57.44 C 12.82 60.22 12.35 63.95 14.26 66.76 C 15.37 68.78 17.72 69.50 19.70 70.36 C 19.69 70.71 19.67 71.40 19.67 71.74 C 17.90 72.51 16.05 73.33 14.84 74.89 C 12.51 77.62 13.14 81.68 10.89 84.45 C 9.66 79.35 12.50 74.64 15.92 71.12 C 11.96 67.82 9.70 62.58 10.86 57.44 Z" />
<path fill="#ffffff" d=" M 1770.39 59.45 C 1773.37 62.52 1776.56 65.42 1779.26 68.76 C 1780.42 69.96 1779.87 71.74 1778.81 72.77 C 1775.99 75.88 1773.14 78.99 1769.98 81.75 C 1769.79 74.32 1769.30 66.83 1770.39 59.45 Z" />
<path fill="#ffffff" d=" M 23.56 70.00 C 26.35 66.29 29.88 63.20 33.19 59.96 C 33.64 67.38 33.54 74.84 33.27 82.27 C 30.44 80.26 28.55 77.29 26.07 74.91 C 24.82 73.49 22.49 72.23 23.56 70.00 Z" />
<path fill="#151515" d=" M 1771.99 74.49 C 1771.68 71.59 1771.34 68.51 1772.89 65.87 C 1774.45 68.47 1775.75 73.13 1771.99 74.49 Z" />
<path fill="#010101" d=" M 29.47 74.40 C 28.95 71.71 28.89 68.74 31.21 66.88 C 31.43 69.44 31.47 72.01 31.44 74.58 C 30.95 74.53 29.96 74.45 29.47 74.40 Z" />
<path fill="#000000" d=" M 1791.62 70.03 C 1794.84 67.17 1799.45 67.41 1803.00 69.54 L 1803.00 71.62 C 1799.48 72.98 1793.58 74.25 1791.62 70.03 Z" />
<path fill="#000000" d=" M 0.00 70.11 C 2.54 69.29 5.24 68.41 7.94 68.97 C 9.66 69.38 12.43 69.49 11.31 72.01 C 8.01 74.54 3.58 73.61 0.00 72.25 L 0.00 70.11 Z" />
<path fill="#ffffff" d=" M 31.56 82.81 C 34.05 85.38 34.04 89.06 33.63 92.39 C 31.99 89.48 31.02 86.17 31.56 82.81 Z" />
<path fill="#ffffff" d=" M 1770.70 83.62 C 1771.17 83.52 1772.12 83.33 1772.59 83.23 C 1771.94 86.12 1771.36 89.05 1770.00 91.70 C 1769.37 88.97 1769.96 86.25 1770.70 83.62 Z" />
<path fill="#000000" d=" M 33.58 454.17 C 35.18 454.19 36.79 454.21 38.39 454.24 C 38.40 475.22 38.31 496.20 38.44 517.17 C 60.33 517.19 82.23 517.09 104.12 517.22 C 104.13 518.70 104.14 520.19 104.15 521.69 C 100.62 521.76 96.86 521.73 93.85 523.87 C 88.79 527.04 81.57 525.49 77.50 530.42 C 75.19 532.68 76.28 537.04 79.50 537.75 C 81.49 538.87 83.44 537.62 85.17 536.64 C 83.56 535.33 80.63 534.55 81.45 531.88 C 83.09 529.08 87.13 531.05 87.35 533.85 C 88.02 537.44 84.32 540.25 80.97 539.70 C 77.13 539.73 75.25 535.98 72.89 533.61 C 73.23 535.57 73.28 537.79 74.77 539.31 C 77.54 542.50 82.13 542.45 85.78 543.99 C 80.59 545.63 75.30 542.90 71.94 539.01 C 68.83 543.21 63.34 545.57 58.22 543.98 C 61.94 542.52 66.37 542.32 69.37 539.36 C 70.93 538.10 70.74 535.89 71.19 534.15 C 68.59 536.07 66.84 540.13 63.05 539.56 C 61.18 539.66 59.45 538.91 57.76 538.24 C 57.33 536.13 55.98 533.75 57.64 531.84 C 58.93 529.42 63.93 530.49 62.71 533.56 C 61.54 534.79 60.18 535.83 58.93 536.99 C 60.34 537.47 61.75 537.95 63.16 538.43 C 65.10 537.48 67.93 536.61 67.88 533.97 C 68.15 528.88 62.10 527.01 58.09 526.22 C 53.69 525.68 49.84 523.50 45.94 521.56 C 44.20 523.72 41.90 525.56 38.95 525.39 C 33.17 525.59 27.92 528.89 24.65 533.56 C 27.16 534.70 31.94 533.89 32.68 537.32 L 30.70 535.39 C 30.40 539.83 27.55 544.24 22.96 545.07 C 22.26 545.69 19.72 545.15 20.27 546.67 C 21.33 547.88 22.53 548.95 23.65 550.11 C 19.75 549.69 18.16 544.36 14.01 545.26 C 9.27 546.37 6.09 550.47 1.88 552.67 C 4.38 548.71 8.22 545.51 9.59 540.92 C 10.67 537.04 5.69 535.52 4.63 532.20 C 6.31 533.30 7.87 534.55 9.46 535.79 C 9.91 533.05 9.84 529.77 12.08 527.75 C 13.89 525.67 16.79 525.36 19.36 525.17 C 19.47 524.52 19.67 523.22 19.78 522.56 C 20.45 525.19 20.85 527.87 21.36 530.53 C 24.29 528.48 27.08 526.01 28.59 522.69 C 29.98 519.97 29.79 516.82 30.40 513.91 C 31.14 512.36 32.69 511.38 33.43 509.85 C 32.80 507.10 30.84 504.87 30.17 502.12 C 28.80 497.75 28.80 492.18 24.67 489.30 C 21.86 486.84 17.03 489.42 17.11 493.00 C 16.89 494.82 18.44 496.17 19.10 497.73 C 19.60 496.30 20.13 494.88 20.67 493.48 C 21.93 493.54 23.19 493.63 24.44 493.74 C 24.61 495.44 25.23 497.99 23.01 498.62 C 19.37 500.97 14.71 497.04 15.43 493.05 C 15.40 489.20 19.13 487.36 21.53 485.02 C 19.61 485.32 17.50 485.49 15.99 486.86 C 12.36 489.59 12.75 494.61 11.01 498.40 C 9.52 493.16 11.92 487.75 15.90 484.33 C 12.45 480.77 9.57 475.94 10.94 470.79 C 13.03 473.57 12.24 477.50 14.45 480.24 C 16.00 482.64 18.95 483.30 21.58 483.67 C 19.29 480.99 15.03 479.20 15.61 474.99 C 14.70 470.54 21.49 467.05 24.26 470.92 C 25.32 472.62 24.28 474.46 23.18 475.83 C 21.13 474.85 19.71 473.14 18.73 471.12 C 17.88 472.72 17.15 474.38 16.49 476.07 C 18.19 478.21 20.71 481.90 23.81 479.79 C 30.12 476.05 28.63 467.60 32.26 462.08 C 33.90 459.76 33.45 456.84 33.58 454.17 Z" />
<path fill="#000000" d=" M 1764.63 454.20 C 1766.29 454.20 1768.00 454.20 1769.71 454.20 C 1769.69 457.04 1769.56 460.08 1771.36 462.49 C 1774.75 467.58 1773.62 474.72 1778.15 479.16 C 1780.92 482.18 1785.97 479.56 1786.53 475.93 C 1786.84 474.10 1785.43 472.75 1784.54 471.38 C 1783.78 472.78 1782.96 474.13 1782.08 475.44 C 1778.87 476.76 1777.07 471.54 1780.18 470.38 C 1783.75 467.79 1787.66 471.40 1788.47 474.93 C 1787.93 478.88 1784.77 481.29 1781.97 483.68 C 1788.19 484.13 1791.10 477.25 1791.60 472.08 C 1791.92 472.12 1792.57 472.22 1792.89 472.26 C 1793.16 477.04 1791.18 481.73 1787.27 484.55 C 1791.48 487.63 1793.80 493.19 1792.20 498.31 C 1790.63 494.67 1790.85 490.07 1787.56 487.37 C 1786.06 485.83 1783.87 485.53 1781.89 485.25 C 1784.10 487.52 1787.81 489.25 1787.78 492.90 C 1788.39 495.92 1786.25 499.29 1783.05 499.37 C 1780.27 499.72 1777.00 496.81 1779.02 494.07 C 1781.87 491.95 1783.47 495.88 1785.00 497.63 C 1786.09 495.26 1787.20 492.33 1785.03 490.19 C 1782.50 486.69 1777.56 489.00 1776.02 492.24 C 1774.41 495.93 1773.72 499.97 1772.95 503.91 C 1772.45 503.20 1771.97 502.49 1771.52 501.79 C 1771.72 499.99 1771.78 498.19 1771.72 496.39 C 1769.77 498.59 1769.49 501.50 1769.65 504.31 C 1770.32 504.80 1771.01 505.31 1771.72 505.82 C 1770.73 507.30 1770.08 508.94 1769.51 510.60 C 1774.59 513.04 1772.48 519.18 1774.74 523.32 C 1776.27 526.55 1778.87 529.19 1781.92 531.04 C 1782.22 529.05 1782.55 527.08 1782.91 525.11 C 1783.39 524.40 1783.87 523.69 1784.38 522.99 C 1784.31 523.65 1784.17 524.97 1784.10 525.63 C 1789.83 525.46 1794.48 530.81 1793.87 536.48 C 1795.32 535.16 1796.76 533.80 1798.35 532.61 C 1797.51 535.59 1794.28 536.96 1793.29 539.77 C 1793.93 545.19 1798.21 548.95 1801.16 553.21 C 1796.36 550.77 1792.58 545.62 1786.81 545.69 C 1784.52 547.42 1782.62 549.65 1780.01 550.93 C 1781.14 549.19 1782.44 547.58 1783.77 545.98 C 1780.07 545.82 1775.72 544.95 1773.81 541.39 C 1773.32 539.84 1773.28 538.20 1773.09 536.62 C 1772.46 536.52 1771.22 536.33 1770.60 536.24 C 1772.65 535.57 1774.73 535.00 1776.86 534.47 C 1777.92 534.12 1779.01 533.81 1780.13 533.52 C 1781.64 537.04 1785.56 539.80 1784.45 544.07 C 1785.27 543.96 1786.93 543.73 1787.75 543.62 C 1788.06 542.51 1788.36 541.39 1788.63 540.28 C 1789.40 540.26 1790.94 540.24 1791.71 540.23 C 1791.63 539.06 1791.66 537.93 1791.64 536.79 C 1790.50 536.35 1788.74 536.70 1788.13 535.55 C 1788.77 535.19 1790.04 534.48 1790.68 534.12 C 1790.04 530.77 1786.42 531.19 1783.91 531.24 C 1784.44 532.36 1786.94 533.71 1785.45 535.16 C 1783.85 534.22 1782.38 533.18 1780.91 532.11 C 1779.89 532.56 1778.89 533.01 1777.92 533.46 C 1774.99 528.63 1769.49 525.99 1763.95 525.93 C 1761.10 526.29 1759.52 523.91 1757.83 522.11 C 1754.13 523.29 1750.87 525.60 1746.99 526.22 C 1742.72 527.00 1737.94 527.97 1735.47 531.96 C 1733.45 537.02 1741.01 541.00 1744.27 536.76 C 1742.60 535.52 1739.43 534.74 1740.54 532.02 C 1741.12 531.64 1742.30 530.88 1742.88 530.50 C 1743.50 530.82 1744.75 531.47 1745.37 531.79 C 1747.54 535.29 1745.36 540.08 1741.09 540.17 C 1736.83 540.98 1734.74 536.72 1731.72 534.72 C 1732.10 536.60 1732.37 538.70 1733.92 540.06 C 1736.82 543.02 1741.38 542.70 1744.85 544.64 C 1739.70 545.52 1733.97 543.73 1730.99 539.28 C 1727.88 543.28 1722.21 546.14 1717.26 543.98 C 1720.83 542.76 1725.26 543.02 1728.00 540.02 C 1729.58 538.53 1729.75 536.27 1730.11 534.27 C 1727.83 536.28 1726.26 539.47 1723.01 540.01 C 1719.94 540.91 1716.93 538.75 1715.55 536.14 C 1715.33 534.60 1716.17 533.23 1716.60 531.81 C 1717.21 531.51 1718.43 530.90 1719.05 530.60 C 1719.77 530.94 1721.20 531.63 1721.92 531.97 C 1722.02 534.72 1720.23 535.91 1717.70 536.20 C 1720.20 541.09 1728.58 537.49 1726.66 532.27 C 1723.21 525.79 1714.63 527.39 1709.11 523.89 C 1706.39 521.91 1702.97 522.42 1699.83 522.35 C 1699.80 520.63 1699.81 518.92 1699.83 517.21 C 1721.40 517.11 1742.98 517.18 1764.57 517.17 C 1764.69 496.18 1764.57 475.19 1764.63 454.20 Z" />
<path fill="#ffffff" d=" M 31.40 472.44 C 31.05 469.20 31.88 465.96 33.76 463.30 C 33.76 466.41 34.43 470.43 31.40 472.44 Z" />
<path fill="#ffffff" d=" M 1769.92 463.57 C 1771.53 465.95 1771.94 468.82 1772.52 471.58 C 1772.06 471.53 1771.14 471.44 1770.68 471.39 C 1769.90 468.85 1769.53 466.21 1769.92 463.57 Z" />
<path fill="#ffffff" d=" M 24.81 481.84 C 27.56 478.83 30.50 475.99 33.23 472.95 C 33.64 480.39 34.01 487.89 33.19 495.33 C 29.89 492.41 26.78 489.25 23.94 485.88 C 22.31 484.58 23.86 482.91 24.81 481.84 Z" />
<path fill="#ffffff" d=" M 1770.37 473.25 C 1773.66 476.51 1776.65 480.07 1779.80 483.46 C 1780.41 485.80 1778.26 487.43 1776.90 488.96 C 1774.72 491.16 1772.58 493.38 1770.39 495.55 C 1769.53 488.18 1769.31 480.61 1770.37 473.25 Z" />
<path fill="#010101" d=" M 29.52 487.31 C 28.98 484.71 28.81 481.81 31.10 480.00 C 31.49 482.59 31.46 485.22 31.43 487.85 C 30.95 487.71 30.00 487.45 29.52 487.31 Z" />
<path fill="#141414" d=" M 1771.96 480.45 C 1775.64 481.89 1774.61 486.54 1772.80 489.11 C 1771.45 486.40 1771.65 483.36 1771.96 480.45 Z" />
<path fill="#000000" d=" M 0.24 482.78 C 4.19 481.76 9.75 480.60 12.05 485.04 C 9.26 486.52 6.03 487.07 2.93 486.35 C 0.97 486.46 1.03 483.94 0.24 482.78 Z" />
<path fill="#000000" d=" M 1791.10 484.05 C 1794.60 482.14 1800.08 480.66 1803.00 484.24 L 1803.00 485.64 C 1799.13 487.75 1793.99 487.77 1791.10 484.05 Z" />
<path fill="#ffffff" d=" M 31.39 495.95 C 33.81 498.57 33.69 502.17 33.31 505.49 C 31.88 502.51 31.22 499.25 31.39 495.95 Z" />
<path fill="#ffffff" d=" M 33.22 519.65 C 32.21 517.37 31.98 514.75 33.16 512.50 C 33.55 514.86 33.55 517.27 33.22 519.65 Z" />
<path fill="#ffffff" d=" M 1769.68 513.30 C 1769.93 513.29 1770.42 513.29 1770.67 513.28 C 1770.68 515.42 1770.66 517.57 1770.60 519.72 C 1770.37 519.72 1769.91 519.73 1769.68 519.73 C 1769.68 517.58 1769.68 515.44 1769.68 513.30 Z" />
<path fill="#ffffff" d=" M 31.75 520.44 C 33.12 521.09 34.48 522.04 34.75 523.65 C 33.09 525.06 31.02 525.81 29.07 526.69 C 29.61 524.48 30.29 522.23 31.75 520.44 Z" />
<path fill="#ffffff" d=" M 36.43 521.77 C 38.78 521.84 41.17 521.80 43.45 522.46 C 41.10 522.79 38.73 522.71 36.36 522.61 C 36.38 522.40 36.41 521.98 36.43 521.77 Z" />
<path fill="#ffffff" d=" M 51.35 522.04 C 54.12 521.84 58.02 521.16 59.34 524.37 C 56.60 523.92 53.69 523.71 51.35 522.04 Z" />
<path fill="#ffffff" d=" M 84.20 524.37 C 86.37 521.53 90.16 521.64 93.35 521.95 C 90.86 524.12 87.32 524.19 84.20 524.37 Z" />
<path fill="#ffffff" d=" M 1767.74 524.21 C 1769.02 522.93 1770.39 521.75 1771.84 520.64 C 1772.67 522.68 1773.51 524.72 1774.30 526.78 C 1772.05 526.04 1769.86 525.21 1767.74 524.21 Z" />
<path fill="#ffffff" d=" M 60.47 522.29 C 68.15 522.38 75.86 521.51 83.52 522.38 C 79.81 525.93 76.23 529.66 72.04 532.66 C 67.89 529.54 64.46 525.60 60.47 522.29 Z" />
<path fill="#ffffff" d=" M 1709.55 522.56 C 1712.12 522.35 1714.73 522.37 1717.32 522.60 C 1717.47 523.18 1717.78 524.34 1717.93 524.92 C 1715.04 524.47 1712.22 523.72 1709.55 522.56 Z" />
<path fill="#ffffff" d=" M 1719.81 522.63 C 1727.29 522.27 1734.81 522.19 1742.29 522.69 C 1738.65 526.20 1735.20 529.99 1731.06 532.90 C 1726.88 530.00 1723.24 526.36 1719.81 522.63 Z" />
<path fill="#ffffff" d=" M 1742.84 524.62 C 1745.56 522.13 1749.26 522.06 1752.73 522.60 C 1749.66 524.13 1746.25 524.83 1742.84 524.62 Z" />
<path fill="#868686" d=" M 1759.30 522.24 C 1762.26 522.03 1765.57 521.26 1768.24 523.08 C 1765.29 524.02 1761.63 524.87 1759.30 522.24 Z" />
<path fill="#000000" d=" M 67.71 524.62 C 70.36 524.10 73.06 524.08 75.75 524.18 C 75.60 524.71 75.29 525.76 75.14 526.29 C 72.49 526.67 69.75 526.55 67.71 524.62 Z" />
<path fill="#050505" d=" M 1726.56 524.77 C 1729.48 524.47 1732.43 524.48 1735.38 524.73 C 1733.17 527.67 1728.91 527.34 1726.56 524.77 Z" />
<path fill="#ffffff" d=" M 11.85 530.03 C 13.82 528.18 16.12 525.44 19.15 526.85 C 20.71 530.92 16.68 534.31 13.19 535.43 C 13.08 533.58 13.04 531.66 14.67 530.46 C 15.66 530.52 17.63 530.65 18.62 530.71 C 17.96 530.00 17.29 529.30 16.61 528.61 C 15.04 529.13 13.45 529.60 11.85 530.03 Z" />
<path fill="#ffffff" d=" M 1783.72 527.74 C 1786.77 526.12 1789.65 528.33 1791.52 530.66 C 1789.00 530.44 1785.76 528.00 1783.86 531.10 C 1783.83 530.26 1783.75 528.58 1783.72 527.74 Z" />
<path fill="#ffffff" d=" M 15.02 536.33 C 18.19 534.54 21.13 532.34 24.47 530.87 C 22.69 535.23 17.76 538.42 18.62 543.62 C 16.54 543.65 15.02 543.00 15.03 540.76 C 13.97 540.10 12.72 539.80 11.59 539.30 C 11.59 538.52 11.60 536.95 11.60 536.16 C 12.46 536.20 14.17 536.29 15.02 536.33 Z" />
<path fill="#151515" d=" M 17.38 537.95 C 16.92 536.35 17.52 535.67 19.17 535.91 C 19.61 537.46 19.02 538.14 17.38 537.95 Z" />
<path fill="#ffffff" d=" M 21.85 542.98 C 16.89 539.82 25.92 532.79 28.33 536.91 C 29.02 539.64 26.60 541.71 25.01 543.57 C 25.44 541.50 26.13 539.51 26.75 537.51 C 26.09 537.40 24.79 537.20 24.13 537.10 C 24.29 537.87 24.60 539.41 24.75 540.18 C 23.79 541.12 22.83 542.05 21.85 542.98 Z" />
<path fill="#ffffff" d=" M 1777.88 543.78 C 1776.06 541.84 1772.60 538.30 1775.98 536.07 C 1779.52 536.03 1783.45 538.88 1782.79 542.76 C 1779.62 542.91 1776.97 539.80 1779.38 536.95 C 1775.56 537.84 1777.44 541.14 1777.88 543.78 Z" />
<path fill="#444444" d=" M 1783.56 536.12 C 1784.78 535.62 1786.84 537.29 1786.12 538.61 C 1784.84 539.19 1783.06 537.35 1783.56 536.12 Z" />
<path fill="#ffffff" d=" M 9.55 545.33 C 10.57 543.92 11.58 539.94 13.82 541.17 C 14.41 543.49 11.03 544.31 9.55 545.33 Z" />
<path fill="#ffffff" d=" M 1788.86 540.64 C 1790.83 542.00 1792.74 543.63 1793.43 546.05 C 1791.20 544.92 1788.94 543.41 1788.86 540.64 Z" />
<path fill="#000000" d=" M 71.37 555.00 C 68.85 551.27 68.75 546.17 71.95 542.80 C 75.22 546.00 75.53 551.50 72.58 555.00 L 71.37 555.00 Z" />
<path fill="#000000" d=" M 1732.26 554.80 C 1726.94 553.70 1727.42 545.86 1730.96 542.99 C 1734.47 546.05 1733.22 550.87 1732.26 554.80 Z" />
</svg>
