<?xml version="1.0" encoding="UTF-8" ?>
<!DOCTYPE svg PUBLIC "-//W3C//DTD SVG 1.1//EN" "http://www.w3.org/Graphics/SVG/1.1/DTD/svg11.dtd">
<svg width="725pt" height="1378pt" viewBox="0 0 725 1378" version="1.1" xmlns="http://www.w3.org/2000/svg">
<path fill="#ffffff" d=" M 0.00 0.00 L 725.00 0.00 L 725.00 92.90 C 721.10 91.33 716.75 90.63 712.62 91.57 C 711.27 92.45 710.34 93.80 709.31 95.01 C 714.01 98.33 720.24 98.23 725.00 95.11 L 725.00 1378.00 L 633.27 1378.00 C 636.78 1373.42 636.48 1366.69 633.18 1362.10 C 628.04 1365.75 629.16 1372.83 630.96 1378.00 L 94.00 1378.00 C 96.97 1373.18 97.65 1365.28 91.98 1362.18 C 89.44 1367.07 89.55 1372.97 91.67 1378.00 L 0.00 1378.00 L 0.00 1284.28 C 4.06 1288.10 10.10 1287.91 14.72 1285.28 C 14.64 1284.43 14.47 1282.72 14.39 1281.87 C 9.70 1280.06 4.35 1279.96 0.00 1282.75 L 0.00 94.60 C 4.21 98.82 11.08 98.06 15.67 94.91 C 12.48 89.32 4.98 90.96 0.00 92.86 L 0.00 0.00 Z" />
<path fill="#010101" d=" M 90.20 1.15 C 91.54 1.00 92.89 1.04 94.24 1.04 C 95.86 5.71 96.15 11.76 91.97 15.20 C 88.18 11.55 87.75 5.65 90.20 1.15 Z" />
<path fill="#000000" d=" M 630.78 1.01 C 632.28 1.08 633.84 0.89 635.28 1.44 C 636.96 6.05 636.78 11.62 633.03 15.19 C 628.85 11.74 629.14 5.67 630.78 1.01 Z" />
<path fill="#000000" d=" M 2.18 2.61 C 8.23 6.02 13.07 12.66 20.56 12.70 C 23.73 11.03 25.30 6.83 29.26 6.19 C 27.65 8.26 25.75 10.09 24.04 12.08 C 27.47 12.50 31.56 11.97 33.97 15.02 C 37.12 17.30 38.24 20.95 38.15 24.71 C 39.05 24.67 40.85 24.60 41.76 24.57 C 38.63 26.85 34.71 26.98 31.07 27.80 C 34.34 31.88 38.15 35.87 43.18 37.69 C 46.71 39.17 50.70 38.42 54.28 39.72 C 56.05 40.46 56.90 42.31 58.06 43.71 C 60.40 43.00 62.62 41.95 64.76 40.76 C 70.58 37.59 77.79 38.12 83.36 34.39 C 86.91 32.07 88.38 26.23 84.65 23.38 C 81.76 20.43 77.63 22.17 74.72 24.06 C 76.79 25.23 78.84 26.45 80.55 28.11 C 80.20 29.05 79.50 30.92 79.15 31.86 C 76.98 31.80 74.09 32.13 73.30 29.51 C 70.75 24.65 75.62 18.75 80.87 19.74 C 85.69 19.94 88.19 24.42 91.00 27.64 C 91.50 21.50 85.90 17.03 80.40 15.88 C 78.22 15.49 76.06 15.02 74.06 14.04 C 80.70 12.06 88.61 15.01 92.05 21.09 C 95.48 15.01 103.30 11.83 109.96 14.01 C 105.99 15.97 101.15 15.68 97.62 18.60 C 94.64 20.56 92.93 23.94 93.25 27.51 C 96.14 24.10 99.01 19.58 104.01 19.45 C 109.45 18.94 113.92 25.76 110.34 30.28 C 108.43 33.07 104.54 31.67 103.21 29.06 C 104.46 26.52 106.95 25.25 109.40 24.11 C 107.45 23.00 105.56 21.03 103.11 21.58 C 98.97 22.39 95.48 27.84 98.41 31.55 C 102.12 36.68 109.00 37.05 114.59 38.69 C 118.16 39.32 120.99 41.68 124.22 43.12 C 126.68 43.60 129.22 43.37 131.72 43.42 C 131.71 45.68 131.71 47.94 131.71 50.20 C 104.32 50.21 76.94 50.21 49.56 50.20 C 49.52 78.54 49.61 106.87 49.52 135.20 C 47.28 135.47 45.02 135.35 42.78 135.37 C 42.70 132.40 42.93 129.39 42.37 126.46 C 41.08 123.52 38.95 120.96 38.34 117.73 C 36.58 111.71 36.26 104.26 30.73 100.27 C 26.73 97.51 21.53 101.59 21.53 105.97 C 21.13 108.33 22.95 110.10 24.12 111.92 C 24.94 110.10 25.32 108.00 26.72 106.50 C 28.42 105.96 30.86 105.98 31.36 108.12 C 32.75 112.07 27.77 115.39 24.32 114.06 C 21.44 112.48 18.85 109.57 19.54 106.05 C 19.37 101.03 23.95 98.31 27.30 95.50 C 22.57 94.89 18.02 98.23 16.65 102.68 C 15.66 105.97 15.47 109.47 14.05 112.63 C 11.94 105.87 15.02 98.30 20.57 94.14 C 14.80 90.29 11.86 82.35 13.97 75.71 C 15.67 80.44 15.72 85.92 19.08 89.93 C 20.97 92.19 24.01 92.75 26.78 93.11 C 24.39 89.36 18.58 87.21 19.40 82.00 C 19.22 78.38 21.78 73.88 25.86 74.21 C 28.38 74.12 32.25 75.86 31.38 78.90 C 31.11 79.67 30.58 81.19 30.32 81.96 C 29.12 81.79 27.92 81.67 26.75 81.36 C 25.67 80.03 25.00 78.44 24.15 76.97 C 18.96 79.82 21.95 88.02 27.24 88.65 C 29.82 89.18 31.83 87.12 33.26 85.28 C 36.85 81.17 36.73 75.43 38.29 70.47 C 39.20 66.42 41.97 63.12 42.91 59.08 C 41.45 57.52 39.73 56.19 38.47 54.44 C 37.44 50.76 38.13 46.77 36.64 43.19 C 34.96 38.47 31.22 34.90 27.35 31.90 C 26.58 34.92 26.02 38.00 25.14 40.99 C 23.04 37.77 18.54 39.59 16.04 36.96 C 12.73 33.92 12.22 29.27 11.52 25.09 C 9.54 26.87 7.55 28.64 5.42 30.24 C 6.56 26.05 11.26 24.06 12.20 19.92 C 11.39 12.97 5.71 8.24 2.18 2.61 Z" />
<path fill="#000000" d=" M 704.43 12.62 C 711.92 12.46 716.94 6.01 722.93 2.45 C 719.27 8.38 713.19 13.51 712.74 20.88 C 714.81 24.16 718.32 26.41 719.58 30.25 C 717.44 28.65 715.45 26.88 713.48 25.10 C 712.78 29.27 712.28 33.94 708.95 36.96 C 706.92 39.05 703.81 38.69 701.17 38.95 C 701.22 40.19 701.27 41.42 701.34 42.65 C 699.23 39.35 698.55 35.48 697.48 31.79 C 693.78 34.95 690.08 38.47 688.41 43.17 C 686.88 46.75 687.55 50.75 686.53 54.44 C 685.27 56.19 683.55 57.52 682.09 59.08 C 683.26 63.63 686.39 67.41 687.15 72.11 C 688.36 78.12 689.44 85.44 695.54 88.48 C 701.80 90.62 706.84 80.26 700.86 76.95 C 700.00 78.43 699.33 80.03 698.25 81.37 C 697.07 81.67 695.87 81.79 694.68 81.95 C 694.05 80.01 692.36 77.17 694.73 75.74 C 698.22 72.52 704.19 74.66 705.34 79.11 C 705.54 81.29 705.84 83.64 705.06 85.73 C 703.07 88.45 700.27 90.42 698.25 93.12 C 701.01 92.75 704.04 92.18 705.93 89.92 C 709.30 85.91 709.33 80.42 711.04 75.68 C 713.15 82.33 710.21 90.29 704.42 94.15 C 710.09 98.24 713.00 105.87 710.97 112.63 C 709.37 109.22 709.37 105.36 708.05 101.87 C 706.45 97.81 702.12 94.96 697.72 95.50 C 700.74 98.24 705.06 100.51 705.54 105.04 C 706.32 109.02 703.51 112.95 699.90 114.35 C 697.37 114.53 694.62 113.32 693.56 110.92 C 693.15 109.22 694.14 107.69 694.70 106.16 C 695.90 106.25 697.12 106.28 698.32 106.53 C 699.71 108.02 700.07 110.11 700.87 111.93 C 702.03 110.11 703.88 108.33 703.48 105.97 C 703.54 101.37 697.68 97.14 693.86 100.71 C 688.46 104.64 688.48 111.76 686.56 117.54 C 685.77 120.62 683.90 123.24 682.67 126.13 C 682.19 128.98 682.47 131.88 682.43 134.75 C 680.10 134.76 677.77 134.76 675.45 134.77 C 675.44 106.58 675.45 78.39 675.44 50.20 C 648.06 50.21 620.68 50.21 593.29 50.20 C 593.29 47.95 593.29 45.69 593.28 43.43 C 596.78 43.33 600.67 44.00 603.64 41.65 C 609.37 37.69 616.81 38.13 622.86 34.88 C 624.94 33.69 626.87 31.88 627.59 29.53 C 628.25 25.93 625.33 22.34 621.89 21.58 C 619.43 21.04 617.55 23.00 615.60 24.11 C 618.04 25.25 620.53 26.52 621.79 29.06 C 620.45 31.67 616.57 33.07 614.67 30.27 C 611.09 25.76 615.56 18.91 620.99 19.40 C 626.01 19.49 628.77 24.15 631.68 27.52 C 632.21 23.66 630.01 20.14 626.80 18.19 C 623.34 15.62 618.79 15.91 615.04 14.01 C 621.70 11.84 629.54 15.01 632.95 21.10 C 636.35 14.99 644.25 12.10 650.88 14.00 C 646.61 16.40 640.95 15.60 637.41 19.37 C 634.98 21.44 634.09 24.55 633.98 27.64 C 636.82 24.44 639.30 19.94 644.12 19.74 C 649.33 18.74 654.37 24.64 651.60 29.46 C 650.51 32.83 644.97 32.76 644.49 29.02 C 645.06 26.19 648.07 25.33 650.20 23.96 C 648.03 22.91 645.73 21.10 643.19 21.92 C 640.61 22.83 637.98 25.08 638.13 28.05 C 638.17 31.34 640.60 34.18 643.50 35.48 C 649.09 37.95 655.53 37.99 660.89 41.09 C 662.83 42.20 664.89 43.09 667.01 43.83 C 668.17 42.38 669.02 40.48 670.83 39.71 C 674.38 38.39 678.35 39.16 681.86 37.69 C 686.90 35.89 690.65 31.86 693.93 27.80 C 690.28 26.98 686.37 26.85 683.25 24.57 C 684.14 24.60 685.94 24.67 686.84 24.71 C 687.16 22.70 687.01 20.55 687.83 18.66 C 689.09 16.73 690.82 15.14 692.64 13.73 C 695.00 11.95 698.15 12.61 700.90 12.08 C 699.17 10.01 697.20 8.15 695.69 5.91 C 699.31 7.17 701.32 10.64 704.43 12.62 Z" />
<path fill="#fefefe" d=" M 705.93 19.63 C 707.40 16.31 709.96 13.60 713.29 12.13 C 712.21 15.60 709.42 17.90 706.24 19.42 C 707.30 19.47 709.41 19.57 710.47 19.62 C 710.46 21.28 710.46 22.95 710.47 24.62 C 709.09 24.40 707.71 24.26 706.34 24.20 C 702.05 26.15 698.78 29.87 694.26 31.43 C 695.52 26.96 699.20 23.87 701.16 19.79 C 701.34 18.09 701.24 16.37 701.25 14.67 C 702.67 14.65 704.10 14.65 705.54 14.64 C 705.64 16.30 705.75 17.97 705.93 19.63 Z" />
<path fill="#fefefe" d=" M 11.75 12.26 C 13.89 13.32 15.77 14.80 17.56 16.35 C 17.61 17.43 17.70 19.60 17.75 20.68 C 18.72 18.76 19.36 16.71 19.70 14.58 C 21.04 14.63 22.39 14.66 23.75 14.70 C 23.89 16.89 23.21 19.34 24.58 21.26 C 26.76 24.59 29.40 27.66 30.83 31.43 C 27.26 30.26 24.42 27.78 21.58 25.43 C 19.64 23.65 16.87 24.39 14.55 24.66 C 14.54 23.43 14.52 20.97 14.51 19.74 C 15.29 19.63 16.84 19.42 17.61 19.31 C 15.20 17.38 12.74 15.32 11.75 12.26 Z" />
<path fill="#fdfdfd" d=" M 25.61 16.19 C 28.05 15.95 29.81 17.49 31.43 19.09 C 31.15 20.55 30.85 22.01 30.56 23.47 C 31.28 23.44 32.74 23.38 33.47 23.35 C 33.24 20.53 32.45 17.81 31.80 15.07 C 33.89 17.19 36.92 19.50 36.32 22.87 C 36.32 24.54 34.65 25.79 33.06 25.22 C 28.91 24.45 24.66 20.79 25.61 16.19 Z" />
<path fill="#fefefe" d=" M 690.09 25.24 C 686.41 22.02 690.33 17.48 693.05 15.16 C 692.52 17.89 691.79 20.59 691.54 23.37 C 692.26 23.39 693.72 23.44 694.45 23.46 C 694.14 22.02 693.85 20.58 693.58 19.14 C 695.18 17.39 697.06 15.87 699.60 16.39 C 700.28 21.49 694.82 25.58 690.09 25.24 Z" />
<path fill="#040404" d=" M 22.44 21.05 C 23.61 22.74 24.72 24.48 25.64 26.32 C 23.85 25.29 22.12 24.14 20.37 23.04 C 20.89 22.54 21.92 21.55 22.44 21.05 Z" />
<path fill="#040404" d=" M 699.36 26.32 C 700.26 24.48 701.38 22.75 702.55 21.07 C 703.07 21.56 704.11 22.54 704.64 23.03 C 702.88 24.13 701.15 25.28 699.36 26.32 Z" />
<path fill="#fdfdfd" d=" M 16.34 26.28 C 20.56 25.75 23.60 29.70 24.68 33.33 C 25.59 35.49 23.05 37.44 21.09 37.33 C 18.45 36.68 16.64 34.49 14.86 32.60 C 16.98 33.13 19.05 33.82 21.17 34.34 C 22.07 33.44 22.80 32.41 23.58 31.41 C 21.51 31.34 18.90 32.68 17.40 30.64 C 15.95 29.64 16.49 27.76 16.34 26.28 Z" />
<path fill="#fefefe" d=" M 700.35 33.35 C 701.42 29.72 704.39 25.87 708.59 26.23 C 708.48 27.73 709.13 29.66 707.61 30.64 C 706.08 32.67 703.45 31.34 701.38 31.41 C 702.16 32.41 702.91 33.44 703.82 34.35 C 705.94 33.83 708.01 33.13 710.14 32.60 C 708.36 34.52 706.52 36.63 703.91 37.37 C 701.96 37.32 699.37 35.56 700.35 33.35 Z" />
<path fill="#ffffff" d=" M 90.05 30.88 C 91.64 29.31 93.91 30.36 95.20 31.74 C 99.16 35.47 103.22 39.10 106.92 43.09 C 97.22 43.30 87.37 44.12 77.74 42.59 C 81.71 38.56 85.69 34.49 90.05 30.88 Z" />
<path fill="#fefefe" d=" M 629.83 31.75 C 631.09 29.73 633.95 29.63 635.56 31.30 C 639.62 34.89 643.49 38.71 647.26 42.59 C 637.70 44.02 627.91 43.47 618.27 43.09 C 621.30 38.51 626.37 35.95 629.83 31.75 Z" />
<path fill="#010101" d=" M 86.34 40.14 C 89.17 36.47 94.83 36.52 97.72 40.07 C 93.97 40.83 90.10 40.89 86.34 40.14 Z" />
<path fill="#010101" d=" M 627.34 40.15 C 630.15 36.49 635.83 36.50 638.70 40.07 C 634.96 40.85 631.09 40.87 627.34 40.15 Z" />
<path fill="#fefefe" d=" M 36.92 37.49 C 39.65 38.53 42.35 39.66 44.95 40.99 C 43.39 42.72 41.83 44.47 40.02 45.95 C 38.84 43.19 37.76 40.38 36.92 37.49 Z" />
<path fill="#fefefe" d=" M 680.05 40.99 C 682.65 39.66 685.35 38.53 688.08 37.49 C 687.24 40.37 686.16 43.18 684.98 45.95 C 683.17 44.47 681.61 42.72 680.05 40.99 Z" />
<path fill="#f1f1f1" d=" M 107.65 40.33 C 111.99 40.00 116.24 41.30 120.15 43.07 C 115.79 43.92 110.88 43.80 107.65 40.33 Z" />
<path fill="#f4f4f4" d=" M 605.25 43.10 C 608.81 41.13 612.86 40.03 616.95 40.38 C 614.14 44.02 609.30 43.73 605.25 43.10 Z" />
<path fill="#fbfbfb" d=" M 648.41 40.76 C 652.51 40.05 656.65 41.13 660.25 43.10 C 656.16 44.02 651.57 43.84 648.41 40.76 Z" />
<path fill="#fafafa" d=" M 64.49 43.21 C 68.16 41.27 72.34 39.97 76.52 40.80 C 73.40 44.15 68.60 43.69 64.49 43.21 Z" />
<path fill="#e8e8e8" d=" M 44.88 43.23 C 48.48 41.79 52.72 40.92 56.22 43.14 C 52.47 43.79 48.64 43.71 44.88 43.23 Z" />
<path fill="#d4d4d4" d=" M 669.01 43.18 C 672.73 41.27 677.02 41.73 680.79 43.23 C 676.88 43.77 672.90 43.86 669.01 43.18 Z" />
<path fill="#d4d4d4" d=" M 42.29 57.00 C 40.39 53.49 40.35 49.24 42.26 45.73 C 42.89 49.45 42.87 53.27 42.29 57.00 Z" />
<path fill="#d4d4d4" d=" M 682.84 45.74 C 684.59 49.31 684.52 53.52 682.74 57.07 C 682.11 53.33 682.05 49.47 682.84 45.74 Z" />
<path fill="#fefefe" d=" M 682.72 65.38 C 684.48 69.59 685.68 74.11 685.45 78.71 C 681.85 75.17 682.07 70.00 682.72 65.38 Z" />
<path fill="#fbfbfb" d=" M 39.51 78.59 C 39.49 74.21 40.43 69.83 42.34 65.89 C 42.88 70.30 43.21 75.38 39.51 78.59 Z" />
<path fill="#ffffff" d=" M 33.52 88.51 C 36.60 85.60 38.96 82.02 42.15 79.22 C 42.90 89.01 42.72 98.92 42.25 108.73 C 38.52 105.79 35.68 101.96 32.41 98.57 C 31.14 97.16 29.70 95.81 29.01 94.00 C 29.90 91.74 31.92 90.24 33.52 88.51 Z" />
<path fill="#ffffff" d=" M 682.78 79.43 C 686.64 82.85 689.78 86.98 693.51 90.54 C 694.88 91.88 696.93 94.08 694.98 95.86 C 690.94 100.20 687.31 104.97 682.71 108.74 C 682.27 98.99 682.19 89.18 682.78 79.43 Z" />
<path fill="#020202" d=" M 39.32 99.97 C 36.01 96.71 35.89 91.54 39.17 88.22 C 39.96 92.09 40.04 96.09 39.32 99.97 Z" />
<path fill="#020202" d=" M 685.58 88.34 C 686.74 90.07 688.74 91.67 688.38 93.98 C 688.30 96.25 686.90 98.15 685.71 99.98 C 685.09 96.13 685.18 92.21 685.58 88.34 Z" />
<path fill="#010101" d=" M 0.00 92.86 C 4.98 90.96 12.48 89.32 15.67 94.91 C 11.08 98.06 4.21 98.82 0.00 94.60 L 0.00 92.86 Z" />
<path fill="#000000" d=" M 712.62 91.57 C 716.75 90.63 721.10 91.33 725.00 92.90 L 725.00 95.11 C 720.24 98.23 714.01 98.33 709.31 95.01 C 710.34 93.80 711.27 92.45 712.62 91.57 Z" />
<path fill="#fafafa" d=" M 39.56 110.18 C 43.96 112.82 42.87 118.38 42.59 122.67 C 40.80 118.75 39.55 114.52 39.56 110.18 Z" />
<path fill="#fdfdfd" d=" M 682.59 122.43 C 682.66 118.29 680.90 112.70 685.48 110.32 C 685.56 114.54 684.13 118.57 682.59 122.43 Z" />
<path fill="#000000" d=" M 43.32 1242.12 C 45.39 1242.12 47.47 1242.12 49.55 1242.13 C 49.55 1270.69 49.55 1299.24 49.56 1327.80 C 76.94 1327.79 104.33 1327.80 131.71 1327.79 C 131.70 1329.92 131.69 1332.07 131.67 1334.24 C 128.61 1334.43 125.15 1333.63 122.47 1335.56 C 117.14 1339.18 110.41 1339.14 104.64 1341.68 C 102.04 1342.92 99.74 1344.96 98.48 1347.57 C 96.90 1352.17 102.71 1357.63 107.16 1355.21 C 108.11 1354.75 109.05 1354.28 109.98 1353.81 C 107.80 1352.05 105.45 1350.41 104.19 1347.83 C 105.75 1345.46 109.18 1344.40 111.29 1346.71 C 114.95 1351.03 110.49 1358.39 105.00 1357.77 C 99.54 1358.19 97.18 1352.56 93.66 1349.56 C 94.16 1352.77 94.86 1356.31 97.54 1358.49 C 101.36 1361.46 106.46 1361.44 110.83 1363.14 C 104.23 1365.50 97.00 1362.09 92.98 1356.74 C 89.11 1362.63 81.59 1365.00 74.82 1363.99 C 78.22 1361.23 83.01 1362.05 86.64 1359.73 C 90.22 1357.87 91.91 1353.75 91.90 1349.87 C 88.90 1352.85 86.75 1357.79 81.82 1357.72 C 77.42 1358.55 72.63 1354.75 73.53 1350.10 C 73.49 1347.28 77.00 1344.02 79.60 1346.11 C 81.38 1347.19 80.63 1349.47 80.74 1351.19 C 79.02 1351.77 77.28 1352.31 75.54 1352.83 C 77.68 1354.21 79.84 1356.43 82.64 1355.66 C 86.27 1354.58 89.31 1349.96 86.85 1346.44 C 83.92 1341.14 77.27 1340.41 71.96 1339.16 C 67.83 1338.55 64.41 1336.06 60.65 1334.51 C 56.84 1333.30 55.72 1339.32 51.87 1338.63 C 43.64 1338.31 36.02 1343.24 31.94 1350.21 C 35.65 1350.80 39.70 1350.83 42.69 1353.45 C 41.43 1353.09 40.17 1352.74 38.91 1352.40 C 38.84 1355.98 38.36 1359.96 35.43 1362.44 C 32.60 1365.14 28.48 1365.11 24.84 1365.58 C 26.63 1367.59 28.36 1369.66 29.69 1372.03 C 26.40 1370.50 24.37 1367.39 21.57 1365.29 C 13.96 1364.88 9.12 1372.01 3.07 1375.45 C 5.92 1369.99 11.27 1365.89 12.74 1359.74 C 14.07 1354.24 7.01 1352.37 6.26 1347.37 C 8.44 1349.04 10.28 1351.09 12.12 1353.14 C 12.53 1350.57 12.60 1347.91 13.58 1345.49 C 15.85 1341.66 19.61 1338.00 24.43 1338.52 C 24.81 1337.90 25.55 1336.65 25.92 1336.03 C 26.50 1339.29 27.07 1342.56 27.87 1345.80 C 34.40 1341.36 38.82 1333.95 38.80 1325.97 C 38.65 1322.50 41.22 1320.21 43.62 1318.18 C 41.98 1313.64 38.85 1309.70 38.21 1304.81 C 36.94 1299.31 36.19 1292.15 30.36 1289.53 C 26.30 1287.60 21.89 1291.88 22.18 1295.92 C 22.12 1297.90 23.21 1299.63 23.91 1301.43 C 25.20 1299.26 26.58 1297.14 28.39 1295.39 C 29.20 1295.75 30.82 1296.45 31.62 1296.80 C 31.65 1298.94 32.22 1301.72 29.92 1302.97 C 26.74 1304.75 21.56 1303.35 20.63 1299.51 C 20.16 1296.95 20.04 1294.25 20.67 1291.73 C 22.59 1289.16 25.25 1287.26 27.22 1284.75 C 24.58 1285.18 21.67 1285.61 19.93 1287.92 C 16.15 1291.78 16.68 1297.65 13.98 1302.07 C 12.70 1295.25 15.18 1287.98 20.99 1284.01 C 15.59 1279.60 12.64 1272.55 13.96 1265.60 C 16.21 1269.31 16.01 1273.92 18.30 1277.62 C 20.11 1281.07 24.14 1282.91 27.95 1282.52 C 25.16 1279.82 20.95 1277.93 20.19 1273.72 C 18.60 1269.12 22.57 1262.61 27.85 1263.92 C 30.53 1264.21 32.44 1266.97 31.64 1269.58 C 31.22 1272.18 27.06 1272.39 26.18 1270.01 C 25.50 1268.91 24.82 1267.81 24.13 1266.74 C 20.39 1269.96 22.11 1277.43 27.12 1278.28 C 31.22 1278.78 34.32 1275.09 35.76 1271.68 C 37.96 1265.95 37.72 1259.39 41.29 1254.19 C 43.76 1250.64 43.27 1246.19 43.32 1242.12 Z" />
<path fill="#000000" d=" M 675.45 1242.13 C 677.52 1242.12 679.60 1242.12 681.68 1242.12 C 681.73 1246.19 681.24 1250.65 683.72 1254.20 C 687.30 1259.42 687.04 1266.01 689.27 1271.74 C 690.72 1275.13 693.80 1278.79 697.89 1278.28 C 702.87 1277.45 704.66 1269.91 700.84 1266.77 C 699.36 1268.49 698.77 1271.98 695.89 1271.60 C 693.93 1271.88 692.93 1269.54 693.25 1267.91 C 693.40 1264.45 697.73 1262.93 700.58 1264.18 C 704.61 1265.58 705.93 1270.73 704.55 1274.45 C 703.57 1278.27 699.62 1279.93 697.06 1282.52 C 700.85 1282.91 704.90 1281.07 706.71 1277.63 C 708.99 1273.86 708.76 1269.17 711.06 1265.41 C 712.33 1272.41 709.51 1279.57 704.01 1284.01 C 709.83 1287.98 712.30 1295.25 711.02 1302.07 C 708.31 1297.65 708.87 1291.77 705.07 1287.92 C 703.33 1285.62 700.43 1285.18 697.79 1284.76 C 699.76 1287.27 702.41 1289.17 704.33 1291.72 C 704.93 1293.98 704.78 1296.38 704.53 1298.70 C 704.17 1303.80 695.98 1305.74 693.52 1301.24 C 693.00 1299.36 692.94 1296.61 695.10 1295.77 C 698.22 1295.11 699.26 1299.21 701.11 1300.99 C 703.11 1298.07 703.76 1293.63 701.03 1290.96 C 698.85 1288.23 694.38 1288.72 692.22 1291.22 C 688.19 1295.29 687.70 1301.28 686.37 1306.57 C 685.55 1310.77 682.71 1314.15 681.38 1318.17 C 682.65 1319.42 684.07 1320.54 685.20 1321.96 C 686.77 1325.35 685.96 1329.29 687.32 1332.78 C 689.02 1337.83 692.16 1343.09 697.21 1345.32 C 698.02 1342.23 698.47 1339.07 699.29 1335.99 C 699.62 1336.61 700.27 1337.85 700.60 1338.47 C 703.45 1338.63 706.46 1339.30 708.45 1341.53 C 711.57 1344.33 712.34 1348.58 713.08 1352.50 C 714.95 1350.76 716.74 1348.93 718.76 1347.37 C 717.78 1350.87 714.86 1353.10 712.64 1355.78 C 711.59 1358.26 712.33 1361.15 713.66 1363.41 C 715.97 1367.72 719.62 1371.12 721.93 1375.45 C 715.88 1372.01 711.04 1364.87 703.43 1365.29 C 700.63 1367.40 698.60 1370.50 695.32 1372.04 C 696.64 1369.67 698.37 1367.59 700.17 1365.58 C 696.52 1365.11 692.40 1365.13 689.56 1362.43 C 686.65 1359.95 686.16 1355.98 686.09 1352.40 C 684.82 1352.74 683.56 1353.09 682.31 1353.45 C 685.30 1350.83 689.35 1350.80 693.07 1350.20 C 689.10 1343.58 681.97 1338.55 674.05 1338.69 C 670.47 1339.24 668.48 1336.00 666.07 1334.04 C 661.78 1335.85 657.83 1338.57 653.14 1339.27 C 647.88 1340.43 641.37 1341.41 638.63 1346.71 C 635.77 1351.14 641.50 1357.55 646.26 1355.36 C 647.59 1354.60 648.81 1353.67 650.08 1352.83 C 647.95 1352.18 644.37 1352.02 644.60 1349.00 C 644.16 1345.93 648.43 1344.20 650.37 1346.49 C 653.63 1349.58 652.28 1355.53 648.18 1357.16 C 644.99 1358.27 641.04 1357.94 638.50 1355.53 C 636.71 1353.75 635.43 1351.53 633.72 1349.70 C 633.82 1352.99 634.71 1356.45 637.40 1358.60 C 641.13 1362.14 646.90 1360.97 650.86 1364.01 C 644.07 1364.94 636.47 1362.70 632.67 1356.67 C 628.62 1362.02 621.83 1364.95 615.15 1364.04 C 617.25 1361.34 621.05 1362.07 623.92 1360.85 C 628.69 1359.43 632.02 1354.59 631.51 1349.61 C 628.85 1352.33 627.16 1356.74 622.94 1357.36 C 620.33 1357.58 617.08 1358.12 615.27 1355.74 C 612.60 1353.43 611.87 1347.95 615.49 1346.23 C 617.16 1344.87 620.88 1345.65 620.73 1348.15 C 620.88 1351.18 617.37 1352.11 615.51 1353.81 C 617.87 1354.91 620.56 1356.61 623.23 1355.39 C 625.51 1353.76 628.20 1351.28 627.42 1348.17 C 625.88 1344.79 622.76 1342.13 619.24 1341.00 C 613.98 1339.13 608.13 1338.86 603.39 1335.69 C 600.47 1333.56 596.69 1334.43 593.34 1334.25 C 593.30 1332.08 593.28 1329.93 593.28 1327.79 C 620.67 1327.80 648.06 1327.79 675.44 1327.80 C 675.45 1299.24 675.45 1270.69 675.45 1242.13 Z" />
<path fill="#fafafa" d=" M 40.32 1267.85 C 39.92 1263.48 40.80 1259.06 43.03 1255.27 C 43.45 1259.56 44.01 1264.73 40.32 1267.85 Z" />
<path fill="#e8e8e8" d=" M 681.99 1255.28 C 684.28 1259.04 685.09 1263.50 684.74 1267.87 C 680.87 1264.84 681.54 1259.57 681.99 1255.28 Z" />
<path fill="#ffffff" d=" M 682.42 1268.86 C 686.78 1273.90 692.17 1278.14 695.65 1283.89 C 691.83 1289.43 686.62 1293.79 682.23 1298.86 C 682.23 1288.86 681.01 1278.81 682.42 1268.86 Z" />
<path fill="#fefefe" d=" M 29.34 1283.88 C 32.93 1278.24 38.17 1273.90 42.47 1268.82 C 43.67 1275.48 43.19 1282.27 43.31 1289.01 C 43.38 1292.20 43.24 1295.42 42.48 1298.56 C 37.83 1293.93 33.31 1289.10 29.34 1283.88 Z" />
<path fill="#010101" d=" M 39.28 1289.49 C 37.01 1286.12 35.87 1280.63 40.10 1278.26 C 40.51 1281.98 41.18 1286.02 39.28 1289.49 Z" />
<path fill="#010101" d=" M 684.68 1279.03 C 685.35 1279.23 686.70 1279.62 687.38 1279.82 C 687.95 1283.13 687.85 1286.61 685.76 1289.43 C 684.06 1286.19 684.47 1282.52 684.68 1279.03 Z" />
<path fill="#010101" d=" M 0.00 1282.75 C 4.35 1279.96 9.70 1280.06 14.39 1281.87 C 14.47 1282.72 14.64 1284.43 14.72 1285.28 C 10.10 1287.91 4.06 1288.10 0.00 1284.28 L 0.00 1282.75 Z" />
<path fill="#000000" d=" M 709.61 1284.73 C 711.84 1279.09 718.95 1280.15 723.57 1281.70 C 724.23 1282.84 724.24 1284.23 723.71 1285.46 C 719.37 1288.11 713.70 1287.67 709.61 1284.73 Z" />
<path fill="#fafafa" d=" M 682.08 1311.20 C 681.45 1307.10 681.25 1302.60 684.64 1299.64 C 684.79 1303.63 684.17 1307.71 682.08 1311.20 Z" />
<path fill="#fafafa" d=" M 43.01 1311.69 C 41.03 1308.04 39.90 1303.87 40.53 1299.72 C 43.99 1302.80 43.47 1307.55 43.01 1311.69 Z" />
<path fill="#d4d4d4" d=" M 42.23 1320.99 C 43.76 1324.38 43.40 1328.14 43.03 1331.74 C 41.45 1328.36 41.50 1324.57 42.23 1320.99 Z" />
<path fill="#d4d4d4" d=" M 682.30 1321.15 C 683.77 1324.54 683.58 1328.38 681.93 1331.67 C 681.62 1328.16 681.58 1324.61 682.30 1321.15 Z" />
<path fill="#fdfdfd" d=" M 37.25 1340.11 C 38.23 1337.34 39.43 1334.66 40.99 1332.18 C 42.57 1333.33 44.00 1334.68 45.30 1336.16 C 42.88 1337.96 40.10 1339.17 37.25 1340.11 Z" />
<path fill="#f6f6f6" d=" M 108.23 1336.50 C 111.72 1333.58 116.44 1333.15 120.78 1333.88 C 117.12 1336.32 112.57 1337.44 108.23 1336.50 Z" />
<path fill="#fdfdfd" d=" M 605.08 1333.85 C 609.29 1333.06 613.72 1333.81 617.30 1336.23 C 613.20 1338.17 608.62 1336.08 605.08 1333.85 Z" />
<path fill="#fefefe" d=" M 679.60 1336.81 C 680.71 1334.95 682.19 1333.36 684.02 1332.21 C 685.64 1334.69 686.92 1337.39 687.91 1340.21 C 685.07 1339.22 682.29 1338.12 679.60 1336.81 Z" />
<path fill="#d4d4d4" d=" M 45.84 1334.84 C 49.13 1333.94 52.61 1333.88 55.87 1334.93 C 52.60 1336.01 49.09 1335.90 45.84 1334.84 Z" />
<path fill="#fbfbfb" d=" M 65.11 1334.67 C 69.43 1334.10 74.17 1333.75 77.77 1336.72 C 73.42 1337.28 69.17 1336.08 65.11 1334.67 Z" />
<path fill="#fefefe" d=" M 78.41 1334.66 C 88.08 1334.09 97.81 1334.18 107.48 1334.58 C 104.61 1338.66 100.12 1341.11 96.90 1344.88 C 95.52 1346.39 93.53 1348.63 91.34 1347.08 C 86.63 1343.41 82.53 1338.97 78.41 1334.66 Z" />
<path fill="#ffffff" d=" M 617.76 1334.58 C 627.58 1334.19 637.43 1333.26 647.21 1334.71 C 642.59 1339.32 638.24 1344.32 632.82 1348.02 C 627.15 1344.33 623.05 1338.77 617.76 1334.58 Z" />
<path fill="#fdfdfd" d=" M 648.11 1336.77 C 651.53 1333.55 656.32 1334.17 660.60 1334.56 C 656.65 1336.21 652.40 1337.12 648.11 1336.77 Z" />
<path fill="#d4d4d4" d=" M 669.23 1334.78 C 672.47 1333.88 675.86 1334.02 679.15 1334.62 C 676.01 1336.06 672.38 1336.38 669.23 1334.78 Z" />
<path fill="#040404" d=" M 87.43 1337.58 C 91.07 1336.68 94.96 1336.30 98.50 1337.83 C 95.39 1340.80 90.43 1340.51 87.43 1337.58 Z" />
<path fill="#040404" d=" M 627.38 1336.94 C 630.90 1336.74 634.44 1336.79 637.98 1336.93 C 635.88 1340.99 629.23 1341.41 627.38 1336.94 Z" />
<path fill="#fdfdfd" d=" M 15.01 1345.60 C 16.80 1343.74 18.57 1341.68 21.06 1340.79 C 22.59 1340.92 24.06 1341.40 25.54 1341.79 C 25.61 1346.35 22.88 1350.33 18.72 1352.08 C 17.76 1351.12 16.80 1350.17 15.86 1349.22 C 17.02 1347.99 18.20 1346.76 19.36 1345.55 C 20.83 1345.88 22.30 1346.21 23.78 1346.55 C 23.47 1345.68 22.86 1343.96 22.55 1343.09 C 20.01 1343.85 17.55 1344.83 15.01 1345.60 Z" />
<path fill="#fefefe" d=" M 699.50 1341.85 C 703.49 1339.20 707.49 1342.53 710.06 1345.54 C 707.31 1344.77 704.67 1343.68 701.87 1343.17 C 701.77 1343.98 701.59 1345.62 701.49 1346.44 C 702.92 1346.26 704.37 1346.15 705.82 1346.11 C 707.05 1346.95 708.10 1348.06 709.21 1349.10 C 708.22 1350.10 707.24 1351.11 706.25 1352.12 C 702.36 1350.18 699.23 1346.40 699.50 1341.85 Z" />
<path fill="#fefefe" d=" M 15.21 1353.28 C 21.92 1355.02 25.99 1348.03 31.58 1345.80 C 29.63 1351.77 23.35 1356.14 24.51 1362.98 C 22.36 1362.86 19.93 1362.95 19.21 1360.46 C 17.53 1362.73 15.27 1364.46 12.68 1365.60 C 13.71 1362.23 16.23 1359.70 19.41 1358.32 C 18.10 1358.15 16.79 1357.99 15.48 1357.84 C 15.39 1356.30 15.31 1354.78 15.21 1353.28 Z" />
<path fill="#fefefe" d=" M 693.42 1345.80 C 699.01 1348.03 703.08 1355.01 709.79 1353.28 C 709.69 1354.79 709.60 1356.31 709.52 1357.86 C 708.21 1358.01 706.90 1358.16 705.60 1358.32 C 708.77 1359.71 711.32 1362.24 712.32 1365.64 C 709.90 1364.56 707.89 1362.86 706.04 1361.02 C 704.65 1362.67 702.52 1362.85 700.52 1363.07 C 701.65 1356.20 695.41 1351.79 693.42 1345.80 Z" />
<path fill="#040404" d=" M 20.92 1354.93 C 22.58 1353.70 24.26 1352.50 26.00 1351.41 C 25.37 1353.02 24.67 1354.62 23.95 1356.21 C 23.19 1355.89 21.68 1355.25 20.92 1354.93 Z" />
<path fill="#040404" d=" M 699.24 1351.47 C 700.91 1352.58 702.55 1353.78 704.20 1354.98 C 703.42 1355.33 701.84 1356.04 701.05 1356.39 C 700.40 1354.74 699.78 1353.11 699.24 1351.47 Z" />
<path fill="#fefefe" d=" M 26.28 1359.09 C 27.54 1355.35 31.68 1351.67 35.86 1352.74 C 39.62 1355.76 35.03 1360.20 32.55 1362.42 C 33.14 1360.28 33.87 1358.19 34.26 1356.03 C 33.42 1355.21 32.54 1354.44 31.63 1353.73 C 31.44 1355.96 32.78 1359.06 30.18 1360.34 C 28.87 1361.75 25.61 1361.59 26.28 1359.09 Z" />
<path fill="#fefefe" d=" M 687.78 1354.15 C 688.90 1352.03 691.72 1352.18 693.55 1353.22 C 696.36 1354.65 698.12 1357.38 699.45 1360.14 C 698.45 1360.49 696.43 1361.18 695.42 1361.53 C 693.19 1359.50 693.03 1356.62 693.31 1353.81 C 689.54 1355.31 691.82 1359.36 692.00 1362.29 C 690.10 1359.94 687.13 1357.51 687.78 1354.15 Z" />
<path fill="#000000" d=" M 91.98 1362.18 C 97.65 1365.28 96.97 1373.18 94.00 1378.00 L 91.67 1378.00 C 89.55 1372.97 89.44 1367.07 91.98 1362.18 Z" />
<path fill="#010101" d=" M 630.96 1378.00 C 629.16 1372.83 628.04 1365.75 633.18 1362.10 C 636.48 1366.69 636.78 1373.42 633.27 1378.00 L 630.96 1378.00 Z" />
</svg>
