<?xml version="1.0" encoding="UTF-8" ?>
<!DOCTYPE svg PUBLIC "-//W3C//DTD SVG 1.1//EN" "http://www.w3.org/Graphics/SVG/1.1/DTD/svg11.dtd">
<svg width="480pt" height="468pt" viewBox="0 0 480 468" version="1.1" xmlns="http://www.w3.org/2000/svg">
<path fill="#ffffff" d=" M 0.00 0.00 L 323.26 0.00 C 321.05 2.12 318.99 4.74 319.08 7.98 C 318.97 12.65 317.91 17.96 320.82 22.04 C 321.73 23.45 323.16 24.80 324.99 24.58 C 327.74 23.39 328.70 20.24 329.30 17.56 C 330.40 11.46 329.50 4.41 324.73 0.00 L 480.00 0.00 L 480.00 152.11 C 475.74 148.14 469.54 147.55 464.00 147.94 C 460.89 148.22 457.44 148.88 455.23 151.27 C 454.05 154.38 457.94 156.55 460.47 157.26 C 466.93 158.58 474.42 158.82 480.00 154.74 L 480.00 313.09 C 477.63 311.31 475.17 309.08 472.03 309.09 C 467.08 308.92 461.52 308.29 457.21 311.25 C 455.67 312.29 453.98 314.61 455.70 316.26 C 459.06 319.07 463.81 319.00 467.97 319.09 C 472.20 318.87 477.23 318.60 480.00 314.87 L 480.00 468.00 L 0.00 468.00 L 0.00 0.00 Z" />
<path fill="#000000" d=" M 323.26 0.00 L 324.73 0.00 C 329.50 4.41 330.40 11.46 329.30 17.56 C 328.70 20.24 327.74 23.39 324.99 24.58 C 323.16 24.80 321.73 23.45 320.82 22.04 C 317.91 17.96 318.97 12.65 319.08 7.98 C 318.99 4.74 321.05 2.12 323.26 0.00 Z" />
<path fill="#000000" d=" M 152.64 2.76 C 153.26 0.47 156.03 0.98 157.83 0.49 C 160.34 5.93 162.73 12.07 160.79 18.09 C 159.99 20.59 159.27 24.23 156.21 24.76 C 152.87 23.87 150.92 20.26 150.84 16.98 C 150.69 12.21 150.92 7.26 152.64 2.76 Z" />
<path fill="#000000" d=" M 4.43 3.80 C 9.11 6.12 12.69 10.02 16.98 12.92 C 21.29 15.84 25.84 18.63 30.93 19.94 C 33.38 20.70 36.28 20.08 37.92 18.02 C 41.14 14.35 44.81 10.64 49.69 9.37 C 47.83 13.29 43.51 15.50 41.93 19.50 C 49.68 19.81 58.57 21.85 62.86 28.99 C 65.13 32.50 62.96 37.57 65.99 40.55 C 67.42 39.97 68.26 38.62 69.35 37.61 C 69.01 38.93 68.89 40.66 67.38 41.21 C 62.87 43.77 57.45 43.33 52.72 45.25 C 58.17 52.77 65.65 59.38 74.86 61.64 C 79.42 62.99 84.22 62.55 88.88 63.16 C 92.99 64.13 94.22 69.17 98.04 70.67 C 101.92 70.64 105.14 68.16 108.44 66.45 C 117.29 61.63 127.87 62.06 136.94 57.92 C 140.63 55.53 144.64 52.81 146.44 48.63 C 148.48 43.14 143.73 37.91 138.89 36.07 C 134.54 34.27 129.47 36.36 126.89 40.10 C 129.78 41.68 134.39 42.04 135.18 45.92 C 137.46 51.48 128.50 54.34 125.45 50.38 C 122.93 47.24 121.80 42.61 123.59 38.86 C 125.34 35.35 128.81 32.39 132.88 32.37 C 136.12 32.35 139.70 31.80 142.63 33.47 C 146.92 36.46 149.35 41.59 154.19 43.88 C 153.81 38.59 151.51 33.11 146.90 30.17 C 140.58 25.97 132.80 25.60 125.70 23.55 C 131.29 19.83 138.35 22.52 144.09 24.56 C 149.09 26.21 152.93 29.86 155.64 34.27 C 158.78 30.82 161.66 26.87 166.23 25.19 C 172.22 22.74 179.72 20.29 185.74 23.88 C 179.84 26.11 173.24 25.71 167.52 28.51 C 161.45 31.25 157.48 37.94 157.81 44.56 C 160.33 43.54 161.66 41.15 163.09 39.01 C 166.12 34.47 171.67 31.73 177.12 32.16 C 182.64 32.47 187.62 36.72 189.22 41.91 C 189.25 46.26 186.86 51.72 181.99 52.26 C 178.17 52.83 174.06 48.96 175.96 45.10 C 177.29 41.54 181.50 41.57 184.61 40.99 C 182.53 35.71 175.63 34.23 170.91 36.76 C 166.45 38.70 162.99 43.99 164.95 48.85 C 166.82 52.78 170.49 55.56 174.05 57.89 C 182.75 61.41 192.40 61.99 200.92 66.02 C 204.20 67.54 207.08 70.31 210.85 70.48 C 214.90 70.64 218.95 70.49 223.00 70.53 C 223.00 74.02 223.00 77.51 223.00 81.00 C 176.33 81.00 129.67 81.00 83.00 81.00 C 83.00 126.67 83.00 172.33 83.00 218.00 C 79.26 218.00 75.53 218.00 71.79 218.00 C 71.68 214.02 71.96 210.02 71.40 206.08 C 70.89 202.34 67.61 199.91 66.29 196.50 C 62.49 187.46 62.25 177.20 57.42 168.53 C 55.28 164.73 51.53 161.28 46.99 161.05 C 41.26 161.32 36.01 166.27 35.55 172.02 C 35.59 175.55 38.02 178.47 40.38 180.87 C 42.28 177.94 42.24 173.30 46.10 172.05 C 50.68 170.19 54.45 176.40 52.19 180.19 C 49.00 185.64 40.55 186.06 36.23 181.72 C 31.79 177.88 30.97 170.99 33.85 165.98 C 36.26 160.95 41.46 158.43 45.38 154.80 C 37.83 152.62 31.59 159.31 28.44 165.37 C 25.41 170.33 26.49 176.65 23.38 181.51 C 20.35 174.56 22.76 166.58 26.37 160.34 C 28.32 156.68 31.80 154.34 35.33 152.38 C 27.44 148.83 23.34 140.27 22.30 132.07 C 21.87 129.08 22.24 126.02 23.47 123.26 C 26.50 127.91 25.83 133.84 28.05 138.84 C 30.82 146.02 38.30 151.39 46.17 150.32 C 41.54 146.82 35.71 143.87 33.59 138.10 C 32.16 133.38 32.23 127.57 35.73 123.75 C 40.14 118.85 49.78 119.11 52.72 125.46 C 54.76 129.37 50.14 134.45 46.08 132.66 C 42.61 131.03 41.81 126.84 39.97 123.83 C 37.54 127.15 35.02 131.22 36.35 135.51 C 37.94 140.30 42.69 145.03 48.13 143.82 C 53.27 142.58 57.47 138.47 59.31 133.57 C 63.11 123.73 63.22 112.46 69.46 103.61 C 70.73 101.02 72.69 97.99 71.60 95.05 C 70.12 93.63 67.71 93.25 66.70 91.27 C 63.43 86.47 64.80 80.40 63.45 75.05 C 61.18 65.31 54.09 57.30 46.04 51.73 C 44.04 56.20 45.07 61.42 42.75 65.75 C 42.13 67.19 40.56 67.66 39.28 68.32 C 40.11 66.73 41.15 65.24 41.78 63.56 C 37.97 62.21 33.35 63.69 30.02 60.96 C 27.08 58.59 24.43 55.83 22.19 52.78 C 19.43 49.04 21.57 43.96 19.26 40.02 C 15.92 42.30 14.33 46.56 10.42 48.05 C 11.20 41.76 18.33 39.33 20.83 33.97 C 21.06 27.43 17.02 21.71 13.72 16.37 C 11.04 11.85 6.06 8.97 4.43 3.80 Z" />
<path fill="#000000" d=" M 453.75 19.81 C 461.87 16.33 467.67 9.25 475.47 5.27 C 471.86 12.33 465.34 17.42 461.74 24.53 C 459.83 28.29 457.26 33.18 459.77 37.22 C 463.74 40.64 468.15 44.10 469.78 49.33 C 465.86 47.21 463.05 43.62 459.28 41.28 C 458.58 45.37 459.03 49.69 457.38 53.58 C 455.21 59.00 450.04 63.21 444.19 63.83 C 441.85 64.09 439.49 64.24 437.19 64.75 C 438.11 66.33 439.12 67.87 440.06 69.44 C 438.21 68.97 436.74 67.70 436.25 65.83 C 434.51 61.76 435.62 57.07 433.69 53.06 C 425.14 58.43 417.92 66.81 415.78 76.87 C 414.92 80.57 415.12 84.39 414.69 88.14 C 414.21 92.57 408.18 93.54 407.70 97.98 C 408.22 101.34 410.38 104.09 411.91 107.04 C 417.20 116.64 415.99 128.56 422.25 137.74 C 425.15 141.97 430.67 145.62 435.91 143.61 C 439.95 141.76 443.60 137.71 443.28 133.02 C 442.98 129.20 439.90 126.56 437.66 123.77 C 437.45 126.96 437.77 131.52 434.00 132.76 C 429.61 134.74 424.57 129.85 426.66 125.45 C 429.79 119.17 439.51 119.12 443.72 124.33 C 448.92 130.60 446.91 140.82 440.42 145.43 C 438.27 147.30 434.84 148.05 434.07 151.14 C 440.49 151.13 447.03 147.74 450.05 141.96 C 453.36 136.08 452.97 129.05 455.51 122.91 C 458.55 128.50 456.71 135.28 454.63 140.89 C 452.79 146.01 448.95 150.06 444.38 152.89 C 452.05 157.96 456.77 166.90 457.04 176.03 C 457.20 178.16 456.36 180.14 455.15 181.84 C 452.82 176.06 453.37 169.43 450.17 163.96 C 447.07 157.87 440.13 154.16 433.36 154.69 C 436.24 158.82 441.73 160.14 444.27 164.55 C 446.47 168.60 446.56 173.50 445.79 177.94 C 443.24 184.03 434.19 188.43 428.79 183.20 C 425.27 180.42 425.56 172.40 430.95 172.38 C 435.74 172.70 437.47 177.40 438.65 181.30 C 442.47 178.11 445.28 171.74 441.76 167.39 C 439.12 163.78 434.63 159.84 429.86 161.90 C 423.97 164.78 419.79 170.60 418.17 176.89 C 415.57 184.91 415.06 193.86 410.19 200.97 C 406.26 205.73 407.80 212.32 407.50 217.99 C 404.00 218.00 400.50 218.00 397.00 218.00 C 397.00 172.33 397.00 126.67 397.00 81.00 C 349.67 81.00 302.33 81.00 255.00 81.00 C 255.00 77.84 255.00 74.69 255.00 71.53 C 259.33 71.50 263.68 71.67 267.99 71.19 C 272.73 70.86 276.10 67.11 280.37 65.52 C 289.45 61.45 300.35 62.63 308.63 56.63 C 312.76 53.79 316.33 48.68 314.64 43.48 C 312.59 37.53 305.00 35.21 299.44 37.36 C 297.99 37.98 296.19 38.86 296.18 40.67 C 298.46 42.12 301.70 42.32 303.15 44.88 C 304.63 47.24 304.11 50.89 301.49 52.22 C 298.17 53.71 293.74 52.19 292.17 48.86 C 289.96 44.34 291.18 38.19 295.49 35.36 C 302.30 30.81 312.55 33.11 316.97 39.97 C 318.39 42.16 319.60 44.68 322.13 45.82 C 322.73 39.02 318.65 32.23 312.43 29.46 C 306.77 26.39 299.93 26.88 294.34 23.68 C 299.86 21.94 305.91 22.88 311.28 24.77 C 316.65 26.68 320.61 30.92 324.48 34.91 C 327.48 31.35 330.46 27.48 334.86 25.57 C 340.76 22.88 347.65 21.97 353.97 23.60 C 349.11 26.85 342.86 26.28 337.68 28.81 C 331.20 31.29 325.22 37.31 326.14 44.77 C 331.61 41.63 333.98 33.59 341.00 33.48 C 345.54 33.36 350.97 33.09 354.37 36.67 C 357.21 40.20 358.14 45.67 355.70 49.65 C 353.45 53.42 347.35 53.91 344.53 50.59 C 342.60 48.02 344.67 44.66 347.18 43.45 C 348.70 42.20 351.67 41.72 351.74 39.36 C 346.16 34.01 335.26 36.60 333.12 44.18 C 331.61 49.51 335.63 54.45 339.93 57.06 C 350.04 63.65 363.33 61.76 373.24 68.77 C 376.04 70.76 379.46 71.85 382.92 71.35 C 384.14 65.93 390.13 64.25 394.99 64.09 C 407.54 63.76 419.58 56.93 426.50 46.48 C 422.26 44.31 417.28 44.75 412.92 42.98 C 411.05 42.39 410.37 40.41 409.52 38.86 C 411.06 39.82 412.57 40.84 414.19 41.67 C 415.20 38.61 414.62 35.16 416.18 32.27 C 419.33 26.29 425.42 21.93 432.11 20.91 C 434.07 20.55 435.98 19.95 437.84 19.24 C 435.07 16.33 431.40 14.24 429.44 10.63 C 434.67 11.49 438.23 15.71 441.72 19.30 C 444.95 22.46 450.03 21.56 453.75 19.81 Z" />
<path fill="#ffffff" d=" M 20.14 20.16 C 25.33 20.61 30.61 25.16 30.55 30.63 C 25.99 28.55 22.73 24.32 20.14 20.16 Z" />
<path fill="#ffffff" d=" M 456.31 22.16 C 456.91 21.99 458.11 21.66 458.72 21.49 C 458.85 24.22 456.66 26.16 455.04 28.06 C 453.29 29.65 451.43 32.30 448.74 31.20 C 448.80 26.87 453.06 24.27 456.31 22.16 Z" />
<path fill="#ffffff" d=" M 32.36 24.35 C 35.27 23.84 38.25 24.05 41.19 24.27 C 40.65 26.16 39.82 27.99 39.58 29.95 C 42.31 36.60 47.73 41.69 50.99 48.06 C 51.44 48.85 51.53 49.67 51.27 50.53 C 44.61 48.86 40.01 43.32 34.19 40.06 C 31.24 38.41 27.78 39.79 24.61 39.76 C 24.21 37.11 24.26 34.42 24.55 31.77 C 26.75 31.74 29.35 32.84 31.25 31.28 C 33.45 29.60 32.13 26.64 32.36 24.35 Z" />
<path fill="#ffffff" d=" M 437.91 25.57 C 440.85 25.43 444.04 24.72 446.83 25.98 C 447.13 27.85 446.94 29.81 447.50 31.64 C 449.55 32.50 451.83 32.54 453.95 33.21 C 455.82 35.29 454.72 38.53 454.59 41.06 C 451.59 40.81 448.34 39.91 445.56 41.52 C 439.17 44.73 433.81 49.83 426.97 52.15 C 429.82 44.63 436.79 39.51 439.49 31.91 C 440.53 29.60 438.96 27.49 437.91 25.57 Z" />
<path fill="#ffffff" d=" M 53.66 24.98 C 57.13 27.08 60.13 30.24 61.48 34.10 C 62.41 37.21 59.90 40.29 57.15 41.41 C 51.58 39.82 45.53 36.67 43.46 30.88 C 42.52 28.60 44.74 26.42 47.02 26.75 C 50.37 27.25 52.17 30.48 53.85 33.04 C 52.79 34.16 51.74 35.27 50.70 36.40 C 52.39 38.05 55.69 38.09 56.56 35.56 C 57.07 31.79 54.11 28.65 53.66 24.98 Z" />
<path fill="#ffffff" d=" M 418.44 37.03 C 418.76 31.89 422.58 27.82 426.46 24.84 C 425.79 28.79 423.41 32.14 422.50 36.01 C 422.15 38.24 425.16 39.46 426.92 38.49 C 429.58 37.92 426.37 34.72 426.37 32.99 C 427.58 30.39 429.78 28.36 432.13 26.77 C 434.20 27.22 436.16 29.04 436.81 31.04 C 434.82 36.57 429.65 40.64 424.05 42.06 C 421.09 42.83 418.22 39.94 418.44 37.03 Z" />
<path fill="#000000" d=" M 34.76 37.17 C 35.94 35.99 37.14 34.85 38.38 33.74 C 38.88 36.92 42.06 38.22 43.24 40.93 C 42.65 41.10 41.47 41.44 40.88 41.61 C 38.91 40.03 37.01 38.36 34.76 37.17 Z" />
<path fill="#000000" d=" M 436.12 41.10 C 438.32 39.52 440.15 37.56 440.93 34.89 C 441.92 36.02 444.54 36.65 443.74 38.62 C 441.96 40.83 438.86 43.66 436.12 41.10 Z" />
<path fill="#ffffff" d=" M 26.94 45.91 C 26.10 43.36 29.53 40.65 31.75 42.21 C 36.96 44.37 40.82 49.41 41.70 54.95 C 42.02 56.70 41.52 58.98 39.62 59.60 C 33.74 61.92 27.97 56.93 25.33 52.05 C 29.21 52.97 32.80 55.83 36.96 55.07 C 38.63 54.86 39.77 52.89 38.61 51.47 C 36.54 49.32 33.95 53.25 31.79 51.40 C 29.72 50.10 27.61 48.37 26.94 45.91 Z" />
<path fill="#ffffff" d=" M 442.49 47.53 C 444.57 45.57 446.86 43.25 449.91 43.12 C 452.22 43.85 452.62 46.93 451.93 48.93 C 450.63 51.52 447.66 52.52 445.13 53.45 C 444.48 52.88 443.17 51.73 442.52 51.16 C 441.12 52.59 440.45 55.66 442.96 56.37 C 446.92 57.17 450.32 54.31 454.07 53.56 C 451.59 57.13 448.18 60.41 443.87 61.52 C 441.34 62.31 438.26 60.81 437.87 58.07 C 437.22 54.00 439.78 50.30 442.49 47.53 Z" />
<path fill="#ffffff" d=" M 142.39 59.28 C 146.79 55.34 150.63 50.71 155.69 47.59 C 160.76 50.97 164.90 55.49 169.46 59.48 C 172.95 62.85 177.11 65.70 179.51 70.03 C 169.39 71.10 159.18 70.28 149.03 70.53 C 143.27 70.46 137.46 70.88 131.77 69.79 C 134.52 65.55 138.80 62.72 142.39 59.28 Z" />
<path fill="#ffffff" d=" M 321.30 50.24 C 322.36 49.74 323.62 48.53 324.84 49.30 C 328.46 51.05 331.33 53.98 334.20 56.73 C 339.05 61.64 344.09 66.35 349.25 70.93 C 332.70 71.07 316.13 71.86 299.60 70.88 C 302.97 66.19 307.75 62.85 311.82 58.83 C 314.89 55.88 317.70 52.58 321.30 50.24 Z" />
<path fill="#ffffff" d=" M 62.02 61.06 C 66.74 62.51 71.53 63.94 75.81 66.48 C 74.24 70.06 70.25 71.22 68.26 74.37 C 65.35 70.37 63.78 65.63 62.02 61.06 Z" />
<path fill="#000000" d=" M 146.48 65.38 C 148.67 63.38 150.85 60.72 154.07 60.64 C 158.09 60.63 162.36 61.97 164.89 65.28 C 158.79 66.10 152.59 65.96 146.48 65.38 Z" />
<path fill="#000000" d=" M 319.16 62.22 C 323.79 61.01 329.48 61.42 332.80 65.28 C 329.93 67.25 326.34 66.89 323.04 67.08 C 320.51 67.21 317.99 66.86 315.59 66.07 C 316.55 64.63 317.31 62.70 319.16 62.22 Z" />
<path fill="#ffffff" d=" M 404.89 68.00 C 408.07 64.37 413.11 63.09 417.51 61.48 C 415.93 65.91 414.29 70.34 412.03 74.47 C 408.68 73.81 405.55 71.48 404.89 68.00 Z" />
<path fill="#ffffff" d=" M 108.84 70.20 C 115.11 66.44 122.80 65.43 130.02 65.46 C 127.15 67.88 123.87 70.30 119.99 70.51 C 116.27 70.58 112.54 70.70 108.84 70.20 Z" />
<path fill="#ffffff" d=" M 183.23 65.76 C 184.86 65.17 186.59 65.46 188.25 65.78 C 193.15 66.80 198.08 68.03 202.49 70.49 C 197.80 70.50 193.11 70.68 188.43 70.45 C 186.13 69.76 183.79 68.25 183.23 65.76 Z" />
<path fill="#ffffff" d=" M 277.48 70.84 C 283.36 67.40 290.58 66.28 297.32 66.48 C 293.25 73.14 284.04 71.75 277.48 70.84 Z" />
<path fill="#ffffff" d=" M 350.50 66.33 C 356.94 67.09 363.75 67.44 369.54 70.68 C 363.93 70.96 356.62 73.40 352.46 68.28 C 351.80 67.63 351.14 66.98 350.50 66.33 Z" />
<path fill="#ffffff" d=" M 76.24 70.07 C 79.27 67.54 83.43 67.97 87.10 67.99 C 89.49 67.99 91.98 68.54 93.67 70.34 C 87.88 70.53 82.00 70.93 76.24 70.07 Z" />
<path fill="#ffffff" d=" M 386.34 70.20 C 391.81 68.46 398.11 68.62 403.24 71.32 C 397.62 71.11 391.76 72.20 386.34 70.20 Z" />
<path fill="#ffffff" d=" M 71.82 91.97 C 68.20 86.72 69.29 79.28 71.82 73.77 C 72.11 79.83 72.11 85.91 71.82 91.97 Z" />
<path fill="#ffffff" d=" M 408.13 91.56 C 407.33 86.54 407.18 81.31 408.18 76.32 C 410.16 81.04 411.51 87.13 408.13 91.56 Z" />
<path fill="#ffffff" d=" M 407.71 106.29 C 411.04 112.87 412.13 120.20 412.54 127.49 C 410.78 125.19 408.31 123.13 407.91 120.09 C 407.23 115.53 407.70 110.89 407.71 106.29 Z" />
<path fill="#ffffff" d=" M 67.66 125.94 C 66.12 119.73 68.24 113.14 71.02 107.57 C 72.78 113.51 72.89 121.66 67.66 125.94 Z" />
<path fill="#ffffff" d=" M 56.70 142.70 C 61.46 138.14 65.54 132.84 70.78 128.80 C 72.02 138.16 71.70 147.62 71.80 157.04 C 71.65 163.45 72.18 169.92 71.02 176.27 C 64.64 173.07 61.74 166.08 56.64 161.42 C 54.23 158.68 50.25 156.87 49.52 152.98 C 50.09 148.59 53.90 145.76 56.70 142.70 Z" />
<path fill="#ffffff" d=" M 407.44 136.98 C 407.55 134.29 407.90 131.62 408.56 129.02 C 412.92 132.44 416.30 136.89 420.29 140.72 C 423.58 144.07 427.17 147.29 429.52 151.42 C 430.55 152.80 429.32 154.22 428.62 155.41 C 425.91 159.38 422.20 162.48 418.87 165.89 C 415.16 169.67 411.63 173.62 408.06 177.53 C 407.37 164.03 406.78 150.49 407.44 136.98 Z" />
<path fill="#000000" d=" M 62.06 149.89 C 62.34 147.28 63.68 144.80 66.00 143.46 C 67.95 149.03 67.99 155.32 66.19 160.93 C 62.12 158.96 61.55 153.88 62.06 149.89 Z" />
<path fill="#000000" d=" M 412.41 144.17 C 418.41 147.38 419.41 158.15 412.85 161.12 C 411.19 155.61 412.17 149.80 412.41 144.17 Z" />
<path fill="#000000" d=" M 8.14 147.18 C 13.36 146.20 19.28 147.16 23.39 150.66 C 25.16 152.35 23.38 154.73 21.64 155.51 C 16.33 158.23 9.93 158.26 4.26 156.73 C 1.06 156.08 -0.32 151.93 1.38 149.30 C 3.45 148.12 5.83 147.66 8.14 147.18 Z" />
<path fill="#000000" d=" M 455.23 151.27 C 457.44 148.88 460.89 148.22 464.00 147.94 C 469.54 147.55 475.74 148.14 480.00 152.11 L 480.00 154.74 C 474.42 158.82 466.93 158.58 460.47 157.26 C 457.94 156.55 454.05 154.38 455.23 151.27 Z" />
<path fill="#ffffff" d=" M 66.77 179.14 C 72.75 183.02 72.64 191.56 70.79 197.63 C 68.06 191.93 66.32 185.48 66.77 179.14 Z" />
<path fill="#ffffff" d=" M 406.99 198.07 C 406.10 191.63 406.23 183.75 411.19 178.90 C 411.97 180.43 412.79 182.08 412.33 183.86 C 411.50 188.83 410.48 194.20 406.99 198.07 Z" />
<path fill="#000000" d=" M 71.75 250.00 C 75.50 250.00 79.25 250.00 83.00 250.00 C 83.00 295.67 83.00 341.33 83.00 387.00 C 130.00 387.00 177.00 387.00 224.00 387.00 C 224.00 390.38 224.00 393.75 224.00 397.14 C 219.38 397.15 214.74 396.96 210.15 397.60 C 206.65 398.09 204.25 401.01 201.12 402.37 C 191.47 406.67 180.16 406.31 171.12 412.15 C 167.75 414.36 164.38 417.69 164.40 422.01 C 164.56 429.53 173.91 434.72 180.50 431.40 C 182.26 430.53 183.51 428.96 184.77 427.53 C 181.79 426.14 177.45 426.59 176.06 422.97 C 174.30 419.58 177.29 415.46 180.97 415.67 C 186.28 415.60 189.37 421.39 189.22 426.10 C 187.46 432.01 181.51 436.84 175.09 435.53 C 171.09 435.32 167.03 433.74 164.38 430.66 C 162.19 428.24 161.07 424.73 157.81 423.44 C 157.48 430.06 161.46 436.77 167.55 439.49 C 173.25 442.28 179.84 441.91 185.74 444.08 C 180.08 447.74 172.89 445.30 167.13 443.11 C 162.25 441.45 158.88 437.53 155.70 433.71 C 153.62 436.26 151.96 439.34 148.97 440.98 C 143.54 444.15 137.31 446.22 130.99 446.28 C 129.03 446.39 127.33 445.37 125.71 444.44 C 132.80 442.42 140.58 442.01 146.89 437.82 C 151.52 434.88 153.82 429.38 154.19 424.08 C 148.88 426.54 146.55 432.61 141.43 435.25 C 136.17 436.44 129.88 436.13 125.68 432.36 C 121.30 428.43 122.04 421.04 125.97 417.09 C 128.31 414.91 132.04 415.75 134.40 417.47 C 136.07 418.77 135.39 421.21 134.91 422.93 C 133.56 426.12 129.57 426.39 126.88 427.90 C 129.60 431.88 135.16 434.00 139.61 431.64 C 144.62 429.31 149.15 422.70 145.51 417.43 C 142.07 413.22 137.53 409.55 132.15 408.25 C 124.91 406.31 117.33 405.50 110.40 402.53 C 106.34 400.77 102.74 397.46 98.13 397.33 C 95.41 398.26 94.04 401.10 92.03 402.97 C 89.81 405.64 86.04 404.97 82.98 405.24 C 75.17 405.31 67.36 408.10 61.49 413.31 C 58.28 416.22 55.26 419.38 52.73 422.91 C 57.32 424.48 62.41 424.13 66.83 426.25 C 68.40 426.81 68.86 428.53 69.67 429.81 C 68.23 428.82 66.70 427.95 65.01 427.48 C 63.88 432.29 64.85 438.15 60.77 441.77 C 55.86 446.80 48.70 448.12 41.97 448.48 C 43.39 452.53 47.87 454.70 49.67 458.66 C 44.80 457.33 41.23 453.56 37.94 449.98 C 35.30 447.28 31.07 447.74 27.81 448.89 C 18.88 452.03 12.50 459.39 4.52 464.16 C 7.93 457.33 14.13 452.42 17.61 445.63 C 19.54 441.81 21.65 437.48 20.83 433.13 C 17.70 428.58 10.75 426.25 10.78 419.87 C 14.15 422.12 16.32 425.66 19.50 428.15 C 21.00 424.33 19.96 420.05 21.42 416.26 C 23.44 412.82 26.54 410.16 29.44 407.49 C 32.85 404.28 37.85 405.70 41.98 404.44 C 41.08 402.84 40.13 401.29 39.27 399.69 C 46.17 402.10 43.38 410.93 46.02 416.26 C 53.78 410.97 60.45 403.33 63.13 394.20 C 65.02 388.23 63.21 381.29 67.07 375.95 C 68.11 373.97 71.51 374.31 71.75 371.88 C 72.03 367.63 69.20 364.20 67.26 360.70 C 63.00 352.24 62.83 342.45 59.09 333.81 C 57.23 329.44 53.50 325.84 48.95 324.40 C 42.56 322.44 35.66 328.52 36.03 335.01 C 36.10 338.53 38.20 341.53 40.26 344.21 C 42.48 341.22 42.67 336.03 47.07 335.29 C 51.45 334.17 54.47 339.54 52.47 343.16 C 49.76 348.58 41.97 348.68 37.42 345.66 C 32.37 342.27 31.90 335.23 33.60 329.89 C 35.70 324.11 41.54 321.19 46.15 317.68 C 36.87 316.03 29.94 324.09 27.04 331.92 C 25.10 336.04 26.42 341.09 23.56 344.83 C 20.53 338.12 22.91 330.39 26.19 324.23 C 28.14 320.35 31.55 317.55 35.35 315.60 C 27.02 311.88 22.65 302.76 22.01 294.03 C 21.74 291.42 22.41 288.86 23.40 286.47 C 26.40 291.10 25.40 297.08 28.09 301.88 C 31.16 308.29 37.59 315.41 45.48 313.21 C 40.79 309.44 34.97 306.17 33.07 300.04 C 30.58 293.93 33.76 286.12 40.07 283.92 C 44.49 282.34 50.45 283.86 52.46 288.39 C 54.13 292.19 50.39 297.76 46.06 295.92 C 42.22 294.65 42.29 290.02 40.35 287.12 C 38.19 289.33 36.13 291.88 35.57 295.01 C 35.18 302.62 44.64 309.96 51.60 305.53 C 58.34 301.50 60.27 293.23 62.12 286.16 C 63.82 279.61 64.72 272.47 69.02 266.99 C 72.97 262.24 71.44 255.66 71.75 250.00 Z" />
<path fill="#000000" d=" M 397.00 250.00 C 400.50 250.00 404.00 250.00 407.50 250.00 C 407.52 253.68 407.31 257.40 407.85 261.06 C 408.13 263.85 410.28 265.83 411.58 268.17 C 416.27 277.23 416.04 288.06 421.06 296.97 C 423.92 300.92 427.65 305.50 432.95 305.68 C 437.64 305.08 441.29 301.06 443.20 296.97 C 443.87 292.89 442.11 288.44 438.83 285.89 C 437.05 289.39 435.53 294.04 430.97 294.62 C 425.90 295.05 425.02 287.75 427.51 284.57 C 431.33 279.80 438.97 281.17 442.88 285.13 C 448.05 289.80 447.66 298.29 443.39 303.42 C 440.72 307.21 435.65 308.46 433.42 312.63 C 439.81 312.67 446.59 309.52 449.62 303.67 C 452.82 297.92 452.65 291.05 455.30 285.09 C 458.42 290.68 456.52 297.39 454.05 302.84 C 452.04 307.50 448.45 311.20 444.39 314.12 C 449.53 317.19 453.50 322.01 455.27 327.77 C 456.90 332.93 458.35 339.06 455.49 344.05 C 452.89 337.68 453.36 330.32 449.66 324.35 C 446.50 318.95 440.23 315.89 434.08 315.85 C 434.95 319.18 438.78 319.86 441.01 322.03 C 447.45 327.04 448.93 338.03 442.65 343.73 C 438.17 347.95 429.47 347.28 426.65 341.52 C 424.61 337.14 429.58 332.27 433.96 334.22 C 437.77 335.43 437.45 340.03 437.66 343.23 C 439.91 340.43 442.97 337.80 443.28 333.99 C 443.64 329.51 440.26 325.68 436.55 323.67 C 431.48 321.15 425.74 324.56 422.67 328.64 C 416.25 337.44 417.22 349.05 412.59 358.61 C 410.93 362.37 407.76 365.67 407.68 369.97 C 408.15 374.43 414.22 375.42 414.70 379.87 C 415.10 383.40 414.92 386.99 415.65 390.49 C 417.62 400.82 424.96 409.46 433.70 414.93 C 435.96 410.09 434.06 403.96 437.72 399.66 C 438.31 399.38 439.49 398.83 440.09 398.55 C 439.12 400.11 438.11 401.65 437.18 403.24 C 440.98 404.18 445.09 403.67 448.70 405.39 C 454.07 407.73 457.92 413.10 458.53 418.92 C 458.79 421.52 458.93 424.13 459.31 426.72 C 463.02 424.31 465.89 420.82 469.79 418.67 C 468.16 423.63 464.14 427.18 460.19 430.32 C 457.39 433.36 459.15 437.91 460.60 441.21 C 464.08 449.37 471.39 454.99 475.50 462.73 C 466.89 458.32 460.55 450.10 451.11 447.19 C 447.83 446.09 443.74 446.33 441.32 449.06 C 438.07 452.64 434.47 456.54 429.45 457.36 C 431.87 453.47 435.75 450.88 439.20 447.98 C 433.85 447.04 427.73 447.43 423.36 443.67 C 420.87 441.49 418.43 439.18 416.51 436.47 C 414.34 433.53 415.38 429.61 414.20 426.32 C 412.55 427.09 411.06 428.11 409.52 429.06 C 410.39 427.44 411.19 425.46 413.15 424.91 C 417.45 423.34 422.19 423.48 426.49 421.80 C 421.13 413.46 412.62 407.27 402.97 404.95 C 397.54 403.42 391.43 404.72 386.45 401.64 C 384.40 400.73 383.78 398.50 382.93 396.65 C 379.17 396.03 375.57 397.51 372.56 399.65 C 362.71 406.26 349.76 404.50 339.76 410.78 C 335.83 413.15 332.84 417.38 332.55 422.02 C 333.08 425.62 336.13 428.23 338.98 430.17 C 343.53 432.79 349.23 430.98 353.13 427.98 C 349.79 425.79 344.54 424.62 343.82 420.03 C 343.80 414.98 351.04 413.89 354.25 416.71 C 359.87 421.76 356.77 433.17 349.04 434.12 C 345.15 434.67 340.94 435.08 337.20 433.71 C 332.91 430.89 330.48 425.99 326.11 423.24 C 325.94 426.94 326.87 430.78 329.45 433.55 C 333.48 438.03 339.39 440.24 345.16 441.40 C 348.13 442.15 351.52 442.24 353.81 444.55 C 346.99 445.97 339.58 445.04 333.45 441.67 C 329.73 439.68 327.18 436.22 324.48 433.10 C 321.04 436.56 317.68 440.34 313.14 442.40 C 307.38 445.08 300.68 445.95 294.46 444.53 C 299.68 441.15 306.36 441.75 311.81 438.84 C 318.32 436.16 322.79 429.23 322.12 422.16 C 318.47 423.88 317.63 428.24 314.70 430.73 C 309.23 436.06 299.47 436.76 293.99 431.09 C 288.83 426.76 290.60 415.83 297.97 415.25 C 301.63 414.48 305.08 418.25 303.75 421.82 C 302.74 425.58 298.31 425.87 295.56 427.81 C 300.64 433.83 311.99 432.03 314.64 424.53 C 316.35 419.32 312.75 414.20 308.62 411.36 C 300.36 405.36 289.47 406.55 280.40 402.49 C 276.13 400.90 272.75 397.16 268.02 396.81 C 263.70 396.33 259.34 396.49 255.01 396.47 C 255.00 393.31 255.00 390.15 255.00 387.00 C 302.33 387.00 349.67 387.00 397.00 387.00 C 397.00 341.33 397.00 295.67 397.00 250.00 Z" />
<path fill="#ffffff" d=" M 70.96 269.53 C 72.48 276.17 72.84 284.98 66.49 289.30 C 66.43 282.53 68.36 275.75 70.96 269.53 Z" />
<path fill="#ffffff" d=" M 411.23 288.37 C 406.57 283.22 405.45 275.14 407.65 268.70 C 410.17 273.09 411.46 278.07 412.15 283.06 C 412.54 284.90 411.81 286.66 411.23 288.37 Z" />
<path fill="#ffffff" d=" M 408.04 290.59 C 414.51 293.27 417.23 300.37 422.18 304.89 C 424.70 307.90 429.20 309.79 429.71 314.06 C 428.92 318.42 425.17 321.30 422.32 324.38 C 417.62 328.80 413.57 333.90 408.57 337.99 C 407.10 332.43 407.78 326.65 407.64 320.97 C 407.86 310.85 407.16 300.68 408.04 290.59 Z" />
<path fill="#ffffff" d=" M 55.38 307.37 C 60.78 302.13 65.49 296.24 71.00 291.13 C 72.02 302.06 71.74 313.07 71.72 324.04 C 71.57 329.12 71.65 334.26 70.67 339.28 C 65.62 335.02 61.41 329.89 56.69 325.29 C 53.94 322.43 50.98 319.60 49.29 315.95 C 50.04 312.42 53.05 309.93 55.38 307.37 Z" />
<path fill="#000000" d=" M 412.41 322.82 C 412.18 317.19 411.20 311.40 412.83 305.90 C 417.39 307.43 417.74 313.10 416.86 317.09 C 416.46 319.68 414.30 321.29 412.41 322.82 Z" />
<path fill="#000000" d=" M 63.27 321.79 C 60.93 317.04 61.49 310.85 65.23 306.95 C 67.41 309.04 67.33 312.20 67.43 315.00 C 67.44 317.95 67.44 320.98 66.47 323.81 C 65.04 324.07 63.82 323.02 63.27 321.79 Z" />
<path fill="#000000" d=" M 457.21 311.25 C 461.52 308.29 467.08 308.92 472.03 309.09 C 475.17 309.08 477.63 311.31 480.00 313.09 L 480.00 314.87 C 477.23 318.60 472.20 318.87 467.97 319.09 C 463.81 319.00 459.06 319.07 455.70 316.26 C 453.98 314.61 455.67 312.29 457.21 311.25 Z" />
<path fill="#000000" d=" M 6.52 310.71 C 11.76 309.88 17.53 310.02 22.19 312.82 C 23.78 313.66 25.00 316.01 23.30 317.41 C 17.20 322.59 8.20 321.93 1.41 318.51 C -1.10 314.92 2.62 310.60 6.52 310.71 Z" />
<path fill="#ffffff" d=" M 407.96 347.02 C 408.40 344.13 410.31 341.80 411.90 339.45 C 413.09 346.79 410.21 353.84 408.07 360.71 C 407.89 356.15 407.28 351.56 407.96 347.02 Z" />
<path fill="#ffffff" d=" M 67.27 348.49 C 66.95 346.39 66.79 344.13 67.88 342.21 C 70.02 343.44 71.08 345.79 71.42 348.15 C 72.03 352.25 72.46 356.52 71.28 360.56 C 68.83 356.99 67.97 352.68 67.27 348.49 Z" />
<path fill="#ffffff" d=" M 69.50 379.15 C 69.53 377.67 70.95 376.93 71.84 375.98 C 72.09 381.78 72.11 387.60 71.83 393.40 C 69.36 389.12 69.01 383.96 69.50 379.15 Z" />
<path fill="#ffffff" d=" M 408.32 376.40 C 410.77 381.00 410.16 386.90 408.29 391.62 C 407.27 386.63 407.22 381.39 408.32 376.40 Z" />
<path fill="#ffffff" d=" M 62.02 406.93 C 63.79 402.36 65.34 397.62 68.26 393.63 C 70.24 396.81 74.27 397.93 75.80 401.55 C 71.51 404.04 66.74 405.49 62.02 406.93 Z" />
<path fill="#ffffff" d=" M 407.09 401.99 C 402.11 399.94 408.08 393.03 411.65 394.32 C 414.55 397.71 415.76 402.20 417.31 406.31 C 413.80 405.13 410.32 403.82 407.09 401.99 Z" />
<path fill="#4b4b4b" d=" M 385.87 396.88 C 391.60 394.94 397.76 395.31 403.55 396.78 C 403.33 396.78 402.88 396.80 402.66 396.81 C 397.06 396.99 391.46 396.86 385.87 396.88 Z" />
<path fill="#ffffff" d=" M 299.55 397.43 C 310.98 396.08 322.53 396.58 334.02 396.46 C 338.74 396.57 343.55 396.25 348.17 397.47 C 345.81 402.23 340.82 404.57 337.26 408.26 C 333.25 411.85 329.74 416.22 324.86 418.69 C 323.64 419.53 322.37 418.25 321.31 417.75 C 317.97 415.45 315.34 412.33 312.35 409.63 C 308.13 405.52 303.24 402.07 299.55 397.43 Z" />
<path fill="#ffffff" d=" M 76.37 397.69 C 82.12 397.31 87.90 397.37 93.66 397.65 C 90.79 400.34 86.64 400.26 82.98 400.09 C 80.60 399.96 78.06 399.53 76.37 397.69 Z" />
<path fill="#ffffff" d=" M 109.33 397.65 C 116.22 397.36 125.03 396.04 129.52 402.70 C 122.65 402.15 115.20 401.55 109.33 397.65 Z" />
<path fill="#ffffff" d=" M 132.08 398.38 C 134.89 397.17 137.97 397.47 140.94 397.46 C 151.62 397.48 162.30 397.47 172.97 397.46 C 175.16 397.45 177.32 397.74 179.48 398.08 C 177.02 402.31 172.95 405.17 169.48 408.50 C 165.59 411.91 162.01 415.69 157.89 418.84 C 156.87 419.50 155.56 420.80 154.35 419.66 C 151.37 417.71 149.08 414.92 146.49 412.50 C 142.66 408.64 138.42 405.24 134.28 401.73 C 133.36 400.76 131.92 399.90 132.08 398.38 Z" />
<path fill="#ffffff" d=" M 182.90 402.46 C 184.12 399.15 187.47 397.29 190.86 397.07 C 194.75 396.90 198.67 396.93 202.56 397.19 C 196.83 400.97 189.65 402.15 182.90 402.46 Z" />
<path fill="#ffffff" d=" M 277.47 397.16 C 283.99 396.29 293.33 394.79 297.25 401.55 C 290.53 401.66 283.34 400.60 277.47 397.16 Z" />
<path fill="#ffffff" d=" M 351.00 401.32 C 354.83 394.71 363.63 396.25 369.92 397.27 C 364.14 400.21 357.47 401.49 351.00 401.32 Z" />
<path fill="#ffffff" d=" M 385.87 396.88 C 391.46 396.86 397.06 396.99 402.66 396.81 C 397.66 399.56 390.89 399.57 385.87 396.88 Z" />
<path fill="#000000" d=" M 315.59 401.84 C 321.22 400.80 327.73 399.75 332.96 402.65 C 328.55 407.18 318.49 408.67 315.59 401.84 Z" />
<path fill="#000000" d=" M 146.60 403.57 C 152.25 401.08 158.89 401.93 164.87 402.70 C 160.67 408.53 151.49 408.55 146.60 403.57 Z" />
<path fill="#ffffff" d=" M 437.74 410.95 C 437.62 408.18 440.25 405.82 443.00 406.35 C 447.71 407.04 451.42 410.69 454.07 414.43 C 450.32 413.69 446.91 410.81 442.95 411.63 C 440.53 412.29 441.46 414.93 441.65 416.72 C 443.09 415.97 444.50 415.14 445.99 414.48 C 449.41 415.59 452.81 419.13 452.03 422.95 C 451.33 425.65 448.05 424.94 446.37 423.67 C 442.14 420.72 437.90 416.42 437.74 410.95 Z" />
<path fill="#ffffff" d=" M 34.10 408.11 C 37.04 407.15 42.11 408.03 41.77 412.05 C 41.33 417.61 37.69 423.09 32.51 425.30 C 30.44 426.31 26.92 425.91 26.77 423.06 C 27.06 419.67 30.14 417.36 32.99 416.00 C 34.87 416.18 36.80 418.06 38.56 416.61 C 39.77 415.18 38.69 413.14 36.96 412.93 C 32.78 412.13 29.24 415.12 25.29 415.86 C 27.24 412.40 30.37 409.50 34.10 408.11 Z" />
<path fill="#ffffff" d=" M 426.99 415.81 C 433.81 418.20 439.19 423.26 445.58 426.49 C 448.36 428.08 451.61 427.18 454.60 426.94 C 454.90 429.27 455.21 431.67 454.66 434.00 C 452.87 435.96 449.66 435.18 447.39 436.37 C 447.02 438.32 447.02 440.31 446.85 442.29 C 443.91 442.81 440.92 442.75 437.97 442.49 C 438.90 440.50 440.53 438.40 439.49 436.11 C 436.82 428.47 429.78 423.37 426.99 415.81 Z" />
<path fill="#ffffff" d=" M 34.86 427.57 C 40.50 424.10 45.33 419.12 51.82 417.18 C 50.18 422.76 46.46 427.37 42.53 431.52 C 39.54 434.90 39.48 439.74 41.22 443.72 C 38.28 443.96 35.30 444.16 32.38 443.65 C 32.12 441.34 33.44 438.41 31.26 436.72 C 29.35 435.15 26.74 436.25 24.53 436.22 C 24.26 433.57 24.23 430.89 24.62 428.25 C 28.02 428.27 31.80 429.68 34.86 427.57 Z" />
<path fill="#000000" d=" M 436.28 426.79 C 438.50 423.67 441.37 427.21 443.24 428.84 C 445.00 430.55 441.61 431.81 440.83 433.07 C 440.16 430.40 438.36 428.45 436.28 426.79 Z" />
<path fill="#000000" d=" M 34.72 430.79 C 37.88 430.20 39.64 424.99 43.04 427.06 C 42.38 429.86 38.67 431.01 38.43 434.29 C 37.16 433.16 35.92 431.99 34.72 430.79 Z" />
<path fill="#ffffff" d=" M 420.41 426.56 C 422.68 425.12 425.45 426.41 427.70 427.26 C 432.11 428.87 435.28 432.78 436.88 437.10 C 435.89 438.94 434.28 440.78 432.16 441.24 C 430.24 440.00 428.56 438.40 427.20 436.57 C 425.04 434.41 428.44 431.95 427.59 429.49 C 425.88 428.63 423.56 429.26 422.60 430.92 C 422.50 435.31 425.98 438.75 426.46 443.06 C 423.32 440.63 420.38 437.65 418.79 433.96 C 418.32 431.49 418.48 428.39 420.41 426.56 Z" />
<path fill="#ffffff" d=" M 43.86 435.89 C 46.57 431.04 51.71 427.86 57.03 426.61 C 59.88 427.56 62.44 430.83 61.46 433.95 C 60.10 437.80 57.10 440.90 53.67 443.03 C 54.19 439.60 56.51 436.66 56.69 433.18 C 56.86 430.45 51.77 429.03 51.11 431.92 C 51.93 433.01 52.90 433.98 53.82 435.00 C 52.08 437.87 49.76 441.41 45.94 441.22 C 43.42 440.94 42.59 437.80 43.86 435.89 Z" />
<path fill="#ffffff" d=" M 448.98 438.89 C 448.33 436.99 449.02 436.22 451.07 436.59 C 454.76 438.85 457.93 442.46 458.90 446.75 C 454.80 445.49 451.05 442.67 448.98 438.89 Z" />
<path fill="#ffffff" d=" M 20.33 447.71 C 22.83 443.62 25.91 439.52 30.32 437.38 C 31.22 441.26 27.78 443.99 25.16 446.20 C 23.86 447.45 22.06 447.71 20.33 447.71 Z" />
<path fill="#000000" d=" M 154.16 444.01 C 155.67 442.48 157.95 443.61 158.83 445.23 C 161.56 449.63 161.79 455.18 160.88 460.15 C 160.29 463.05 159.01 466.43 155.95 467.48 C 152.03 467.06 151.57 462.14 151.02 459.05 C 150.67 454.03 150.01 447.71 154.16 444.01 Z" />
<path fill="#000000" d=" M 322.30 444.08 C 324.84 441.78 327.53 445.24 328.35 447.53 C 330.94 453.98 330.38 462.60 324.94 467.43 C 320.68 467.38 319.47 462.35 318.91 458.98 C 318.41 453.93 318.39 447.86 322.30 444.08 Z" />
</svg>
