<?xml version="1.0" encoding="UTF-8" ?>
<!DOCTYPE svg PUBLIC "-//W3C//DTD SVG 1.1//EN" "http://www.w3.org/Graphics/SVG/1.1/DTD/svg11.dtd">
<svg width="403pt" height="70pt" viewBox="0 0 403 70" version="1.1" xmlns="http://www.w3.org/2000/svg">
<path fill="#030000" d=" M 0.00 0.00 L 403.00 0.00 L 403.00 70.00 L 0.00 70.00 L 0.00 0.00 Z" />
<path fill="#8f1513" d=" M 22.35 3.73 C 28.74 2.87 35.20 3.44 41.61 3.49 C 41.66 7.01 41.68 10.53 41.67 14.04 C 36.91 12.60 31.99 10.99 26.95 11.67 C 21.51 12.16 16.51 16.45 15.69 21.94 C 14.43 29.14 17.31 36.52 22.02 41.91 C 29.14 49.87 38.90 55.62 49.54 57.10 C 49.59 60.11 49.62 63.13 49.64 66.15 C 36.23 64.25 23.54 57.55 14.35 47.60 C 8.25 41.05 4.69 32.06 5.30 23.06 C 5.17 13.57 13.29 5.35 22.35 3.73 Z" />
<path fill="#8f1513" d=" M 111.24 3.51 C 123.70 3.48 136.16 3.35 148.62 3.64 C 148.61 6.94 148.60 10.23 148.60 13.52 C 139.49 11.16 129.75 10.89 120.55 12.78 C 121.87 13.71 123.17 14.94 124.93 14.73 C 134.43 14.95 143.99 14.11 153.44 15.51 C 153.07 18.58 152.71 21.64 152.41 24.72 C 142.37 22.17 131.90 23.69 121.67 23.40 C 122.08 37.74 120.58 52.21 122.85 66.45 C 118.97 66.45 115.10 66.45 111.22 66.45 C 111.42 60.28 112.51 54.15 112.07 47.96 C 111.25 33.16 112.31 18.30 111.24 3.51 Z" />
<path fill="#8f1513" d=" M 161.27 3.53 C 173.73 3.47 186.20 3.46 198.66 3.51 C 198.69 6.79 198.70 10.06 198.72 13.33 C 190.95 11.33 182.84 11.40 174.89 11.87 C 173.16 11.68 172.79 13.52 171.99 14.60 C 182.46 15.12 192.99 14.07 203.43 15.33 C 202.95 18.10 204.40 21.86 202.32 24.01 C 192.20 22.94 182.02 23.37 171.87 23.37 C 172.62 30.43 171.25 37.51 172.08 44.57 C 180.94 44.46 189.91 45.37 198.66 43.52 C 199.08 46.61 199.13 49.73 198.78 52.83 C 186.32 53.83 173.80 53.66 161.32 53.24 C 163.15 42.57 162.04 31.72 162.36 20.96 C 162.56 15.12 162.24 9.29 161.27 3.53 Z" />
<path fill="#8f1513" d=" M 255.23 3.51 C 267.68 3.53 280.12 3.50 292.57 3.53 C 292.58 6.89 292.58 10.24 292.58 13.60 C 284.86 11.57 276.81 11.42 268.89 11.84 C 267.07 11.69 265.66 12.87 264.84 14.40 C 275.66 15.53 286.60 13.84 297.38 15.43 C 297.06 18.59 296.78 21.75 296.56 24.92 C 290.61 22.64 284.16 23.54 277.95 23.35 C 274.15 23.39 270.32 23.06 266.55 23.63 C 266.39 23.90 266.05 24.44 265.88 24.71 C 265.19 31.32 265.81 37.99 265.63 44.63 C 274.56 45.97 283.82 45.81 292.57 43.45 C 292.58 46.79 292.57 50.14 292.55 53.49 C 280.12 53.44 267.68 53.76 255.25 53.26 C 255.97 44.86 255.75 36.43 255.76 28.01 C 255.74 19.85 255.98 11.66 255.23 3.51 Z" />
<path fill="#8f1513" d=" M 82.37 7.26 C 87.30 4.44 93.01 3.67 98.57 3.19 C 96.99 12.37 97.75 21.70 97.59 30.96 C 97.62 38.41 97.17 45.92 98.62 53.29 C 94.79 53.45 90.97 53.56 87.15 53.58 C 87.55 49.29 87.73 44.99 87.71 40.69 C 80.97 40.64 74.24 40.65 67.50 40.70 C 67.39 44.93 67.50 49.17 67.83 53.38 C 63.88 53.52 59.93 53.60 55.98 53.59 C 57.03 48.49 57.61 43.31 58.73 38.24 C 62.25 25.42 70.45 13.53 82.37 7.26 Z" />
<path fill="#8f1513" d=" M 234.10 3.65 C 237.99 3.54 241.88 3.48 245.77 3.46 C 243.88 15.24 245.34 27.18 244.34 39.00 C 242.51 52.74 229.98 63.11 216.64 64.96 C 215.24 62.39 213.93 59.77 212.75 57.09 C 224.11 56.33 234.41 46.66 234.54 35.05 C 234.48 24.59 234.86 14.10 234.10 3.65 Z" />
<path fill="#8f1513" d=" M 306.62 16.00 C 306.68 11.86 306.05 7.76 305.25 3.71 C 317.98 3.69 330.77 2.87 343.45 4.12 C 343.38 7.24 343.33 10.35 343.28 13.46 C 334.49 11.38 325.36 11.35 316.41 12.16 C 316.43 12.80 316.48 14.09 316.51 14.73 C 326.78 15.13 337.12 14.09 347.35 15.31 C 347.29 18.44 347.27 21.58 347.27 24.71 C 337.18 22.27 326.74 23.75 316.49 23.36 C 315.16 32.53 316.00 41.81 315.69 51.04 C 315.52 56.28 316.32 61.49 317.66 66.54 C 313.45 66.63 309.23 66.45 305.06 65.91 C 306.03 63.03 306.61 60.02 306.58 56.98 C 306.59 43.32 306.51 29.66 306.62 16.00 Z" />
<path fill="#8f1513" d=" M 356.16 3.57 C 368.62 3.75 381.14 2.85 393.57 4.20 C 393.53 7.31 393.51 10.42 393.49 13.53 C 384.42 11.21 374.89 11.15 365.67 12.57 C 366.54 15.00 369.03 14.69 371.03 14.81 C 379.93 14.92 388.85 14.32 397.73 15.24 C 397.68 18.40 397.66 21.56 397.63 24.72 C 387.43 22.38 376.91 23.63 366.55 23.45 C 366.55 30.64 366.57 37.83 366.53 45.02 C 375.52 45.57 384.71 45.93 393.48 43.50 C 393.49 46.79 393.51 50.07 393.52 53.35 C 381.06 53.66 368.60 53.42 356.14 53.55 C 356.87 45.40 356.62 37.21 356.68 29.04 C 356.66 20.55 356.94 12.04 356.16 3.57 Z" />
<path fill="#030000" d=" M 71.00 32.30 C 73.86 23.98 80.08 17.16 87.59 12.73 C 87.77 19.19 87.76 25.66 87.65 32.13 C 82.11 32.51 76.55 32.50 71.00 32.30 Z" />
<path fill="#8f1513" d=" M 55.27 59.09 C 69.72 58.26 84.21 58.94 98.67 58.72 C 98.32 61.16 97.90 63.59 97.52 66.03 C 83.95 66.84 70.33 66.49 56.74 66.24 C 56.26 63.86 55.75 61.48 55.27 59.09 Z" />
<path fill="#8f1513" d=" M 162.49 66.23 C 162.00 63.74 161.54 61.25 161.21 58.74 C 173.68 58.71 186.15 58.73 198.62 58.73 C 198.66 61.22 198.68 63.72 198.69 66.22 C 186.63 66.62 174.55 66.58 162.49 66.23 Z" />
<path fill="#8f1513" d=" M 254.24 59.28 C 266.95 58.09 279.76 59.05 292.51 58.75 C 292.54 61.32 292.57 63.90 292.59 66.48 C 280.57 66.40 268.54 66.71 256.51 66.41 C 255.74 64.04 254.97 61.66 254.24 59.28 Z" />
<path fill="#8f1513" d=" M 355.22 59.20 C 362.12 58.36 369.08 58.87 376.01 58.74 C 382.00 58.65 387.99 58.74 393.95 59.41 C 392.68 61.77 391.41 64.13 390.12 66.48 C 379.20 66.57 368.28 66.44 357.36 66.56 C 356.64 64.10 355.90 61.66 355.22 59.20 Z" />
</svg>
