<?xml version="1.0" standalone="no"?>
<!DOCTYPE svg PUBLIC "-//W3C//DTD SVG 20010904//EN"
 "http://www.w3.org/TR/2001/REC-SVG-20010904/DTD/svg10.dtd">
<svg version="1.0" xmlns="http://www.w3.org/2000/svg"
 width="470.000000pt" height="450.000000pt" viewBox="0 0 470.000000 450.000000"
 preserveAspectRatio="xMidYMid meet">
<metadata>
Created by potrace 1.12, written by Peter Selinger 2001-2015
</metadata>
<g transform="translate(0.000000,450.000000) scale(0.100000,-0.100000)"
fill="#000000" stroke="none">
<path d="M0 2250 l0 -2250 624 0 625 0 -15 28 c-33 64 -5 186 39 169 37 -14
44 -140 9 -179 -14 -17 67 -18 1701 -18 l1717 0 0 610 c0 336 -4 610 -8 610
-4 0 -13 -5 -19 -11 -5 -5 -37 -10 -70 -11 -92 -1 -131 31 -81 66 30 21 126
21 156 0 l22 -15 0 495 0 495 -27 -15 c-56 -29 -173 -11 -173 26 0 37 117 55
173 26 l27 -15 0 491 c0 463 -1 490 -17 482 -37 -17 -133 -16 -158 0 -55 36
-16 69 78 67 33 0 65 -5 71 -11 5 -5 14 -10 18 -10 4 0 8 275 8 610 l0 610
-1711 0 c-1626 0 -1711 -1 -1704 -17 30 -74 24 -166 -12 -180 -44 -17 -72 105
-39 170 l15 27 -625 0 -624 0 0 -2250z m2380 2221 c5 -11 10 -45 10 -76 0 -85
-32 -123 -66 -77 -16 20 -18 110 -4 146 11 31 45 35 60 7z m1106 -16 c17 -41
18 -81 3 -123 -29 -83 -88 -19 -76 84 8 78 48 99 73 39z m-3375 -35 c60 -51
134 -90 170 -90 19 0 34 9 47 28 21 28 82 69 82 54 0 -4 -13 -21 -30 -37 -16
-16 -30 -32 -30 -36 0 -4 18 -7 40 -7 44 -1 101 -30 125 -65 8 -12 15 -38 15
-59 0 -27 4 -38 15 -38 8 0 15 5 15 12 0 6 3 8 6 5 15 -15 -21 -36 -72 -43
-30 -3 -54 -11 -54 -16 0 -5 21 -30 48 -56 55 -54 122 -82 199 -82 47 0 55 -3
79 -34 24 -29 31 -33 56 -26 15 5 41 18 57 29 16 12 71 30 126 40 97 20 107
24 158 70 38 35 37 81 -4 115 -36 31 -78 33 -110 7 -23 -19 -23 -20 -4 -26 39
-13 50 -22 53 -49 3 -20 -2 -28 -22 -36 -34 -13 -56 -3 -71 32 -16 39 -9 71
22 100 19 18 35 23 76 22 48 0 53 -3 94 -49 47 -54 61 -54 43 -1 -20 62 -68
91 -185 111 -34 6 -37 8 -21 17 43 24 182 -21 207 -68 16 -30 23 -30 43 1 31
48 147 85 201 65 24 -10 11 -15 -54 -25 -88 -12 -131 -45 -151 -114 -11 -41 9
-42 32 -2 24 44 65 66 117 65 37 -1 49 -7 73 -33 30 -34 33 -46 18 -85 -13
-35 -46 -51 -76 -37 -44 19 -26 81 23 81 30 0 29 15 -2 36 -52 34 -135 -10
-135 -71 0 -30 18 -53 71 -93 9 -7 59 -21 110 -33 59 -12 109 -30 134 -47 38
-26 46 -27 160 -27 115 0 122 1 161 28 27 18 69 33 125 43 46 9 97 23 113 31
89 46 102 129 25 169 -34 17 -69 13 -94 -13 -16 -15 -15 -17 17 -27 36 -12 49
-46 28 -72 -31 -37 -94 3 -94 59 0 44 25 73 75 88 31 10 43 9 75 -7 21 -11 49
-35 62 -54 26 -38 39 -41 34 -7 -8 64 -73 113 -161 124 -72 8 -74 23 -4 23 71
0 132 -26 163 -70 l22 -31 19 31 c26 42 90 70 162 70 68 0 68 -14 0 -24 -78
-10 -129 -41 -154 -92 -27 -58 -12 -83 19 -30 27 46 62 67 111 68 91 1 139
-81 83 -144 -32 -37 -87 -13 -80 34 2 16 13 26 36 33 41 12 40 21 -4 42 -34
17 -37 17 -72 -2 -41 -22 -58 -58 -48 -99 8 -32 83 -83 135 -92 88 -14 157
-36 187 -59 31 -24 40 -25 156 -25 119 0 124 1 165 29 27 18 67 33 110 41 100
17 131 29 169 62 45 40 48 95 8 127 -29 23 -74 27 -105 11 -26 -15 -24 -27 6
-34 52 -13 50 -86 -2 -86 -39 0 -63 27 -63 71 0 105 163 120 215 19 31 -59 48
-26 19 36 -21 44 -68 72 -143 85 -70 13 -81 29 -20 29 65 0 120 -21 160 -61
l36 -36 29 34 c34 40 90 62 157 63 66 0 59 -16 -14 -29 -98 -17 -159 -68 -159
-133 0 -19 6 -15 44 27 42 49 45 50 99 50 65 0 93 -20 103 -71 9 -46 -16 -84
-55 -84 -59 0 -68 55 -14 80 37 17 37 31 1 44 -73 26 -146 -37 -119 -102 19
-46 77 -80 162 -97 87 -16 121 -28 159 -55 33 -23 80 -27 80 -6 0 23 47 46 94
46 68 0 152 36 203 86 23 24 43 48 43 53 0 5 -21 13 -47 16 -55 7 -75 16 -81
36 -4 11 -2 12 9 2 22 -21 29 -15 29 23 0 54 67 119 133 128 26 4 47 11 47 15
0 4 -13 17 -30 29 -16 13 -30 27 -30 33 0 17 58 -20 82 -51 37 -50 103 -36
200 43 94 76 105 72 32 -13 -83 -97 -107 -174 -61 -199 24 -13 70 -72 62 -80
-3 -2 -20 10 -38 27 -18 18 -36 32 -40 32 -4 0 -7 -19 -7 -41 0 -78 -59 -139
-135 -139 -37 0 -43 -8 -23 -28 9 -9 9 -12 0 -12 -16 0 -32 42 -32 85 0 19 -5
37 -10 40 -6 3 -34 -18 -64 -48 -59 -59 -86 -123 -86 -204 0 -36 -5 -46 -30
-65 -37 -27 -38 -49 -1 -107 18 -28 33 -73 41 -116 16 -92 41 -147 78 -173 39
-28 74 -28 106 1 39 33 44 77 12 113 l-25 29 -1 -26 c0 -31 -17 -49 -45 -49
-46 0 -62 57 -23 84 51 36 120 11 137 -49 17 -61 -11 -120 -72 -151 -35 -18
-27 -35 12 -24 68 19 102 62 116 145 4 22 9 49 12 59 11 38 25 -13 18 -62 -9
-60 -37 -115 -72 -140 l-28 -20 28 -22 c48 -38 84 -133 71 -186 -9 -36 -21
-20 -28 39 -11 87 -53 139 -124 153 -43 9 -40 -6 7 -35 46 -28 61 -56 61 -116
0 -36 -5 -47 -31 -69 -37 -32 -81 -34 -110 -5 -24 24 -22 67 2 82 22 14 69
-16 69 -43 0 -42 36 -13 46 37 5 25 0 37 -23 63 -44 49 -85 46 -133 -8 -31
-34 -40 -57 -60 -142 -15 -67 -30 -111 -46 -130 -22 -25 -24 -38 -24 -122 0
-84 3 -98 24 -127 14 -19 28 -48 31 -65 31 -149 38 -169 72 -207 28 -31 42
-39 70 -39 64 0 104 72 73 131 -14 26 -27 24 -34 -6 -14 -56 -86 -52 -86 5 0
61 81 81 131 31 24 -24 29 -38 29 -76 0 -40 -5 -52 -33 -79 -18 -17 -41 -36
-52 -42 -30 -18 -11 -27 28 -15 34 12 76 50 95 86 5 11 13 44 17 73 4 28 11
52 16 52 5 0 9 -24 9 -52 0 -67 -30 -133 -70 -156 -16 -9 -30 -19 -30 -22 0
-3 14 -13 30 -22 40 -23 70 -89 70 -155 0 -29 -4 -53 -9 -53 -5 0 -12 24 -16
53 -4 28 -12 61 -17 72 -19 36 -61 74 -95 86 -39 12 -58 3 -28 -15 11 -6 34
-25 52 -42 28 -27 33 -39 33 -79 0 -38 -5 -52 -29 -76 -50 -50 -131 -30 -131
31 0 57 72 61 86 5 7 -30 20 -32 34 -6 31 59 -9 131 -73 131 -28 0 -42 -8 -70
-39 -34 -38 -41 -58 -72 -207 -3 -17 -17 -46 -31 -65 -21 -29 -24 -43 -24
-127 0 -84 2 -97 24 -122 16 -19 31 -63 46 -130 20 -85 29 -108 60 -142 48
-54 89 -57 133 -8 23 26 28 38 23 63 -11 53 -42 76 -48 35 -2 -12 -15 -29 -30
-37 -33 -19 -58 -2 -58 40 0 59 78 78 131 31 55 -49 39 -139 -31 -182 -62 -38
-46 -55 24 -26 46 19 73 58 86 124 18 86 21 91 31 63 19 -49 -18 -151 -68
-191 l-28 -22 28 -20 c35 -25 63 -80 72 -140 7 -49 -7 -100 -18 -62 -3 10 -8
37 -12 59 -14 83 -48 126 -116 145 -39 11 -47 -6 -12 -24 61 -31 89 -90 72
-151 -17 -60 -86 -85 -137 -49 -39 27 -23 84 23 84 28 0 45 -18 45 -49 l1 -26
25 29 c32 36 27 80 -12 113 -32 29 -67 29 -106 1 -37 -26 -62 -81 -78 -173 -8
-43 -23 -88 -41 -116 -37 -58 -36 -80 1 -107 25 -19 30 -29 30 -65 0 -81 27
-145 86 -204 30 -30 58 -51 64 -48 5 3 10 21 10 40 0 43 16 85 32 85 9 0 9 -3
0 -12 -20 -20 -14 -28 23 -28 76 0 135 -61 135 -139 0 -22 3 -41 7 -41 4 0 22
14 40 32 18 17 35 29 38 27 8 -8 -38 -67 -62 -80 -46 -25 -22 -102 61 -199 73
-85 62 -89 -32 -13 -97 79 -163 93 -200 43 -23 -31 -82 -68 -82 -51 0 5 17 22
37 39 l37 30 -54 7 c-46 6 -62 14 -97 50 -35 34 -43 49 -43 79 0 38 -7 44 -29
24 -11 -11 -13 -10 -9 1 6 20 26 29 81 36 26 3 47 10 47 15 0 4 -19 28 -43 53
-50 51 -133 87 -203 87 -47 0 -94 23 -94 46 0 21 -47 17 -80 -6 -38 -27 -72
-39 -158 -55 -84 -16 -136 -44 -157 -85 -21 -41 -19 -58 14 -91 21 -21 39 -29
63 -29 31 0 81 23 68 32 -3 2 -18 10 -35 18 -52 27 -41 80 16 80 39 0 64 -38
55 -84 -10 -51 -38 -71 -103 -71 -54 0 -57 1 -99 50 -38 42 -44 46 -44 27 0
-65 61 -116 159 -133 73 -13 80 -29 14 -29 -67 1 -123 23 -157 63 l-29 34 -36
-36 c-40 -40 -95 -61 -160 -61 -60 0 -50 15 19 28 76 14 123 42 144 86 29 62
12 95 -19 36 -36 -69 -128 -91 -184 -44 -55 46 -35 134 30 134 54 0 57 -73 4
-86 -30 -7 -32 -19 -6 -34 31 -16 76 -12 105 11 40 32 37 87 -8 127 -38 33
-69 45 -169 62 -43 8 -83 23 -110 41 -41 28 -46 29 -165 29 -116 0 -125 -1
-156 -25 -18 -14 -64 -32 -102 -41 -138 -31 -153 -37 -188 -69 -44 -40 -48
-83 -12 -120 33 -33 67 -40 105 -21 39 21 39 29 -1 41 -54 16 -48 85 7 85 59
0 80 -95 30 -137 -14 -13 -36 -23 -48 -24 -72 -4 -107 13 -139 67 -31 53 -46
28 -19 -30 25 -51 76 -82 154 -92 67 -9 69 -24 3 -24 -70 0 -129 23 -161 64
l-25 31 -25 -31 c-32 -41 -91 -64 -161 -64 -68 0 -63 15 7 23 87 11 152 60
161 123 5 34 -9 32 -34 -6 -13 -19 -41 -43 -62 -54 -32 -16 -44 -17 -75 -7
-50 15 -75 44 -75 88 0 54 59 94 92 61 29 -29 7 -78 -35 -78 -31 0 -20 -25 18
-40 23 -10 35 -10 59 0 61 25 78 87 36 133 -34 37 -71 53 -165 71 -56 10 -98
25 -125 43 -39 27 -46 28 -161 28 -109 0 -123 -2 -148 -22 -32 -25 -61 -35
-168 -58 -96 -20 -159 -67 -159 -119 0 -62 83 -106 135 -72 31 21 32 36 2 36
-47 0 -66 59 -26 81 29 15 66 -2 79 -37 15 -39 12 -51 -18 -86 -25 -26 -36
-31 -75 -31 -52 0 -91 21 -115 64 -23 40 -43 39 -32 -2 20 -69 63 -102 151
-114 66 -10 78 -15 54 -25 -50 -21 -170 18 -201 65 -20 31 -27 31 -43 1 -25
-47 -164 -92 -207 -68 -16 9 -13 11 21 17 117 20 165 49 185 111 18 54 4 53
-44 -2 -41 -47 -46 -49 -94 -49 -81 0 -125 56 -97 123 15 35 37 45 71 32 20
-8 25 -16 22 -36 -3 -27 -14 -36 -53 -49 -19 -6 -19 -7 4 -26 34 -28 77 -24
112 10 38 38 39 79 2 112 -51 46 -61 50 -158 70 -55 10 -110 28 -126 40 -16
11 -42 24 -57 29 -25 7 -32 3 -56 -26 -24 -31 -32 -34 -79 -34 -78 0 -145 -27
-199 -83 -27 -27 -48 -52 -48 -56 0 -5 23 -11 51 -14 52 -6 80 -21 78 -41 0
-7 -2 -6 -6 2 -2 6 -11 12 -19 12 -10 0 -14 -12 -14 -38 0 -21 -7 -47 -15 -59
-24 -35 -81 -64 -125 -65 -22 0 -40 -3 -40 -7 0 -4 13 -20 30 -36 16 -16 30
-33 30 -37 0 -15 -61 26 -82 55 -35 48 -110 27 -216 -62 -29 -24 -55 -42 -57
-39 -3 3 15 30 40 59 52 60 79 108 88 156 5 27 2 35 -28 58 -37 27 -61 63 -50
73 3 4 17 -8 31 -26 14 -18 30 -32 35 -32 5 0 9 21 9 46 0 42 5 51 44 90 37
38 49 44 85 44 42 0 50 7 29 28 -9 9 -9 12 0 12 16 0 32 -33 33 -67 0 -15 4
-37 8 -48 7 -18 13 -14 63 35 61 61 88 123 88 200 0 45 25 90 50 90 19 0 10
54 -15 86 -17 22 -32 65 -45 123 -22 106 -39 142 -79 170 -37 26 -71 27 -104
1 -34 -27 -43 -70 -22 -109 20 -39 29 -39 40 2 16 52 85 47 85 -6 0 -33 -29
-57 -69 -57 -69 0 -106 54 -90 130 8 34 27 56 79 92 l25 17 -34 0 c-60 1 -130
-92 -131 -174 0 -11 -4 -26 -9 -33 -6 -10 -10 -7 -15 13 -15 60 25 163 74 194
l29 17 -30 18 c-50 29 -90 133 -74 193 9 35 20 17 29 -49 12 -80 82 -154 138
-146 21 3 19 6 -18 31 -50 34 -69 67 -68 119 2 53 39 92 88 92 38 0 76 -27 76
-54 0 -58 -75 -66 -87 -10 -3 17 -9 30 -14 30 -12 0 -39 -42 -39 -63 0 -56 65
-106 113 -88 53 21 80 69 106 190 14 63 28 102 46 122 23 28 25 39 25 121 0
83 -2 95 -29 137 -17 28 -35 77 -45 124 -25 125 -69 187 -132 187 -62 0 -104
-74 -74 -131 14 -25 38 -24 42 2 2 12 12 28 23 35 18 12 24 11 43 -2 45 -32
11 -94 -52 -94 -106 0 -128 152 -30 209 41 25 45 44 7 35 -62 -14 -108 -66
-119 -134 -10 -66 -14 -80 -24 -80 -13 0 -13 65 1 115 6 22 28 56 49 77 l38
38 -38 38 c-21 21 -43 55 -49 77 -14 50 -14 115 -1 115 10 0 14 -14 24 -80 11
-68 57 -120 119 -134 38 -9 34 10 -7 35 -98 57 -76 209 30 209 63 0 97 -62 52
-94 -19 -13 -25 -14 -43 -2 -11 7 -21 23 -23 35 -4 26 -28 27 -42 2 -29 -55
12 -131 71 -131 67 0 109 58 135 188 10 46 28 95 45 123 27 42 29 54 29 137 0
82 -2 93 -25 121 -18 20 -32 59 -46 122 -26 121 -53 169 -106 190 -48 18 -113
-32 -113 -88 0 -21 27 -63 39 -63 5 0 11 13 14 30 8 38 53 53 74 25 47 -65
-60 -123 -121 -66 -55 51 -40 133 33 184 41 28 43 32 23 35 -56 8 -126 -66
-138 -146 -9 -66 -20 -84 -29 -49 -16 60 24 164 74 193 l30 18 -29 17 c-50 31
-89 134 -74 195 8 33 19 17 29 -46 4 -25 13 -57 21 -71 21 -43 72 -79 107 -78
l32 0 -25 17 c-52 36 -71 58 -79 92 -16 75 21 130 88 130 57 0 93 -54 59 -88
-25 -25 -58 -14 -74 23 -8 19 -16 35 -19 35 -2 0 -12 -14 -21 -31 -19 -38 -12
-72 21 -105 30 -30 67 -31 106 -3 40 28 55 61 78 168 13 59 29 103 46 125 25
32 34 86 15 86 -25 0 -50 45 -50 90 0 77 -27 139 -88 200 -50 49 -56 53 -63
35 -4 -11 -8 -33 -8 -48 -1 -34 -17 -67 -33 -67 -9 0 -9 3 0 12 21 21 13 28
-30 28 -36 0 -47 6 -85 45 -38 40 -43 51 -43 90 0 53 -11 56 -42 15 -23 -31
-38 -38 -38 -18 0 6 20 30 44 53 42 39 44 43 36 78 -9 40 -58 123 -91 153 -24
21 -43 54 -32 54 3 0 28 -18 54 -40z m65 -1115 c90 -37 -21 -95 -126 -66 -17
5 -26 15 -28 33 -3 23 2 29 30 37 49 14 84 13 124 -4z m12 -1031 c29 -19 28
-30 -5 -51 -30 -20 -117 -22 -151 -4 -24 13 -29 45 -10 57 41 26 124 25 166
-2z m-8 -1017 c39 -20 37 -45 -4 -62 -42 -18 -68 -19 -119 -4 -33 9 -38 14
-35 37 2 18 11 28 28 33 41 11 103 10 130 -4z m3309 -1089 c15 -43 14 -82 -4
-124 -27 -64 -75 -23 -75 64 0 91 54 132 79 60z m-1109 13 c5 -11 10 -45 10
-76 0 -31 -5 -65 -10 -76 -15 -28 -49 -24 -60 7 -14 36 -12 120 2 144 16 25
44 26 58 1z"/>
<path d="M180 4325 c0 -9 62 -75 71 -75 18 0 8 30 -18 55 -25 22 -53 33 -53
20z"/>
<path d="M4481 4294 c-33 -27 -41 -54 -17 -54 15 0 66 55 66 71 0 16 -17 10
-49 -17z"/>
<path d="M275 4280 c9 -29 -12 -51 -41 -44 -22 6 -24 3 -24 -29 0 -35 0 -36
35 -30 29 5 42 0 73 -24 99 -78 137 -85 89 -17 -81 115 -81 113 -69 139 11 24
11 25 -29 25 -36 0 -40 -2 -34 -20z m55 -74 c0 -8 7 -16 15 -20 8 -3 15 -10
15 -16 0 -5 -7 -10 -15 -10 -8 0 -15 4 -15 9 0 5 -9 12 -20 16 -16 5 -17 9 -7
20 16 18 27 19 27 1z"/>
<path d="M455 4260 c19 -37 19 -59 0 -66 -24 -10 -41 7 -21 21 15 11 14 14 -5
39 -14 17 -29 26 -43 24 -50 -7 -16 -76 51 -104 40 -17 38 -17 57 2 23 22 20
48 -10 83 -33 39 -49 40 -29 1z"/>
<path d="M4243 4268 c-44 -48 -47 -97 -8 -112 24 -9 87 27 107 62 17 28 17 30
-3 48 -19 17 -20 17 -47 -9 -23 -24 -25 -30 -14 -47 10 -17 10 -21 -2 -26 -18
-7 -36 3 -36 19 0 7 9 29 19 50 21 42 14 48 -16 15z"/>
<path d="M4368 4278 c22 -22 12 -52 -38 -118 -80 -104 -71 -107 57 -22 41 28
58 33 83 29 29 -6 30 -5 30 28 0 31 -3 34 -32 37 -29 3 -33 6 -31 31 2 25 -1
27 -40 27 -32 0 -38 -3 -29 -12z m39 -79 c9 -9 6 -17 -13 -32 -18 -14 -28 -17
-36 -9 -8 8 -7 13 5 18 9 3 17 12 17 20 0 17 12 18 27 3z"/>
<path d="M243 4153 c-22 -8 -14 -40 13 -62 21 -17 30 -19 41 -9 16 13 39 -3
29 -21 -10 -15 -42 -14 -76 4 -39 20 -38 4 1 -29 69 -58 128 -13 83 64 -14 23
-63 62 -76 59 -1 0 -9 -3 -15 -6z"/>
<path d="M4400 4112 c-78 -78 -24 -156 59 -86 38 32 40 48 4 28 -41 -21 -73
-18 -73 6 0 21 15 27 25 10 4 -7 17 -4 36 7 22 13 29 24 27 43 -5 39 -34 36
-78 -8z"/>
<path d="M1201 4063 c-26 -27 -67 -64 -91 -84 -25 -20 -41 -41 -37 -45 11 -11
362 -12 374 -1 4 5 -10 24 -32 43 -22 19 -63 57 -92 84 -28 28 -57 50 -63 50
-7 0 -33 -21 -59 -47z m115 -74 c8 -6 14 -15 14 -19 0 -5 -118 -6 -140 -1 -3
1 6 11 20 22 26 22 78 21 106 -2z"/>
<path d="M2340 4103 c-8 -3 -36 -26 -62 -52 -25 -25 -63 -60 -84 -77 -22 -18
-34 -36 -30 -42 5 -9 63 -12 192 -12 205 0 217 5 147 57 -21 15 -61 52 -89 81
-29 28 -54 52 -56 51 -1 0 -10 -3 -18 -6z m38 -104 c31 -11 48 -34 32 -44 -5
-3 -20 0 -34 6 -20 10 -32 9 -53 0 -17 -8 -29 -9 -36 -2 -13 13 7 38 36 44 12
2 22 5 23 6 1 0 15 -4 32 -10z"/>
<path d="M3392 4058 c-22 -24 -62 -62 -89 -84 -26 -23 -45 -45 -42 -48 3 -4
93 -5 200 -4 l194 3 -39 35 c-22 19 -62 59 -91 88 -28 28 -61 52 -72 52 -11 0
-38 -19 -61 -42z m114 -72 c28 -21 13 -29 -56 -30 -60 -2 -73 7 -48 32 16 16
80 15 104 -2z"/>
<path d="M512 4002 c2 -4 11 -28 22 -55 17 -43 36 -62 36 -37 0 6 6 10 13 10
11 0 43 39 35 44 -14 10 -109 44 -106 38z"/>
<path d="M4140 3977 c-39 -19 -44 -25 -36 -42 5 -12 19 -26 32 -32 21 -9 24
-7 41 36 10 25 20 49 21 53 6 12 -9 8 -58 -15z"/>
<path d="M947 3956 c-55 -15 -66 -23 -43 -32 26 -10 103 5 128 26 l23 19 -30
0 c-16 0 -51 -6 -78 -13z"/>
<path d="M1482 3958 c3 -7 15 -19 29 -25 27 -14 119 -17 119 -4 0 9 -104 41
-134 41 -10 0 -16 -6 -14 -12z"/>
<path d="M2065 3959 c-22 -5 -50 -11 -62 -14 -40 -9 -24 -25 25 -25 49 0 93
16 100 38 4 14 -6 14 -63 1z"/>
<path d="M2570 3960 c0 -21 47 -40 98 -40 84 0 50 23 -65 44 -18 3 -33 1 -33
-4z"/>
<path d="M3161 3954 c-90 -19 -101 -34 -24 -34 44 0 67 5 84 18 32 27 14 31
-60 16z"/>
<path d="M3686 3941 c17 -19 30 -22 80 -19 58 3 59 4 29 16 -16 8 -52 16 -80
19 l-50 5 21 -21z"/>
<path d="M643 3943 c-28 -11 -9 -18 52 -20 61 -2 84 8 49 21 -18 7 -83 7 -101
-1z"/>
<path d="M3956 3931 c-6 -8 113 -21 124 -13 2 2 -2 7 -10 12 -19 12 -107 13
-114 1z"/>
<path d="M580 3880 c-14 -27 -9 -112 8 -118 9 -3 12 15 12 67 0 39 -2 71 -5
71 -2 0 -9 -9 -15 -20z"/>
<path d="M4121 3826 c-1 -51 2 -67 10 -59 14 14 14 70 0 103 -8 21 -10 13 -10
-44z"/>
<path d="M724 3842 l-41 -3 -7 -808 c-4 -445 -4 -1160 0 -1589 l7 -781 76 -3
c42 -2 796 -1 1676 2 l1600 5 0 1587 0 1588 -1635 2 c-899 2 -1653 2 -1676 0z"/>
<path d="M571 3606 c-18 -45 -26 -116 -13 -116 24 0 46 88 32 125 -7 18 -9 18
-19 -9z"/>
<path d="M4121 3574 c-1 -49 3 -67 20 -85 l20 -24 -5 51 c-2 28 -11 66 -20 85
l-14 34 -1 -61z"/>
<path d="M543 3428 c-15 -17 -52 -54 -80 -83 -63 -61 -66 -84 -17 -122 19 -15
50 -49 69 -75 19 -26 43 -52 55 -58 20 -11 20 -9 20 180 0 111 -4 190 -9 190
-6 0 -22 -14 -38 -32z m12 -153 c0 -67 -14 -85 -35 -46 -20 39 -6 111 23 111
8 0 12 -21 12 -65z"/>
<path d="M4118 3363 c-2 -49 -1 -135 2 -193 l5 -105 40 44 c22 25 61 65 88 90
26 25 47 55 47 65 0 11 -24 42 -52 70 -29 28 -66 66 -81 84 -16 17 -32 32 -37
32 -5 0 -10 -39 -12 -87z m82 -95 c0 -35 -16 -68 -33 -68 -9 0 -12 18 -11 63
2 34 3 64 3 66 1 2 10 -4 21 -14 11 -10 20 -31 20 -47z"/>
<path d="M548 3055 c-8 -8 20 -127 32 -139 19 -19 11 100 -8 124 -9 12 -20 19
-24 15z"/>
<path d="M4130 3030 c-16 -31 -24 -116 -12 -124 12 -7 42 80 42 121 0 28 -16
30 -30 3z"/>
<path d="M574 2595 c-14 -24 -36 -126 -29 -133 2 -3 11 1 19 8 18 14 29 63 24
111 -3 31 -4 32 -14 14z"/>
<path d="M4113 2553 c4 -38 13 -63 26 -77 l21 -20 0 25 c0 39 -29 129 -42 129
-7 0 -9 -19 -5 -57z"/>
<path d="M538 2403 c-18 -21 -57 -61 -85 -90 -29 -29 -53 -57 -53 -63 0 -6 24
-34 53 -63 28 -29 67 -69 85 -90 19 -20 38 -37 43 -37 5 0 9 81 9 190 0 109
-4 190 -9 190 -5 0 -24 -17 -43 -37z m16 -110 c-4 -10 -8 -29 -8 -43 0 -14 4
-33 8 -42 6 -14 4 -18 -11 -18 -18 0 -43 35 -43 60 0 28 22 60 41 60 16 0 19
-4 13 -17z"/>
<path d="M4116 2405 c-10 -50 -6 -319 5 -336 6 -11 17 -4 46 30 21 25 59 65
86 90 26 25 47 54 47 63 0 9 -17 31 -39 48 -21 17 -53 51 -70 76 -18 24 -40
48 -51 54 -15 8 -19 5 -24 -25z m79 -135 c7 -31 -13 -87 -30 -82 -9 2 -15 108
-7 125 7 14 31 -13 37 -43z"/>
<path d="M547 2033 c-8 -13 18 -122 33 -136 19 -19 8 110 -12 129 -9 9 -18 12
-21 7z"/>
<path d="M4136 2021 c-22 -24 -36 -131 -18 -131 14 0 45 102 40 131 l-3 21
-19 -21z"/>
<path d="M4115 1587 c-15 -36 12 -137 37 -137 14 0 4 76 -16 122 -11 28 -15
30 -21 15z"/>
<path d="M576 1581 c-10 -16 -35 -135 -30 -141 3 -3 14 6 25 19 13 16 19 39
19 77 0 53 -3 63 -14 45z"/>
<path d="M4118 1331 c-4 -138 2 -281 12 -281 5 0 21 14 37 32 15 17 52 54 81
83 62 61 65 84 16 122 -19 15 -50 49 -69 75 -19 26 -43 52 -54 57 -19 11 -20
7 -23 -88z m72 -50 c16 -31 12 -76 -10 -96 -11 -10 -20 -16 -21 -14 0 2 -1 32
-3 67 -2 65 12 83 34 43z"/>
<path d="M541 1379 c-20 -23 -57 -62 -83 -88 -27 -25 -48 -55 -48 -65 0 -11
24 -43 53 -71 28 -29 65 -66 80 -83 16 -18 32 -32 38 -32 5 0 9 78 9 190 0
105 -3 190 -7 190 -3 0 -22 -18 -42 -41z m14 -154 c0 -67 -14 -85 -35 -46 -20
39 -6 111 23 111 8 0 12 -21 12 -65z"/>
<path d="M4137 1008 c-13 -19 -17 -41 -15 -85 l3 -58 18 57 c10 32 17 70 15
85 l-3 28 -18 -27z"/>
<path d="M551 983 c1 -42 23 -106 34 -102 12 5 8 85 -6 110 -14 28 -29 23 -28
-8z"/>
<path d="M577 733 c-13 -12 -7 -99 8 -119 13 -17 14 -12 15 54 0 66 -6 83 -23
65z"/>
<path d="M4121 673 c0 -47 3 -62 9 -48 12 28 12 103 0 110 -6 4 -10 -19 -9
-62z"/>
<path d="M4134 596 c-11 -5 -25 -19 -30 -30 -8 -19 -3 -24 40 -44 27 -12 51
-21 53 -19 2 2 -7 26 -19 53 -20 44 -25 48 -44 40z"/>
<path d="M534 553 c-11 -27 -20 -51 -22 -55 -3 -6 92 28 106 38 8 5 -24 44
-35 44 -7 0 -13 5 -13 10 0 25 -19 6 -36 -37z"/>
<path d="M3953 575 c4 -12 71 -19 104 -11 43 11 23 21 -42 21 -39 0 -64 -4
-62 -10z"/>
<path d="M630 569 c0 -11 29 -19 65 -19 39 0 65 8 65 21 0 4 -29 7 -65 6 -36
-1 -65 -5 -65 -8z"/>
<path d="M895 571 c-6 -11 46 -28 115 -38 41 -6 44 -5 31 10 -23 29 -132 49
-146 28z"/>
<path d="M1108 573 c-21 -2 -38 -8 -38 -13 0 -5 21 -26 48 -46 26 -21 65 -57
88 -81 22 -24 46 -43 53 -43 7 0 36 22 64 50 29 27 70 65 92 84 22 19 36 38
32 43 -9 8 -276 14 -339 6z m222 -44 c0 -13 -27 -29 -58 -35 -32 -6 -88 18
-78 34 5 9 136 11 136 1z"/>
<path d="M1511 567 c-14 -6 -26 -18 -29 -26 -4 -11 4 -12 34 -7 62 11 114 28
114 38 0 13 -92 9 -119 -5z"/>
<path d="M1980 571 c0 -6 10 -13 23 -16 127 -29 145 -28 114 2 -20 20 -137 32
-137 14z"/>
<path d="M2164 568 c-4 -6 8 -24 30 -42 21 -17 59 -52 85 -78 30 -31 56 -48
71 -48 15 0 40 17 69 48 26 26 63 60 84 75 70 52 58 57 -147 57 -129 0 -187
-3 -192 -12z m161 -30 c19 -8 31 -8 51 1 29 13 46 7 38 -14 -8 -19 -55 -34
-87 -28 -30 6 -52 27 -42 43 8 13 8 13 40 -2z"/>
<path d="M2589 561 c-13 -11 -22 -22 -19 -25 9 -8 129 19 142 32 22 22 -96 15
-123 -7z"/>
<path d="M3086 570 c13 -13 136 -39 148 -32 5 3 -1 13 -13 24 -17 13 -40 18
-84 18 -42 0 -58 -3 -51 -10z"/>
<path d="M3260 571 c0 -5 21 -27 46 -48 25 -21 64 -57 87 -80 22 -24 49 -43
60 -43 11 0 43 23 72 53 28 28 63 60 78 70 15 10 31 27 37 37 10 20 6 20 -185
20 -113 0 -195 -4 -195 -9z m258 -35 c13 -13 -30 -36 -68 -36 -36 0 -60 14
-60 35 0 11 116 13 128 1z"/>
<path d="M3685 560 c-18 -19 -17 -20 3 -20 35 0 121 21 128 31 3 5 -21 9 -54
9 -46 0 -63 -4 -77 -20z"/>
<path d="M4372 488 c-23 -23 -13 -59 28 -100 42 -42 73 -47 78 -13 4 28 -44
73 -60 57 -18 -18 -28 -15 -28 8 0 24 32 27 73 6 36 -20 34 -4 -4 28 -33 28
-68 33 -87 14z"/>
<path d="M251 464 c-39 -33 -40 -49 -1 -29 34 18 66 19 76 4 10 -18 -13 -34
-29 -21 -11 10 -20 8 -41 -9 -50 -39 -21 -85 34 -53 51 31 80 114 44 128 -30
11 -53 6 -83 -20z"/>
<path d="M4280 418 c0 -7 22 -42 50 -78 50 -66 60 -96 38 -118 -9 -9 -3 -12
29 -12 39 0 42 2 40 28 -2 24 2 27 31 30 29 3 32 6 32 37 0 33 -1 34 -30 28
-25 -4 -42 1 -83 29 -95 63 -107 70 -107 56z m114 -86 c19 -14 21 -20 10 -30
-17 -16 -24 -15 -24 2 0 8 -7 17 -16 20 -8 3 -12 10 -9 16 8 14 13 13 39 -8z"/>
<path d="M390 397 c-20 -12 -53 -35 -73 -51 -30 -23 -44 -28 -72 -23 -34 6
-35 5 -35 -30 0 -32 2 -35 24 -29 29 7 50 -15 41 -44 -6 -18 -2 -20 35 -20 38
0 40 1 30 21 -13 24 1 69 27 91 22 18 65 88 61 98 -2 5 -19 -1 -38 -13z m-30
-67 c0 -6 -7 -13 -15 -16 -8 -4 -15 -12 -15 -20 0 -18 -8 -18 -26 0 -12 13
-11 15 6 21 11 3 20 11 20 16 0 5 7 9 15 9 8 0 15 -5 15 -10z"/>
<path d="M4222 338 c-10 -13 -15 -34 -13 -55 1 -14 50 -73 61 -73 4 0 -1 17
-11 37 -23 45 -24 62 -4 69 24 10 36 -5 22 -26 -10 -17 -8 -24 15 -47 27 -26
28 -26 47 -9 20 18 20 20 3 48 -25 44 -100 79 -120 56z"/>
<path d="M435 326 c-40 -18 -78 -60 -73 -83 5 -29 43 -28 67 3 19 25 20 28 5
39 -20 14 -3 31 21 21 19 -7 19 -29 0 -66 -20 -39 -4 -38 29 1 30 35 33 61 10
83 -18 19 -20 19 -59 2z"/>
<path d="M4450 246 c0 -8 14 -26 31 -40 52 -44 67 -29 23 23 -27 33 -54 41
-54 17z"/>
<path d="M211 215 c-34 -40 -37 -45 -18 -45 18 0 67 48 67 65 0 24 -16 17 -49
-20z"/>
</g>
</svg>
