<svg width="450" height="92" xmlns="http://www.w3.org/2000/svg">
 <g>
  <path id="svg_14" d="m0,0l450,0l0,92l-450,0l0,-92z" fill-opacity="0"/>
  <path stroke="#fff" stroke-width="2" id="svg_15" d="m26.33,4.41c6.86,-0.7 13.87,-0.93 20.59,0.83c0.09,4.56 0.2,9.13 0.05,13.7c-6.46,-3.16 -14.47,-5.9 -21.28,-2.25c-7.37,3.59 -9.52,12.5 -8.42,20.04c2.53,19.42 19.65,35.22 38.65,38.44c0.16,3.95 0.17,7.9 0.04,11.85c-6.07,-0.31 -11.72,-3.31 -17.19,-5.75999c-14.46,-7.38 -27.01,-19.89 -31.12,-35.95c-1.25,-7.3 -2.96,-15.05 -0.65,-22.32c2.41,-9.1 10.26,-16.34996 19.33,-18.57996l0,-0.00001l0,-0.00001l0,-0.00001l0,-0.00001z" fill="#901514"/>
  <path stroke="#fff" stroke-width="2" id="svg_16" fill-rule="evenodd" d="m102.34,5.49c2.52,-0.4 5.06001,-0.56 7.61,-0.48c-1.82,16.6 -0.59,33.33 -0.98,49.99c-0.41,5.04 0.61,9.98 1.06,14.96c-4.34,0.03 -8.69,0.21 -13.03,-0.02c0.17,-5.44 3.12,-12.23 -0.22,-16.8c-6.54,-0.25 -13.07,-0.26 -19.61,-0.04c-3.89,4.67 -2.06,11.35 -1.1,16.85c-4.64,0.05 -9.29,0.17001 -13.93,0.03001c2.17,-5.39001 2.33,-11.28 2.94,-16.98c3.66,-14.63 9.65,-29.45 21.65,-39.28c4.77,-3.25 9.63,-7.50996 15.60999,-8.22996l0,-0.00001l0,-0.00001l0,-0.00001l0,-0.00001zm-7.1,12.73c0.68,-0.07 2.03,-0.2 2.71,-0.27c0.01,7.98 0.26,15.97 -0.02,23.95c-5.98,-0.12 -11.98,1.44 -17.92,0.05c-0.84,-3.74 2.41,-6.31 3.46,-9.58c3.73,-4.88 7.2,-10.01 11.77,-14.15z" fill="#901514"/>
  <path stroke="#fff" stroke-width="2" id="svg_17" d="m123.93,5.05c14.01,-0.07 28.03001,-0.13 42.04,0c0.02,4.35 0.2,8.7 -0.04001,13.05c-9.09,-4.35 -20.07999,-1.23 -29.93999,-2.05c-0.03,1.46 -0.34001,3.34 1.67999,3.36c11,1.38 22.22,0.13 33.3,0.65c0.12,3.99 0.11,7.97 -0.00999,11.95c-8.73001,-0.45 -17.43001,-3.11 -26.21001,-1.63c-2.94,0.01 -5.97,-0.81 -8.63,0.82c-0.25,14.93 -0.12999,29.87 -0.08,44.81c-0.75,3.93 1.85001,7.18 2.04001,10.93999c-4.7,0.03001 -9.39,0.22 -14.08,-0.02c2.06,-15.88 0.54,-31.96 1,-47.93c-0.52,-11.29 1.18,-22.81 -1.07,-33.95004l0,0.00001l0,0.00001l0,0.00001l0,0.00001z" fill="#901514"/>
  <path stroke="#fff" stroke-width="2" id="svg_18" d="m179.92999,5.05c14.35001,-0.05 28.70001,-0.16 43.04001,0.01c0.11,3.99 0.11,7.97 -0.00999,11.96c-9.95001,-1.19 -19.97,-1.25 -29.99001,-0.98c0.00999,1.4 -0.2,3.04 1.25,3.82c10.89,0.44 21.8,-0.13 32.69,0.21c0.23,3.99 0.81999,7.99 -0.04001,11.94c-8.5,-1.55 -17.37999,-3.37 -25.95999,-1.28c-2.58,0.38 -6.08,-2.21 -7.77,0.5c-0.37,8.16 0.2,16.35 -0.62,24.49c-0.24002,1.11 0.31999,2.13 0.62999,3.17c9.98001,0.07 20.31001,1.15 29.8,-1.96c0.01999,4.34 0.23,8.7 -0.00999,13.04c-14.33,0.02 -28.66,0.14 -42.99001,-0.04c0.76999,-3.3 2.53,-6.37 2.01001,-9.92c0.09,-15.01 0.07999,-30.01 0,-45.02c1.42,-3.84 -2.24002,-6.39 -2.03001,-9.94z" fill="#901514"/>
  <path stroke="#fff" stroke-width="2" id="svg_19" d="m262.01001,5.05c4.31998,-0.04 8.66,-0.22 12.98999,0.01c-3.39999,18.8 2.57999,38.6 -4.10001,56.87c-5.19998,10.96 -15.04999,21.72 -27.70999,22.95c-2.45,-2.75999 -4.21001,-6.25 -5.3,-9.78c11.2,-0.22 19.2,-9.46 23.06001,-19.1c2.87997,-7.37 1.94,-15.29 2.06,-23c-0.23001,-9.32 0.69998,-18.73 -1,-27.95z" fill="#901514"/>
  <path stroke="#fff" stroke-width="2" id="svg_20" d="m285.20999,4.97c14.25,0.11 28.51001,-0.11 42.76001,0.09c0.01001,4.33 0.20001,8.66 -0.03,12.99c-9.54999,-3.08 -19.94,-1.97 -29.98001,-2c0.02002,1.39 -0.17999,3.02 1.26001,3.81c10.88998,0.44 21.79001,-0.12 32.67999,0.21c-0.09,4.35 1,8.69 -0.04001,12.99c-10.56,-4.25 -22.53,-1.25 -33.62997,-1.92c-0.27002,0.27 -0.82001,0.82 -1.10001,1.09c-0.02002,7.26 -0.79001,14.68 0.59,21.85c0.37,1.65 -1.67999,3.81 0.54001,4.72c6.84,1.71 13.81998,-0.42 20.75,0.22c3.16,0.3 5.94998,-1.4 8.92999,-2.1c0.01999,4.34 0.23999,8.7 0,13.05c-14.31,0.02 -28.62,0.14 -42.92999,-0.03c3.37,-12.03 1.53998,-24.64 2,-36.94c-0.26001,-9.34 0.94998,-18.93 -1.80002,-28.03z" fill="#901514"/>
  <path stroke="#fff" stroke-width="2" id="svg_21" d="m341.92001,5.05c14.01999,-0.07 28.03998,-0.12 42.04999,0c0.01001,4.35 0.20001,8.7 -0.04001,13.05c-9.07999,-4.35 -20.06,-1.22 -29.89999,-2.05c-0.07999,1.3 -0.07999,2.61 0,3.92c11.23999,0.35 22.51999,-0.42 33.75,0.2c2.78,3.12 1.17001,8.84 0.10001,12.69c-10.53,-4.27 -22.73999,-0.75 -33.85001,-1.82c-0.06,16.66 -0.06,33.32 -0.01001,49.98c0.09,2.13 1.70001,3.83 2.11002,5.91c-4.69,0.04 -9.36002,0.25 -14.04001,0c2,-17.21 0.39999,-34.63 0.91,-51.93c-0.54999,-9.96 1.25,-20.17 -1.07999,-29.95z" fill="#901514"/>
  <path stroke="#fff" stroke-width="2" id="svg_22" d="m397.97,5.05c13.92999,0 27.88998,-0.27 41.82001,0.1c2.88998,3.24 0.57999,8.8 1.16,12.9c-9.47,-3.5 -19.85001,-1.76 -29.72,-1.87c-1.92001,0.75 -0.42001,2.41 -0.02002,3.69c11.24002,0.42 22.51001,-0.13 33.76001,0.2c0.01999,4.26 0.16,8.54 0.01001,12.8c-10.71002,-3.92 -22.61002,-1.1 -33.75,-1.73c-0.27002,0.27 -0.82001,0.82 -1.09,1.09c-0.23001,8.52 -0.30002,17.06 -0.01001,25.58c4.20999,3.11 10.91,0.14 15.88,1.23c4.76999,0.38 9.44,-0.25 13.81,-2.01c1.81,4.04 0.95999,8.67 1.17999,12.94c-14.34,0.02 -28.67999,0.14 -43,-0.03c2.91,-17.51 1.85999,-35.29 1.98999,-52.95c0.62,-4.18 -1.16,-7.98 -2.01999,-11.94z" fill="#901514"/>
  <path stroke="#fff" stroke-width="2" id="svg_23" d="m61.93,77.05c16.02,-0.05 32.06,-0.16 48.08,0.02c0.36,3.38 -0.71,6.58 -1.24001,9.85c-15.21999,0.16 -30.43999,0.11 -45.66,0.03c0.49,-3.43 -0.7,-6.6 -1.18,-9.89999l0,0l0,0l0,0l0,0z" fill="#901514"/>
  <path stroke="#fff" stroke-width="2" id="svg_24" d="m181.2,77.15c13.53,-0.26 27.08,-0.26 40.61,-0.02c2.77,2.29 0.74001,6.68 1.14,9.84c-13.59,0.03 -27.17999,0.15 -40.75999,-0.06c-0.17,-3.19 -3.45,-7.26 -0.99001,-9.76z" fill="#901514"/>
  <path stroke="#fff" stroke-width="2" id="svg_25" d="m286.23001,77.16c12.34998,-0.09 24.78998,-0.65 37.12,0.23c7.64999,-2.2 4.07999,5.76 4.59,9.58c-13.60001,0.03 -27.20001,0.16 -40.79001,-0.07c-0.69998,-3.11 -3.44,-7.31001 -0.91998,-9.74z" fill="#901514"/>
  <path stroke="#fff" stroke-width="2" id="svg_26" d="m399.23001,77.15c13.53998,0.41 27.38998,-1.66 40.75998,1.06c-0.17999,3.08 -1.34998,6.19 -3.16998,8.69c-12.21002,0.13 -24.44,0.27 -36.64001,-0.02c-1.63998,-2.36 -3.25,-7.43999 -0.94998,-9.73z" fill="#901514"/>
 </g>
</svg>
