<?xml version="1.0" encoding="UTF-8" ?>
<!DOCTYPE svg PUBLIC "-//W3C//DTD SVG 1.1//EN" "http://www.w3.org/Graphics/SVG/1.1/DTD/svg11.dtd">
<svg width="450pt" height="92pt" viewBox="0 0 450 92" version="1.1" xmlns="http://www.w3.org/2000/svg">
<path fill="#040101" d=" M 0.00 0.00 L 450.00 0.00 L 450.00 92.00 L 0.00 92.00 L 0.00 0.00 Z" />
<path fill="#901514" d=" M 26.33 4.41 C 33.19 3.71 40.20 3.48 46.92 5.24 C 47.01 9.80 47.12 14.37 46.97 18.94 C 40.51 15.78 32.50 13.04 25.69 16.69 C 18.32 20.28 16.17 29.19 17.27 36.73 C 19.80 56.15 36.92 71.95 55.92 75.17 C 56.08 79.12 56.09 83.07 55.96 87.02 C 49.89 86.71 44.24 83.71 38.77 81.26 C 24.31 73.88 11.76 61.37 7.65 45.31 C 6.40 38.01 4.69 30.26 7.00 22.99 C 9.41 13.89 17.26 6.64 26.33 4.41 Z" />
<path fill="#901514" d=" M 102.34 5.49 C 104.86 5.09 107.40 4.93 109.95 5.01 C 108.13 21.61 109.36 38.34 108.97 55.00 C 108.56 60.04 109.58 64.98 110.03 69.96 C 105.69 69.99 101.34 70.17 97.00 69.94 C 97.17 64.50 100.12 57.71 96.78 53.14 C 90.24 52.89 83.71 52.88 77.17 53.10 C 73.28 57.77 75.11 64.45 76.07 69.95 C 71.43 70.00 66.78 70.12 62.14 69.98 C 64.31 64.59 64.47 58.70 65.08 53.00 C 68.74 38.37 74.73 23.55 86.73 13.72 C 91.50 10.47 96.36 6.21 102.34 5.49 Z" />
<path fill="#901514" d=" M 123.93 5.05 C 137.94 4.98 151.96 4.92 165.97 5.05 C 165.99 9.40 166.17 13.75 165.93 18.10 C 156.84 13.75 145.85 16.87 135.99 16.05 C 135.96 17.51 135.65 19.39 137.67 19.41 C 148.67 20.79 159.89 19.54 170.97 20.06 C 171.09 24.05 171.08 28.03 170.96 32.01 C 162.23 31.56 153.53 28.90 144.75 30.38 C 141.81 30.39 138.78 29.57 136.12 31.20 C 135.87 46.13 135.99 61.07 136.04 76.01 C 135.29 79.94 137.89 83.19 138.08 86.95 C 133.38 86.98 128.69 87.17 124.00 86.93 C 126.06 71.05 124.54 54.97 125.00 39.00 C 124.48 27.71 126.18 16.19 123.93 5.05 Z" />
<path fill="#901514" d=" M 179.93 5.05 C 194.28 5.00 208.63 4.89 222.97 5.06 C 223.08 9.05 223.08 13.03 222.96 17.02 C 213.01 15.83 202.99 15.77 192.97 16.04 C 192.98 17.44 192.77 19.08 194.22 19.86 C 205.11 20.30 216.02 19.73 226.91 20.07 C 227.14 24.06 227.73 28.06 226.87 32.01 C 218.37 30.46 209.49 28.64 200.91 30.73 C 198.33 31.11 194.83 28.52 193.14 31.23 C 192.77 39.39 193.34 47.58 192.52 55.72 C 192.28 56.83 192.84 57.85 193.15 58.89 C 203.13 58.96 213.46 60.04 222.95 56.93 C 222.97 61.27 223.18 65.63 222.94 69.97 C 208.61 69.99 194.28 70.11 179.95 69.93 C 180.72 66.63 182.48 63.56 181.96 60.01 C 182.05 45.00 182.04 30.00 181.96 14.99 C 183.38 11.15 179.72 8.60 179.93 5.05 Z" />
<path fill="#901514" d=" M 262.01 5.05 C 266.33 5.01 270.67 4.83 275.00 5.06 C 271.60 23.86 277.58 43.66 270.90 61.93 C 265.70 72.89 255.85 83.65 243.19 84.88 C 240.74 82.12 238.98 78.63 237.89 75.10 C 249.09 74.88 257.09 65.64 260.95 56.00 C 263.83 48.63 262.89 40.71 263.01 33.00 C 262.78 23.68 263.71 14.27 262.01 5.05 Z" />
<path fill="#901514" d=" M 285.21 4.97 C 299.46 5.08 313.72 4.86 327.97 5.06 C 327.98 9.39 328.17 13.72 327.94 18.05 C 318.39 14.97 308.00 16.08 297.96 16.05 C 297.98 17.44 297.78 19.07 299.22 19.86 C 310.11 20.30 321.01 19.74 331.90 20.07 C 331.81 24.42 332.90 28.76 331.86 33.06 C 321.30 28.81 309.33 31.81 298.23 31.14 C 297.96 31.41 297.41 31.96 297.13 32.23 C 297.11 39.49 296.34 46.91 297.72 54.08 C 298.09 55.73 296.04 57.89 298.26 58.80 C 305.10 60.51 312.08 58.38 319.01 59.02 C 322.17 59.32 324.96 57.62 327.94 56.92 C 327.96 61.26 328.18 65.62 327.94 69.97 C 313.63 69.99 299.32 70.11 285.01 69.94 C 288.38 57.91 286.55 45.30 287.01 33.00 C 286.75 23.66 287.96 14.07 285.21 4.97 Z" />
<path fill="#901514" d=" M 341.92 5.05 C 355.94 4.98 369.96 4.93 383.97 5.05 C 383.98 9.40 384.17 13.75 383.93 18.10 C 374.85 13.75 363.87 16.88 354.03 16.05 C 353.95 17.35 353.95 18.66 354.03 19.97 C 365.27 20.32 376.55 19.55 387.78 20.17 C 390.56 23.29 388.95 29.01 387.88 32.86 C 377.35 28.59 365.14 32.11 354.03 31.04 C 353.97 47.70 353.97 64.36 354.02 81.02 C 354.11 83.15 355.72 84.85 356.13 86.93 C 351.44 86.97 346.77 87.18 342.09 86.93 C 344.09 69.72 342.49 52.30 343.00 35.00 C 342.45 25.04 344.25 14.83 341.92 5.05 Z" />
<path fill="#901514" d=" M 397.97 5.05 C 411.90 5.05 425.86 4.78 439.79 5.15 C 442.68 8.39 440.37 13.95 440.95 18.05 C 431.48 14.55 421.10 16.29 411.23 16.18 C 409.31 16.93 410.81 18.59 411.21 19.87 C 422.45 20.29 433.72 19.74 444.97 20.07 C 444.99 24.33 445.13 28.61 444.98 32.87 C 434.27 28.95 422.37 31.77 411.23 31.14 C 410.96 31.41 410.41 31.96 410.14 32.23 C 409.91 40.75 409.84 49.29 410.13 57.81 C 414.34 60.92 421.04 57.95 426.01 59.04 C 430.78 59.42 435.45 58.79 439.82 57.03 C 441.63 61.07 440.78 65.70 441.00 69.97 C 426.66 69.99 412.32 70.11 398.00 69.94 C 400.91 52.43 399.86 34.65 399.99 16.99 C 400.61 12.81 398.83 9.01 397.97 5.05 Z" />
<path fill="#040101" d=" M 95.24 18.22 C 95.92 18.15 97.27 18.02 97.95 17.95 C 97.96 25.93 98.21 33.92 97.93 41.90 C 91.95 41.78 85.95 43.34 80.01 41.95 C 79.17 38.21 82.42 35.64 83.47 32.37 C 87.20 27.49 90.67 22.36 95.24 18.22 Z" />
<path fill="#901514" d=" M 61.93 77.05 C 77.95 77.00 93.99 76.89 110.01 77.07 C 110.37 80.45 109.30 83.65 108.77 86.92 C 93.55 87.08 78.33 87.03 63.11 86.95 C 63.60 83.52 62.41 80.35 61.93 77.05 Z" />
<path fill="#901514" d=" M 181.20 77.15 C 194.73 76.89 208.28 76.89 221.81 77.13 C 224.58 79.42 222.55 83.81 222.95 86.97 C 209.36 87.00 195.77 87.12 182.19 86.91 C 182.02 83.72 178.74 79.65 181.20 77.15 Z" />
<path fill="#901514" d=" M 286.23 77.16 C 298.58 77.07 311.02 76.51 323.35 77.39 C 331.00 75.19 327.43 83.15 327.94 86.97 C 314.34 87.00 300.74 87.13 287.15 86.90 C 286.45 83.79 283.71 79.59 286.23 77.16 Z" />
<path fill="#901514" d=" M 399.23 77.15 C 412.77 77.56 426.62 75.49 439.99 78.21 C 439.81 81.29 438.64 84.40 436.82 86.90 C 424.61 87.03 412.38 87.17 400.18 86.88 C 398.54 84.52 396.93 79.44 399.23 77.15 Z" />
</svg>
