<?xml version="1.0" encoding="UTF-8" ?>
<!DOCTYPE svg PUBLIC "-//W3C//DTD SVG 1.1//EN" "http://www.w3.org/Graphics/SVG/1.1/DTD/svg11.dtd">
<svg width="532pt" height="92pt" viewBox="0 0 532 92" version="1.1" xmlns="http://www.w3.org/2000/svg">
<path fill="#030101" d=" M 0.00 0.00 L 532.00 0.00 L 532.00 92.00 L 0.00 92.00 L 0.00 0.00 Z" />
<path fill="#911513" d=" M 27.39 4.47 C 33.86 3.65 40.54 3.62 46.89 5.26 C 47.01 9.87 47.20 14.49 46.91 19.10 C 39.74 15.17 30.22 12.69 23.18 18.18 C 14.75 25.51 16.10 38.57 20.24 47.86 C 27.08 61.71 40.46 72.78 55.88 75.28 C 54.65 78.43 59.26 88.65 53.10 86.82 C 34.95 81.54 17.63 69.80 10.01 51.98 C 1.16 35.09 5.69 7.86 27.39 4.47 Z" />
<path fill="#911513" d=" M 102.39 5.47 C 104.91 5.09 107.45 4.93 109.99 5.00 C 108.44 26.57 108.38 48.37 109.88 69.95 C 105.64 69.99 101.39 70.22 97.15 69.93 C 97.09 64.52 100.03 57.71 96.75 53.13 C 89.89 52.87 83.02 52.83 76.16 53.11 C 74.02 58.44 74.94 64.44 76.03 69.94 C 71.43 70.00 66.83 70.18 62.23 69.97 C 65.01 52.33 68.29 33.56 80.75 19.75 C 86.56 13.39 93.71 7.11 102.39 5.47 Z" />
<path fill="#911513" d=" M 124.02 5.06 C 138.00 4.97 151.98 4.89 165.96 5.07 C 166.02 9.33 166.16 13.59 165.99 17.85 C 156.60 14.02 145.85 16.70 135.97 16.07 C 135.97 17.47 135.79 19.10 137.26 19.86 C 148.48 20.37 159.73 19.64 170.96 20.09 C 171.01 24.40 171.19 28.71 170.93 33.02 C 160.00 29.00 147.64 30.24 136.68 30.66 C 136.61 48.91 133.40 68.89 138.13 86.93 C 133.44 86.98 128.74 87.23 124.06 86.91 C 125.49 59.73 125.78 32.22 124.02 5.06 Z" />
<path fill="#911513" d=" M 179.98 5.06 C 194.30 5.01 208.64 4.83 222.97 5.08 C 223.11 9.05 223.10 13.02 222.95 16.99 C 213.01 15.97 203.02 15.66 193.03 16.05 C 192.95 17.35 192.95 18.65 193.03 19.95 C 204.34 20.28 215.66 19.67 226.97 20.09 C 227.11 24.07 227.10 28.04 226.94 32.01 C 216.01 29.43 204.39 30.58 193.68 30.69 C 189.75 38.68 195.28 49.89 191.98 58.93 C 202.32 58.64 213.10 60.56 222.94 56.87 C 222.97 61.22 223.23 65.60 222.92 69.95 C 208.62 70.01 194.31 70.13 180.00 69.93 C 183.75 58.71 181.33 46.59 182.01 35.00 C 181.56 25.05 183.40 14.63 179.98 5.06 Z" />
<path fill="#911513" d=" M 262.08 5.05 C 266.35 5.00 270.66 4.78 274.94 5.08 C 271.03 26.44 280.17 51.24 265.94 69.95 C 261.58 77.53 253.55 81.68 245.69 84.69 C 241.00 86.12 240.04 79.13 238.14 76.13 C 243.47 72.70 250.98 73.23 254.81 66.81 C 268.18 49.42 262.52 25.43 262.08 5.05 Z" />
<path fill="#911513" d=" M 285.99 5.05 C 299.98 4.97 313.97 4.89 327.96 5.07 C 328.00 9.37 328.19 13.69 327.93 18.00 C 318.05 14.60 307.35 16.37 297.12 16.00 C 297.47 17.29 297.86 18.57 298.30 19.84 C 309.51 20.37 320.75 19.64 331.96 20.09 C 332.00 24.41 332.19 28.73 331.93 33.04 C 321.27 29.00 309.39 31.65 298.27 31.14 C 294.50 39.05 299.00 49.01 297.12 57.78 C 306.58 60.20 318.11 59.81 327.93 56.87 C 327.97 61.22 328.23 65.60 327.92 69.95 C 313.60 70.00 299.27 70.15 284.95 69.92 C 288.99 48.66 286.99 26.56 285.99 5.05 Z" />
<path fill="#911513" d=" M 341.98 5.06 C 355.97 4.97 369.97 4.89 383.97 5.07 C 384.01 9.40 384.18 13.74 383.93 18.07 C 374.66 13.93 363.87 16.71 354.03 16.06 C 353.95 17.36 353.94 18.66 354.03 19.95 C 365.68 20.18 377.33 19.81 388.99 20.06 C 387.79 23.55 391.18 29.22 387.77 31.84 C 376.57 30.75 365.29 30.82 354.05 31.06 C 355.78 49.46 350.53 69.19 356.11 86.93 C 351.45 86.97 346.80 87.23 342.16 86.92 C 343.26 59.74 344.02 32.17 341.98 5.06 Z" />
<path fill="#911513" d=" M 398.18 5.01 C 412.44 5.06 426.70 4.82 440.96 5.08 C 441.00 9.40 441.19 13.73 440.93 18.04 C 431.82 14.34 421.61 16.47 412.05 16.05 C 409.99 15.93 409.87 18.45 409.93 19.93 C 421.60 20.19 433.28 19.81 444.96 20.06 C 444.99 24.38 445.19 28.72 444.93 33.04 C 434.11 29.20 421.58 31.03 410.69 31.69 C 409.67 39.95 409.23 50.11 410.68 58.33 C 420.39 59.52 431.25 60.00 440.93 56.87 C 440.96 61.22 441.23 65.60 440.92 69.95 C 426.62 70.00 412.31 70.15 398.01 69.92 C 400.67 48.51 401.76 26.30 398.18 5.01 Z" />
<path fill="#030101" d=" M 95.30 18.31 C 95.95 18.20 97.27 18.00 97.92 17.90 C 97.95 25.87 98.31 33.87 97.89 41.85 C 92.40 40.65 83.74 45.87 80.01 40.91 C 82.09 32.17 88.64 24.30 95.30 18.31 Z" />
<path fill="#911513" d=" M 511.30 56.32 C 514.28 56.01 516.88 57.73 517.17 60.84 C 513.72 61.77 508.43 59.36 506.17 63.28 C 504.91 69.19 506.57 75.71 511.71 79.28 C 514.33 82.40 521.45 81.55 520.02 87.02 C 511.21 86.20 502.52 78.68 501.47 69.60 C 499.53 63.52 504.45 55.56 511.30 56.32 Z" />
<path fill="#911513" d=" M 453.13 57.05 C 454.40 56.96 455.67 56.95 456.95 57.02 C 457.19 66.02 456.77 75.01 457.06 84.01 C 460.73 84.41 464.41 83.93 467.98 83.10 C 469.96 91.22 457.30 85.25 453.09 86.93 C 451.16 77.03 452.32 66.98 453.13 57.05 Z" />
<path fill="#911513" d=" M 478.05 57.03 C 479.35 56.95 480.65 56.95 481.95 57.03 C 482.19 65.99 481.77 74.96 482.07 83.92 C 484.89 85.56 494.69 80.75 492.90 86.79 C 488.04 88.28 483.00 87.54 478.08 86.82 C 477.89 76.89 477.92 66.96 478.05 57.03 Z" />
<path fill="#911513" d=" M 62.01 77.06 C 78.01 77.00 94.02 76.85 110.01 77.09 C 110.15 80.42 109.46 83.67 108.74 86.89 C 93.56 87.11 78.36 87.07 63.18 86.92 C 63.19 83.58 62.44 80.35 62.01 77.06 Z" />
<path fill="#911513" d=" M 180.97 77.05 C 194.57 76.99 208.19 76.83 221.80 77.12 C 224.56 79.42 222.61 83.79 222.94 86.95 C 209.34 87.03 195.74 87.13 182.15 86.90 C 181.34 83.68 181.01 80.36 180.97 77.05 Z" />
<path fill="#911513" d=" M 287.36 77.37 C 300.18 77.19 313.30 75.88 326.02 77.85 C 330.40 77.82 327.35 84.13 327.93 86.95 C 314.34 87.03 300.75 87.12 287.16 86.92 C 286.13 84.45 283.25 77.99 287.36 77.37 Z" />
<path fill="#911513" d=" M 397.91 77.03 C 411.94 78.30 426.08 75.83 440.01 78.19 C 439.78 81.29 438.68 84.41 436.80 86.90 C 424.55 87.09 412.30 87.11 400.06 86.93 C 399.00 83.70 398.28 80.39 397.91 77.03 Z" />
<path fill="#911513" d=" M 468.92 84.04 C 470.10 84.42 473.38 82.91 473.02 85.02 C 474.19 88.70 468.01 87.03 468.92 84.04 Z" />
<path fill="#911513" d=" M 495.22 84.19 C 498.44 81.90 499.46 88.26 496.05 86.94 C 494.35 87.07 493.27 84.85 495.22 84.19 Z" />
<path fill="#911513" d=" M 522.02 84.03 C 524.54 83.61 527.05 83.74 525.98 86.97 C 523.45 87.39 520.94 87.26 522.02 84.03 Z" />
</svg>
