<?xml version="1.0" standalone="no"?>
<!DOCTYPE svg PUBLIC "-//W3C//DTD SVG 20010904//EN"
 "http://www.w3.org/TR/2001/REC-SVG-20010904/DTD/svg10.dtd">
<svg version="1.0" xmlns="http://www.w3.org/2000/svg"
 width="470.000000pt" height="450.000000pt" viewBox="0 0 470.000000 450.000000"
 preserveAspectRatio="xMidYMid meet">
<metadata>
Created by potrace 1.12, written by Peter Selinger 2001-2015
</metadata>
<g transform="translate(0.000000,450.000000) scale(0.100000,-0.100000)"
fill="#000000" stroke="none">
<path d="M0 2250 l0 -2250 624 0 625 0 -15 28 c-33 64 -5 186 39 169 33 -12
45 -154 16 -173 -5 -3 -9 -9 -9 -15 0 -5 648 -9 1710 -9 l1710 0 0 610 c0 336
-4 610 -8 610 -4 0 -13 -5 -19 -11 -5 -5 -37 -10 -70 -11 -92 -1 -131 31 -81
66 30 21 126 21 156 0 l22 -15 0 495 0 495 -27 -15 c-56 -29 -173 -11 -173 26
0 37 117 55 173 26 l27 -15 0 491 c0 463 -1 490 -17 482 -37 -17 -133 -16
-158 0 -55 36 -16 69 78 67 33 0 65 -5 71 -11 5 -5 14 -10 18 -10 4 0 8 275 8
610 l0 610 -1711 0 c-1626 0 -1711 -1 -1704 -17 30 -74 24 -166 -12 -180 -44
-17 -72 105 -39 170 l15 27 -625 0 -624 0 0 -2250z m2380 2221 c5 -11 10 -45
10 -76 0 -85 -32 -123 -66 -77 -16 20 -18 110 -4 146 11 31 45 35 60 7z m1106
-16 c17 -41 18 -81 3 -123 -29 -83 -88 -19 -76 84 8 78 48 99 73 39z m-3375
-35 c60 -51 134 -90 170 -90 19 0 34 9 47 28 21 28 82 69 82 54 0 -4 -13 -21
-30 -37 -16 -16 -30 -32 -30 -36 0 -4 18 -7 40 -7 44 -1 101 -30 125 -65 8
-12 15 -38 15 -59 0 -27 4 -38 15 -38 8 0 15 5 15 12 0 6 3 8 6 5 15 -15 -21
-36 -72 -43 -30 -3 -54 -11 -54 -16 0 -5 21 -30 48 -56 55 -54 122 -82 199
-82 47 0 55 -3 79 -34 24 -29 31 -33 56 -26 15 5 41 18 57 29 16 12 71 30 126
40 97 20 107 24 158 70 38 35 37 81 -4 115 -36 31 -78 33 -110 7 -23 -19 -23
-20 -4 -26 39 -13 50 -22 53 -49 3 -20 -2 -28 -22 -36 -34 -13 -56 -3 -71 32
-16 39 -9 71 22 100 19 18 35 23 76 22 48 0 53 -3 94 -49 47 -54 61 -54 43 -1
-20 62 -68 91 -185 111 -34 6 -37 8 -21 17 43 24 182 -21 207 -68 16 -30 23
-30 43 1 30 46 112 74 199 67 27 -3 10 -22 -19 -22 -88 0 -177 -57 -186 -119
-6 -39 12 -40 34 -2 24 44 65 66 117 65 37 -1 49 -7 73 -33 30 -34 33 -46 18
-85 -13 -35 -46 -51 -76 -37 -44 19 -26 81 23 81 30 0 29 15 -2 36 -52 34
-135 -10 -135 -71 0 -30 18 -53 71 -93 9 -7 59 -21 110 -33 59 -12 109 -30
134 -47 38 -26 46 -27 160 -27 115 0 122 1 161 28 27 18 69 33 125 43 46 9 97
23 113 31 89 46 102 129 25 169 -34 17 -69 13 -94 -13 -16 -15 -15 -17 17 -27
36 -12 49 -46 28 -72 -31 -37 -94 3 -94 59 0 44 25 73 75 88 31 10 43 9 75 -7
21 -11 49 -35 62 -54 26 -38 39 -41 34 -7 -8 64 -73 113 -161 124 -72 8 -74
23 -4 23 71 0 132 -26 163 -70 l22 -31 19 31 c26 42 90 70 162 70 68 0 68 -14
0 -24 -78 -10 -129 -41 -154 -92 -27 -58 -12 -83 19 -30 32 54 67 71 139 67
12 -1 34 -11 48 -24 50 -42 29 -137 -30 -137 -55 0 -61 69 -7 85 41 12 40 21
-4 42 -34 17 -37 17 -72 -2 -41 -22 -58 -58 -48 -99 8 -32 83 -83 135 -92 88
-14 157 -36 187 -59 31 -24 40 -25 156 -25 119 0 124 1 165 29 27 18 67 33
110 41 100 17 131 29 169 62 45 40 48 95 8 127 -29 23 -74 27 -105 11 -26 -15
-24 -27 6 -34 52 -13 50 -86 -2 -86 -39 0 -63 27 -63 71 0 105 163 120 215 19
31 -59 48 -26 19 36 -21 44 -68 72 -143 85 -70 13 -81 29 -20 29 65 0 120 -21
160 -61 l36 -36 29 34 c34 40 90 62 157 63 66 0 59 -16 -14 -29 -98 -17 -159
-68 -159 -133 0 -19 6 -15 44 27 42 49 45 50 99 50 65 0 93 -20 103 -71 9 -46
-16 -84 -55 -84 -59 0 -68 55 -14 80 37 17 37 31 1 44 -73 26 -146 -37 -119
-102 19 -46 77 -80 162 -97 87 -16 121 -28 159 -55 33 -23 80 -27 80 -6 0 23
47 46 94 46 67 0 149 35 201 85 25 24 45 49 45 54 0 5 -21 13 -47 16 -55 7
-75 16 -81 36 -4 11 -2 12 9 2 22 -21 29 -15 29 23 0 30 8 45 43 79 35 36 51
44 97 50 l54 7 -37 30 c-20 17 -37 34 -37 39 0 17 59 -20 82 -51 37 -50 103
-36 200 43 94 76 105 72 32 -13 -83 -97 -107 -174 -61 -199 24 -13 70 -72 62
-80 -3 -2 -20 10 -38 27 -18 18 -36 32 -40 32 -4 0 -7 -19 -7 -41 0 -78 -59
-139 -135 -139 -37 0 -43 -8 -23 -28 9 -9 9 -12 0 -12 -16 0 -32 42 -32 85 0
19 -5 37 -10 40 -6 3 -34 -18 -64 -48 -59 -59 -86 -123 -86 -204 0 -36 -5 -46
-30 -65 -37 -27 -38 -49 -1 -107 18 -28 33 -73 41 -116 16 -92 41 -147 78
-173 39 -28 74 -28 106 1 39 33 44 77 12 113 l-25 29 -1 -26 c0 -31 -17 -49
-45 -49 -46 0 -62 57 -23 84 51 36 120 11 137 -49 17 -61 -11 -120 -72 -151
-35 -18 -27 -35 12 -24 68 19 102 62 116 145 4 22 9 49 12 59 11 38 25 -13 18
-62 -9 -60 -37 -115 -72 -140 l-28 -20 28 -22 c48 -38 84 -133 71 -186 -9 -36
-21 -20 -28 39 -11 87 -53 139 -124 153 -43 9 -40 -6 7 -35 46 -28 61 -56 61
-116 0 -36 -5 -47 -31 -69 -37 -32 -81 -34 -110 -5 -24 24 -22 67 2 82 22 14
69 -16 69 -43 0 -42 36 -13 46 37 5 25 0 37 -23 63 -44 49 -85 46 -133 -8 -31
-34 -40 -57 -60 -142 -15 -67 -30 -111 -46 -130 -22 -25 -24 -38 -24 -122 0
-84 3 -98 24 -127 14 -19 28 -48 31 -65 31 -149 38 -169 72 -207 28 -31 42
-39 70 -39 64 0 104 72 73 131 -14 26 -27 24 -34 -6 -14 -56 -86 -52 -86 5 0
61 81 81 131 31 24 -24 29 -38 29 -76 0 -40 -5 -52 -33 -79 -18 -17 -41 -36
-52 -42 -30 -18 -11 -27 28 -15 34 12 76 50 95 86 5 11 13 44 17 73 4 28 11
52 16 52 5 0 9 -24 9 -52 0 -67 -30 -133 -70 -156 -16 -9 -30 -19 -30 -22 0
-3 14 -13 30 -22 40 -23 70 -89 70 -155 0 -29 -4 -53 -9 -53 -5 0 -12 24 -16
53 -4 28 -12 61 -17 72 -19 36 -61 74 -95 86 -39 12 -58 3 -28 -15 11 -6 34
-25 52 -42 28 -27 33 -39 33 -79 0 -38 -5 -52 -29 -76 -50 -50 -131 -30 -131
31 0 57 72 61 86 5 7 -30 20 -32 34 -6 31 59 -9 131 -73 131 -28 0 -42 -8 -70
-39 -34 -38 -41 -58 -72 -207 -3 -17 -17 -46 -31 -65 -21 -29 -24 -43 -24
-127 0 -84 2 -97 24 -122 16 -19 31 -63 46 -130 20 -85 29 -108 60 -142 48
-54 89 -57 133 -8 23 26 28 38 23 63 -11 53 -42 76 -48 35 -2 -12 -15 -29 -30
-37 -33 -19 -58 -2 -58 40 0 59 78 78 131 31 55 -49 39 -139 -31 -182 -62 -38
-46 -55 24 -26 46 19 73 58 86 124 18 86 21 91 31 63 19 -49 -18 -151 -68
-191 l-28 -22 28 -20 c35 -25 63 -80 72 -140 7 -49 -7 -100 -18 -62 -3 10 -8
37 -12 59 -14 83 -48 126 -116 145 -39 11 -47 -6 -12 -24 61 -31 89 -90 72
-151 -17 -60 -86 -85 -137 -49 -39 27 -23 84 23 84 28 0 45 -18 45 -49 l1 -26
25 29 c32 36 27 80 -12 113 -32 29 -67 29 -106 1 -37 -26 -62 -81 -78 -173 -8
-43 -23 -88 -41 -116 -37 -58 -36 -80 1 -107 25 -19 30 -29 30 -65 0 -81 27
-145 86 -204 30 -30 58 -51 64 -48 5 3 10 21 10 40 0 43 16 85 32 85 9 0 9 -3
0 -12 -20 -20 -14 -28 23 -28 76 0 135 -61 135 -139 0 -22 3 -41 7 -41 4 0 22
14 40 32 18 17 35 29 38 27 8 -8 -38 -67 -62 -80 -46 -25 -22 -102 61 -199 73
-85 62 -89 -32 -13 -97 79 -163 93 -200 43 -23 -31 -82 -68 -82 -51 0 5 17 22
37 39 l37 30 -54 7 c-46 6 -62 14 -97 50 -35 34 -43 49 -43 79 0 38 -7 44 -29
24 -11 -11 -13 -10 -9 1 6 20 26 29 81 36 26 3 47 11 47 16 0 5 -20 29 -43 53
-51 50 -135 86 -203 86 -47 0 -94 23 -94 46 0 21 -47 17 -80 -6 -38 -27 -72
-39 -158 -55 -84 -16 -136 -44 -157 -85 -21 -41 -19 -58 14 -91 21 -21 39 -29
63 -29 31 0 81 23 68 32 -3 2 -18 10 -35 18 -52 27 -41 80 16 80 39 0 64 -38
55 -84 -10 -51 -38 -71 -103 -71 -54 0 -57 1 -99 50 -38 42 -44 46 -44 27 0
-65 61 -116 159 -133 73 -13 80 -29 14 -29 -67 1 -123 23 -157 63 l-29 34 -36
-36 c-40 -40 -95 -61 -160 -61 -61 0 -50 16 20 29 75 13 122 41 143 85 29 62
12 95 -19 36 -36 -69 -128 -91 -184 -44 -55 46 -35 134 30 134 54 0 57 -73 4
-86 -30 -7 -32 -19 -6 -34 31 -16 76 -12 105 11 40 32 37 87 -8 127 -38 33
-69 45 -169 62 -43 8 -83 23 -110 41 -41 28 -46 29 -165 29 -116 0 -125 -1
-156 -25 -18 -14 -64 -32 -102 -41 -138 -31 -153 -37 -188 -69 -44 -40 -48
-83 -12 -120 33 -33 67 -40 105 -21 39 21 39 29 -1 41 -54 16 -48 85 7 85 59
0 80 -95 30 -137 -14 -13 -36 -23 -48 -24 -72 -4 -107 13 -139 67 -31 53 -46
28 -19 -30 25 -51 76 -82 154 -92 67 -9 69 -24 3 -24 -70 0 -129 23 -161 64
l-25 31 -25 -31 c-32 -41 -91 -64 -161 -64 -68 0 -63 15 7 23 87 11 152 60
161 123 5 34 -9 32 -34 -6 -13 -19 -41 -43 -62 -54 -32 -16 -44 -17 -75 -7
-50 15 -75 44 -75 88 0 54 59 94 92 61 29 -29 7 -78 -35 -78 -31 0 -20 -25 18
-40 23 -10 35 -10 59 0 61 25 78 87 36 133 -34 37 -71 53 -165 71 -56 10 -98
25 -125 43 -39 27 -46 28 -161 28 -109 0 -123 -2 -148 -22 -32 -25 -61 -35
-168 -58 -96 -20 -159 -67 -159 -119 0 -62 83 -106 135 -72 31 21 32 36 2 36
-47 0 -66 59 -26 81 29 15 66 -2 79 -37 15 -39 12 -51 -18 -86 -25 -26 -36
-31 -75 -31 -52 0 -91 21 -115 64 -23 40 -43 39 -32 -2 20 -69 63 -102 151
-114 66 -10 78 -15 54 -25 -50 -21 -170 18 -201 65 -20 31 -27 31 -43 1 -25
-47 -164 -92 -207 -68 -16 9 -13 11 21 17 117 20 165 49 185 111 18 54 4 53
-44 -2 -41 -47 -46 -49 -94 -49 -81 0 -125 56 -97 123 15 35 37 45 71 32 20
-8 25 -16 22 -36 -3 -27 -14 -36 -53 -49 -19 -6 -19 -7 4 -26 34 -28 77 -24
112 10 38 38 39 79 2 112 -51 46 -61 50 -158 70 -55 10 -110 28 -126 40 -16
11 -42 24 -57 29 -25 7 -32 3 -56 -26 -24 -31 -32 -34 -79 -34 -78 0 -145 -27
-199 -83 -27 -27 -48 -52 -48 -56 0 -5 23 -11 51 -14 52 -6 80 -21 78 -41 0
-7 -2 -6 -6 2 -2 6 -11 12 -19 12 -10 0 -14 -12 -14 -38 0 -21 -7 -47 -15 -59
-24 -35 -81 -64 -125 -65 -22 0 -40 -3 -40 -7 0 -4 13 -20 30 -36 16 -16 30
-33 30 -37 0 -15 -61 26 -82 55 -35 48 -110 27 -216 -62 -29 -24 -55 -42 -57
-39 -3 3 15 30 40 59 52 60 79 108 88 156 5 27 2 35 -28 58 -37 27 -61 63 -50
73 3 4 17 -8 31 -26 14 -18 30 -32 35 -32 5 0 9 21 9 46 0 42 5 51 44 90 37
38 49 44 85 44 42 0 50 7 29 28 -9 9 -9 12 0 12 16 0 32 -33 33 -67 0 -15 4
-37 8 -48 7 -18 13 -14 63 35 61 61 88 123 88 200 0 45 25 90 50 90 19 0 10
54 -15 86 -17 22 -32 65 -45 123 -22 106 -39 142 -79 170 -37 26 -71 27 -104
1 -34 -27 -43 -70 -22 -109 20 -39 29 -39 40 2 16 52 85 47 85 -6 0 -33 -29
-57 -69 -57 -69 0 -106 54 -90 130 8 34 27 56 79 92 l25 17 -34 0 c-60 1 -130
-92 -131 -174 0 -11 -4 -26 -9 -33 -6 -10 -10 -7 -15 13 -15 60 25 163 74 194
l29 17 -30 18 c-50 29 -90 133 -74 193 9 35 20 17 29 -49 12 -80 82 -154 138
-146 21 3 19 6 -18 31 -50 34 -69 67 -68 119 2 53 39 92 88 92 38 0 76 -27 76
-54 0 -58 -75 -66 -87 -10 -3 17 -9 30 -14 30 -12 0 -39 -42 -39 -63 0 -56 65
-106 113 -88 53 21 80 69 106 190 14 63 28 102 46 122 23 28 25 39 25 121 0
83 -2 95 -29 137 -17 28 -35 77 -45 124 -25 125 -69 187 -132 187 -62 0 -104
-74 -74 -131 14 -25 38 -24 42 2 2 12 12 28 23 35 18 12 24 11 43 -2 45 -32
11 -94 -52 -94 -106 0 -128 152 -30 209 41 25 45 44 7 35 -62 -14 -108 -66
-119 -134 -10 -66 -14 -80 -24 -80 -13 0 -13 65 1 115 6 22 28 56 49 77 l38
38 -38 38 c-21 21 -43 55 -49 77 -14 50 -14 115 -1 115 10 0 14 -14 24 -80 11
-68 57 -120 119 -134 38 -9 34 10 -7 35 -98 57 -76 209 30 209 63 0 97 -62 52
-94 -19 -13 -25 -14 -43 -2 -11 7 -21 23 -23 35 -4 26 -28 27 -42 2 -29 -55
12 -131 71 -131 67 0 109 58 135 188 10 46 28 95 45 123 27 42 29 54 29 137 0
82 -2 93 -25 121 -18 20 -32 59 -46 122 -26 121 -53 169 -106 190 -48 18 -113
-32 -113 -88 0 -21 27 -63 39 -63 5 0 11 13 14 30 8 38 53 53 74 25 47 -65
-60 -123 -121 -66 -55 51 -40 133 33 184 41 28 43 32 23 35 -56 8 -126 -66
-138 -146 -9 -66 -20 -84 -29 -49 -16 60 24 164 74 193 l30 18 -29 17 c-50 31
-92 145 -75 200 9 29 20 11 30 -51 4 -25 13 -57 21 -71 21 -43 72 -79 107 -78
l32 0 -25 17 c-52 36 -71 58 -79 92 -16 75 21 130 88 130 57 0 93 -54 59 -88
-25 -25 -58 -14 -74 23 -8 19 -16 35 -19 35 -2 0 -12 -14 -21 -31 -19 -38 -12
-72 21 -105 30 -30 67 -31 106 -3 40 28 55 61 78 168 13 59 29 103 46 125 25
32 34 86 15 86 -25 0 -50 45 -50 90 0 77 -27 139 -88 200 -50 49 -56 53 -63
35 -4 -11 -8 -33 -8 -48 -1 -34 -17 -67 -33 -67 -9 0 -9 3 0 12 21 21 13 28
-30 28 -36 0 -47 6 -85 45 -38 40 -43 51 -43 90 0 53 -11 56 -42 15 -23 -31
-38 -38 -38 -18 0 6 20 30 44 53 42 39 44 43 36 78 -9 40 -58 123 -91 153 -24
21 -43 54 -32 54 3 0 28 -18 54 -40z m65 -1115 c90 -37 -21 -95 -126 -66 -17
5 -26 15 -28 33 -3 23 2 29 30 37 49 14 84 13 124 -4z m12 -1031 c29 -19 28
-30 -5 -51 -30 -20 -117 -22 -151 -4 -24 13 -29 45 -10 57 41 26 124 25 166
-2z m-8 -1017 c39 -20 37 -45 -4 -62 -42 -18 -68 -19 -119 -4 -33 9 -38 14
-35 37 2 18 11 28 28 33 41 11 103 10 130 -4z m3309 -1089 c15 -43 14 -82 -4
-124 -27 -64 -75 -23 -75 64 0 91 54 132 79 60z m-1109 13 c5 -11 10 -45 10
-76 0 -65 -13 -95 -41 -95 -25 0 -39 36 -39 101 0 59 13 89 40 89 11 0 24 -9
30 -19z"/>
<path d="M180 4325 c0 -9 62 -75 71 -75 18 0 8 30 -18 55 -25 22 -53 33 -53
20z"/>
<path d="M4481 4294 c-33 -27 -41 -54 -17 -54 15 0 66 55 66 71 0 16 -17 10
-49 -17z"/>
<path d="M275 4280 c9 -29 -12 -51 -41 -44 -22 6 -24 3 -24 -29 0 -35 0 -36
35 -30 29 5 42 0 73 -24 99 -78 137 -85 89 -17 -81 115 -81 113 -69 139 11 24
11 25 -29 25 -36 0 -40 -2 -34 -20z m55 -74 c0 -8 7 -16 15 -20 8 -3 15 -10
15 -16 0 -5 -7 -10 -15 -10 -8 0 -15 4 -15 9 0 5 -9 12 -20 16 -16 5 -17 9 -7
20 16 18 27 19 27 1z"/>
<path d="M445 4285 c4 -11 12 -32 18 -47 13 -32 -1 -55 -28 -45 -13 5 -13 10
-3 26 10 17 9 23 -7 41 -22 25 -58 23 -63 -3 -7 -37 85 -105 123 -91 20 8 29
47 17 71 -6 10 -23 29 -38 43 -24 22 -26 22 -19 5z"/>
<path d="M4243 4268 c-44 -48 -47 -97 -8 -112 24 -9 87 27 107 62 17 28 17 30
-3 48 -19 17 -20 17 -47 -9 -23 -24 -25 -30 -14 -47 10 -17 10 -21 -2 -26 -18
-7 -36 3 -36 19 0 7 9 29 19 50 21 42 14 48 -16 15z"/>
<path d="M4368 4278 c22 -22 12 -52 -38 -118 -80 -104 -71 -107 57 -22 41 28
58 33 83 29 29 -6 30 -5 30 28 0 31 -3 34 -32 37 -29 3 -33 6 -31 31 2 25 -1
27 -40 27 -32 0 -38 -3 -29 -12z m39 -79 c9 -9 6 -17 -13 -32 -18 -14 -28 -17
-36 -9 -8 8 -7 13 5 18 9 3 17 12 17 20 0 17 12 18 27 3z"/>
<path d="M243 4153 c-22 -8 -14 -40 13 -62 21 -17 30 -19 41 -9 16 13 39 -3
29 -21 -10 -15 -42 -14 -76 4 -39 20 -38 4 1 -29 69 -58 128 -13 83 64 -14 23
-63 62 -76 59 -1 0 -9 -3 -15 -6z"/>
<path d="M4400 4112 c-78 -78 -24 -156 59 -86 38 32 40 48 4 28 -41 -21 -73
-18 -73 6 0 21 15 27 25 10 4 -7 17 -4 36 7 22 13 29 24 27 43 -5 39 -34 36
-78 -8z"/>
<path d="M1201 4063 c-26 -27 -67 -64 -91 -84 -25 -20 -41 -41 -37 -45 11 -11
362 -12 374 -1 4 5 -10 24 -32 43 -22 19 -63 57 -92 84 -28 28 -57 50 -63 50
-7 0 -33 -21 -59 -47z m115 -74 c8 -6 14 -15 14 -19 0 -5 -118 -6 -140 -1 -3
1 6 11 20 22 26 22 78 21 106 -2z"/>
<path d="M2340 4103 c-8 -3 -36 -26 -62 -52 -25 -25 -63 -60 -84 -77 -22 -18
-34 -36 -30 -42 5 -9 63 -12 192 -12 205 0 217 5 147 57 -21 15 -61 52 -89 81
-29 28 -54 52 -56 51 -1 0 -10 -3 -18 -6z m38 -104 c31 -11 48 -34 32 -44 -5
-3 -20 0 -34 6 -20 10 -32 9 -53 0 -17 -8 -29 -9 -36 -2 -13 13 7 38 36 44 12
2 22 5 23 6 1 0 15 -4 32 -10z"/>
<path d="M3392 4058 c-22 -24 -62 -62 -89 -84 -26 -23 -45 -45 -42 -48 3 -4
93 -5 200 -4 l194 3 -39 35 c-22 19 -62 59 -91 88 -28 28 -61 52 -72 52 -11 0
-38 -19 -61 -42z m114 -72 c28 -21 13 -29 -56 -30 -60 -2 -73 7 -48 32 16 16
80 15 104 -2z"/>
<path d="M512 4002 c2 -4 11 -28 22 -55 17 -43 36 -62 36 -37 0 6 6 10 13 10
11 0 43 39 35 44 -14 10 -109 44 -106 38z"/>
<path d="M4140 3977 c-39 -19 -44 -25 -36 -42 5 -12 19 -26 32 -32 21 -9 24
-7 41 36 10 25 20 49 21 53 6 12 -9 8 -58 -15z"/>
<path d="M947 3956 c-55 -15 -66 -23 -43 -32 26 -10 103 5 128 26 l23 19 -30
0 c-16 0 -51 -6 -78 -13z"/>
<path d="M1482 3958 c3 -7 15 -19 29 -25 27 -14 119 -17 119 -4 0 9 -104 41
-134 41 -10 0 -16 -6 -14 -12z"/>
<path d="M2065 3959 c-22 -5 -50 -11 -62 -14 -40 -9 -24 -25 25 -25 49 0 93
16 100 38 4 14 -6 14 -63 1z"/>
<path d="M2570 3960 c0 -21 47 -40 98 -40 84 0 50 23 -65 44 -18 3 -33 1 -33
-4z"/>
<path d="M3161 3954 c-90 -19 -101 -34 -24 -34 44 0 67 5 84 18 32 27 14 31
-60 16z"/>
<path d="M3686 3941 c17 -19 30 -22 80 -19 55 3 57 4 32 15 -15 7 -51 15 -80
19 l-53 6 21 -21z"/>
<path d="M643 3943 c-28 -11 -10 -18 52 -21 61 -2 85 8 49 22 -18 7 -83 7
-101 -1z"/>
<path d="M3956 3931 c-6 -8 113 -21 124 -13 2 2 -2 7 -10 12 -19 12 -107 13
-114 1z"/>
<path d="M580 3880 c-14 -27 -9 -112 8 -118 9 -3 12 15 12 67 0 39 -2 71 -5
71 -2 0 -9 -9 -15 -20z"/>
<path d="M4121 3826 c-1 -51 2 -67 10 -59 14 14 14 70 0 103 -8 21 -10 13 -10
-44z"/>
<path d="M720 3839 c0 -12 42 -39 52 -33 4 3 8 13 8 23 0 13 -8 18 -30 18 -16
0 -30 -4 -30 -8z"/>
<path d="M810 3842 c-6 -2 -10 -15 -10 -28 0 -19 -6 -26 -30 -30 -19 -4 -30
-13 -30 -23 0 -22 -19 -41 -41 -41 -15 0 -17 -61 -24 -749 -4 -412 -4 -1074 0
-1470 7 -662 9 -721 24 -721 22 0 41 -19 41 -41 0 -10 11 -19 30 -22 24 -5 30
-12 30 -31 0 -13 4 -26 10 -28 5 -2 705 -2 1555 0 l1545 2 0 26 c0 19 7 29 30
37 17 6 30 19 30 28 0 23 25 42 47 35 17 -6 18 54 18 1464 0 1410 -1 1470 -18
1464 -22 -7 -47 12 -47 35 0 9 -13 22 -30 28 -23 8 -30 18 -30 37 l0 26 -1545
2 c-850 2 -1550 2 -1555 0z m177 -84 l23 -21 44 23 c43 22 76 22 76 0 0 -6
-10 -8 -25 -4 -23 6 -25 4 -25 -29 0 -27 5 -37 20 -42 25 -8 26 -35 1 -35 -20
0 -51 39 -51 65 0 22 -13 18 -43 -13 -16 -16 -27 -39 -27 -55 0 -34 -13 -34
-34 -2 -23 35 -73 35 -86 -1 -16 -40 -12 -52 20 -69 41 -21 38 -35 -9 -35 -31
0 -44 -6 -61 -27 l-21 -28 40 -17 c29 -12 41 -23 41 -38 0 -26 -22 -26 -38 1
-18 29 -67 23 -67 -8 0 -13 -4 -24 -10 -25 -20 -6 -16 42 6 82 l23 40 -21 22
c-51 56 -41 109 33 180 30 29 63 56 72 60 28 12 95 -2 119 -24z m2859 11 c31
-11 123 -101 125 -121 6 -54 -4 -95 -27 -119 -16 -17 -22 -29 -15 -33 17 -11
44 -75 37 -91 -10 -26 -29 -17 -22 10 6 23 4 25 -28 25 -26 0 -36 -5 -41 -20
-9 -28 -37 -26 -33 3 2 14 17 29 41 41 l38 18 -22 24 c-12 13 -33 24 -45 24
-12 0 -30 3 -40 7 -14 5 -12 10 16 33 29 24 32 30 23 56 -7 21 -18 30 -42 35
-28 6 -33 3 -47 -22 -13 -27 -33 -39 -35 -21 -4 49 -12 70 -30 85 -28 23 -32
22 -49 -16 -9 -20 -24 -33 -37 -35 -28 -4 -30 14 -3 28 13 7 20 21 20 40 0 25
-4 30 -25 30 -14 0 -25 5 -25 10 0 17 53 11 88 -10 l33 -21 30 26 c33 27 70
32 115 14z m-2346 -14 c64 -33 103 -122 77 -177 -35 -76 -210 -169 -263 -140
-14 8 -7 12 39 21 60 13 164 74 191 112 44 64 -7 158 -95 173 -46 8 -79 -11
-93 -54 -16 -50 -43 -51 -83 -4 -31 38 -32 38 -73 28 -22 -6 -43 -7 -46 -3
-12 19 10 29 65 29 56 0 58 -1 75 -37 17 -36 19 -37 32 -18 8 10 14 25 14 32
0 7 9 22 20 33 25 25 97 27 140 5z m1852 -1 c4 -3 13 -23 19 -44 7 -22 16 -40
20 -40 4 0 17 16 28 36 l22 37 56 -7 c62 -7 68 -10 59 -25 -4 -6 -27 -8 -55
-4 -47 5 -50 4 -65 -26 -12 -22 -24 -31 -42 -31 -20 0 -28 9 -44 45 -19 45
-19 45 -70 45 -43 0 -56 -5 -86 -33 -28 -26 -37 -42 -41 -78 -5 -43 -3 -46 42
-87 52 -49 136 -92 178 -92 15 0 27 -4 27 -10 0 -20 -77 -10 -130 17 -30 15
-76 48 -102 73 -54 52 -60 79 -29 145 33 71 81 98 161 89 25 -3 48 -8 52 -10z
m-2064 -116 c13 -13 16 -57 4 -74 -4 -6 -17 -16 -30 -23 -12 -7 -20 -16 -18
-20 8 -13 -24 -51 -42 -51 -33 0 -63 -30 -60 -58 3 -23 -1 -27 -22 -28 -36 0
-49 -11 -67 -55 -11 -29 -23 -41 -42 -45 -15 -3 -31 -15 -36 -27 -7 -16 -20
-23 -47 -25 -53 -4 -64 22 -49 110 6 36 11 80 11 99 0 42 24 79 51 79 12 0 19
7 19 20 0 11 -7 20 -15 20 -13 0 -13 3 -3 20 13 20 13 20 20 0 11 -29 35 -24
46 10 11 31 15 33 122 48 95 14 144 14 158 0z m2307 -11 c87 -12 90 -14 104
-45 17 -37 26 -40 43 -13 9 16 14 17 25 6 16 -17 17 -26 1 -22 -24 5 -20 -33
5 -42 31 -12 38 -22 42 -69 2 -20 8 -65 14 -99 7 -34 9 -73 5 -88 -11 -45 -87
-46 -104 -1 -5 15 -20 25 -39 29 -17 4 -31 12 -31 18 0 6 -7 26 -16 45 -14 29
-21 33 -48 31 -27 -2 -31 1 -32 23 -1 14 -2 30 -3 37 0 6 -20 18 -43 25 -34
11 -45 21 -52 44 -5 17 -19 35 -30 40 -15 6 -22 20 -24 47 -3 31 1 39 20 46
13 5 34 7 48 5 14 -3 66 -10 115 -17z m-2782 -260 c3 -8 1 -20 -4 -28 -18 -28
-9 -57 27 -84 48 -36 43 -64 -14 -83 -30 -10 -44 -20 -48 -38 -22 -89 73 -182
156 -153 52 19 140 152 140 215 0 16 5 24 13 21 17 -6 10 -63 -15 -115 -11
-23 -43 -67 -70 -97 -45 -49 -54 -55 -90 -55 -52 0 -103 25 -134 66 -22 28
-25 41 -22 95 l3 64 42 15 c58 21 60 27 19 46 -36 18 -36 18 -36 81 0 47 3 63
14 63 8 0 16 -6 19 -13z m3115 -58 c3 -56 2 -57 -35 -79 l-38 -23 47 -19 c48
-21 58 -36 58 -96 0 -78 -70 -145 -152 -146 -48 -1 -52 1 -98 51 -26 28 -57
72 -69 96 -21 44 -30 133 -11 122 6 -3 10 -18 10 -33 0 -37 44 -120 90 -170
32 -36 44 -42 76 -42 74 0 123 50 124 126 l0 51 -50 21 c-27 12 -50 26 -50 32
0 10 24 35 65 69 16 13 16 26 -1 84 -5 14 -1 18 13 15 14 -3 19 -14 21 -59z
m-2546 34 c22 -20 22 -33 1 -93 l-17 -47 34 -46 c18 -26 35 -47 37 -47 1 0 2
17 1 38 -1 39 16 82 32 82 15 0 12 -16 -5 -30 -26 -21 -13 -100 17 -100 6 0 6
6 -3 16 -10 13 -10 17 2 25 10 6 11 9 1 9 -7 0 -10 5 -7 10 10 16 25 1 25 -24
0 -32 25 -53 35 -29 6 17 19 -6 42 -79 7 -23 -10 -23 -28 -1 -10 11 -10 14 -1
9 20 -12 14 9 -8 29 -13 11 -24 15 -30 9 -5 -5 7 -29 32 -62 23 -29 39 -55 36
-57 -2 -3 -27 11 -54 30 -64 46 -97 47 -57 3 17 -19 39 -25 28 -8 -3 6 -2 10
3 10 11 0 25 -30 18 -38 -3 -2 -21 3 -40 12 -19 9 -45 16 -58 17 l-23 0 24 10
c19 8 21 12 11 24 -7 8 -23 15 -36 15 -24 0 -41 17 -29 28 4 4 10 1 12 -5 3
-7 9 -13 14 -13 6 0 7 5 4 10 -3 6 -2 10 4 10 5 0 13 -5 16 -10 4 -6 11 -7 17
-4 15 9 -30 33 -62 33 -14 0 -34 -6 -44 -14 -22 -17 -36 -19 -36 -6 0 15 58
33 95 29 19 -2 35 -2 35 2 0 3 -22 20 -48 38 -48 32 -48 32 -91 17 -24 -8 -52
-15 -62 -15 -29 0 -59 36 -59 70 0 40 18 39 22 -1 4 -47 28 -57 75 -34 38 19
38 19 11 23 -32 4 -35 14 -11 33 14 12 16 12 11 -1 -4 -12 5 -19 34 -28 22 -7
43 -11 45 -8 10 10 -22 76 -34 72 -17 -7 -17 8 0 23 16 13 27 5 27 -21 0 -30
18 -20 30 17 16 47 7 65 -29 65 -16 0 -33 5 -36 10 -10 17 57 11 77 -7z m2028
7 c0 -5 -12 -10 -27 -10 -47 0 -58 -13 -47 -56 10 -41 34 -59 34 -25 0 25 13
27 30 6 11 -13 10 -14 -2 -10 -10 4 -18 -6 -28 -35 -7 -22 -11 -43 -8 -46 7
-6 70 24 79 38 3 5 12 2 19 -7 10 -13 9 -15 -8 -15 -32 0 -36 -19 -7 -30 39
-15 65 -12 71 8 17 52 23 57 23 20 1 -29 -5 -41 -22 -53 -21 -14 -28 -14 -67
0 -59 21 -76 19 -121 -12 -46 -34 -49 -45 -9 -37 31 7 90 -12 90 -27 0 -13 -7
-11 -35 7 -16 10 -34 14 -54 9 -29 -6 -64 -35 -43 -35 6 0 14 5 17 10 3 6 11
10 16 10 6 0 7 -5 3 -11 -4 -8 1 -9 16 -4 14 4 20 3 16 -3 -3 -5 -22 -13 -41
-16 -36 -7 -50 -36 -17 -36 18 -1 -47 -28 -88 -37 -21 -5 -23 -3 -12 8 7 8 20
14 29 14 18 0 41 31 30 41 -3 4 -26 -6 -49 -22 -23 -16 -48 -33 -55 -37 -23
-15 -14 10 22 54 19 24 35 47 35 52 0 15 -28 6 -46 -15 -19 -21 -19 -21 1 -14
19 7 19 6 3 -10 -25 -26 -39 -14 -24 21 7 17 18 41 24 55 8 19 11 21 11 7 1
-28 26 -14 29 16 4 35 29 56 38 32 4 -10 2 -26 -4 -36 -16 -25 -15 -34 2 -20
23 19 29 61 11 87 -17 26 -19 44 -6 44 17 0 33 -59 27 -97 l-7 -38 25 30 c46
56 51 71 38 121 -17 63 -15 81 10 98 25 18 78 22 78 6z m487 -1826 c43 -33 63
-73 63 -126 0 -55 -6 -63 -60 -86 l-45 -19 38 -23 c37 -22 38 -23 35 -79 -2
-45 -7 -56 -21 -59 -14 -3 -18 1 -13 15 17 58 17 71 1 84 -41 34 -65 59 -65
69 0 6 23 20 50 32 l50 21 0 51 c-1 76 -50 126 -124 126 -32 0 -44 -6 -76 -42
-46 -50 -90 -133 -90 -170 0 -15 -4 -30 -10 -33 -18 -11 -11 77 10 121 25 50
95 132 124 145 33 14 97 1 133 -27z m-2899 -29 c27 -30 59 -74 70 -97 25 -52
32 -109 15 -115 -8 -3 -13 5 -13 21 0 63 -88 196 -140 215 -63 21 -143 -30
-155 -100 -10 -57 0 -76 48 -92 56 -18 60 -46 13 -82 -36 -27 -45 -56 -27 -84
12 -18 3 -41 -15 -41 -11 0 -14 16 -14 63 0 63 0 63 36 80 40 19 38 32 -6 42
-47 10 -60 30 -60 92 0 44 5 63 24 88 31 41 80 64 132 65 38 0 47 -5 92 -55z
m522 51 c0 -14 -14 -36 -22 -36 -5 0 -6 5 -3 10 10 16 -7 12 -27 -7 -43 -39
-8 -45 43 -7 80 59 89 53 29 -20 -28 -33 -38 -52 -31 -59 7 -7 17 -5 31 8 22
20 28 41 8 29 -9 -5 -9 -2 1 9 18 22 35 22 28 0 -23 -74 -36 -97 -42 -80 -10
24 -35 3 -35 -29 0 -25 -15 -40 -25 -24 -3 5 -1 10 4 10 6 0 11 5 11 11 0 5
-4 7 -10 4 -14 -9 -13 8 2 23 9 9 9 12 0 12 -29 0 -43 -78 -17 -100 17 -14 20
-30 5 -30 -17 0 -33 43 -32 85 l2 40 -25 -30 c-42 -52 -48 -77 -31 -120 20
-48 20 -64 -1 -87 -17 -19 -89 -27 -78 -8 3 6 20 10 36 10 36 0 45 18 29 65
-12 37 -30 47 -30 17 0 -26 -11 -34 -27 -21 -17 15 -17 30 0 23 12 -4 44 62
34 72 -2 3 -23 -1 -46 -8 -28 -9 -40 -17 -36 -27 4 -11 3 -12 -10 -1 -22 18
-18 28 13 32 27 4 27 4 -11 23 -47 23 -71 13 -75 -34 -4 -40 -22 -41 -22 -1 0
34 30 70 59 70 10 0 38 -7 62 -15 43 -15 43 -15 91 17 26 18 48 35 48 38 0 4
-16 4 -35 2 -37 -4 -95 14 -95 29 0 13 14 11 36 -6 32 -25 104 -13 104 17 0 9
-3 9 -12 0 -15 -15 -32 -16 -23 -2 3 6 2 10 -4 10 -5 0 -11 -6 -14 -12 -2 -7
-8 -10 -12 -6 -12 11 5 28 29 28 13 0 29 7 36 15 10 12 8 16 -11 24 l-24 10
25 1 c14 0 36 7 50 14 25 14 50 20 50 12z m1678 -40 c23 -16 46 -26 49 -22 11
10 -12 41 -30 41 -9 0 -22 6 -29 13 -9 9 -8 12 8 12 11 0 24 -4 30 -9 5 -5 25
-14 44 -19 19 -6 27 -11 18 -11 -33 -2 -19 -30 17 -37 19 -3 38 -11 41 -16 4
-6 -2 -7 -16 -3 -15 5 -20 4 -16 -4 4 -6 3 -11 -3 -11 -5 0 -13 5 -16 10 -3 6
-11 10 -17 10 -7 0 -7 -5 1 -14 19 -23 60 -28 93 -11 36 18 38 18 38 6 0 -15
-59 -34 -90 -27 -40 8 -37 -3 9 -36 45 -32 62 -34 118 -14 52 18 85 4 94 -42
9 -43 -8 -52 -19 -10 -9 38 -32 45 -78 27 l-29 -11 28 -12 c24 -11 26 -14 14
-25 -8 -6 -17 -8 -19 -4 -5 13 -69 46 -75 39 -4 -3 0 -24 7 -46 10 -29 18 -39
28 -35 12 4 13 3 2 -10 -17 -21 -30 -19 -30 6 0 34 -24 16 -34 -25 -11 -43 0
-56 47 -56 15 0 27 -4 27 -10 0 -16 -53 -12 -78 6 -25 17 -27 35 -10 98 13 50
8 65 -38 121 l-25 30 7 -38 c6 -38 -10 -97 -27 -97 -13 0 -11 18 6 44 18 26
12 68 -11 87 -17 14 -18 5 -2 -20 6 -10 8 -26 4 -36 -9 -24 -34 -3 -38 32 -3
30 -28 44 -29 16 0 -14 -3 -12 -11 7 -6 14 -17 39 -24 55 -15 35 -1 47 24 21
16 -16 16 -17 -3 -10 -20 7 -20 7 -1 -14 18 -21 46 -30 46 -14 0 4 -16 27 -35
51 -36 44 -45 69 -22 54 7 -4 32 -21 55 -37z m618 -234 c20 -13 25 -50 15
-109 -6 -32 -12 -76 -15 -98 -6 -57 -15 -73 -39 -77 -14 -2 -22 -10 -22 -23 0
-11 6 -19 13 -18 16 4 15 -5 -1 -22 -11 -11 -16 -10 -25 6 -17 27 -26 24 -43
-13 -14 -32 -15 -32 -129 -49 -142 -20 -163 -15 -158 38 2 27 9 41 24 47 11 5
25 23 30 40 7 23 18 33 52 44 23 7 43 19 43 25 1 7 2 23 3 37 1 22 5 25 32 23
27 -2 34 2 48 31 9 19 16 39 16 45 0 6 14 14 31 18 19 4 34 14 39 28 12 31 58
46 86 27z m-2841 -29 c5 -12 21 -24 36 -27 19 -4 31 -16 42 -45 18 -44 31 -55
67 -55 21 -1 25 -5 22 -28 -3 -28 27 -58 60 -58 19 0 50 -38 42 -52 -3 -4 6
-13 21 -20 39 -18 48 -80 14 -101 -12 -7 -48 -7 -120 2 -126 15 -147 23 -155
56 -7 30 -32 33 -42 5 -7 -20 -7 -20 -20 0 -10 17 -10 20 3 20 8 0 15 9 15 20
0 13 -7 20 -19 20 -27 0 -51 37 -51 79 0 19 -5 63 -11 99 -15 88 -4 114 49
110 27 -2 40 -9 47 -25z m-210 -166 c0 -31 49 -36 67 -8 16 27 38 27 38 1 0
-15 -12 -26 -41 -38 l-40 -17 21 -28 c17 -21 30 -27 61 -27 47 0 50 -14 9 -35
-32 -17 -36 -29 -20 -69 13 -36 63 -36 86 -1 21 32 34 32 34 -2 0 -16 11 -39
27 -55 30 -31 43 -35 43 -13 0 26 31 65 51 65 25 0 24 -30 -1 -37 -15 -4 -20
-14 -20 -40 0 -33 2 -35 25 -29 15 4 25 2 25 -4 0 -22 -35 -22 -77 0 l-43 23
-25 -23 c-19 -18 -37 -24 -74 -24 -44 -1 -53 3 -99 44 -86 78 -103 147 -48
199 l24 23 -24 35 c-23 35 -31 73 -17 86 10 10 18 -2 18 -26z m3199 15 c6 -19
-17 -77 -35 -88 -6 -4 0 -17 14 -33 28 -29 41 -94 25 -126 -17 -32 -93 -104
-122 -115 -45 -17 -83 -12 -115 15 l-30 26 -33 -21 c-35 -21 -88 -27 -88 -10
0 6 11 10 25 10 21 0 25 5 25 30 0 19 -7 33 -20 40 -27 14 -25 32 3 28 13 -2
28 -15 37 -35 17 -38 18 -38 48 -15 19 15 27 35 31 85 2 17 22 5 35 -22 14
-25 19 -28 47 -22 24 5 35 14 42 35 9 26 6 32 -23 56 -28 23 -30 28 -16 33 10
4 28 7 40 7 12 0 33 11 45 24 l22 23 -38 20 c-23 12 -39 28 -41 41 -4 28 24
30 33 2 5 -15 15 -20 41 -20 32 0 34 2 28 25 -7 29 11 35 20 7z m-564 -33 c0
-5 -12 -9 -27 -9 -42 0 -126 -43 -178 -92 -45 -41 -47 -44 -42 -87 4 -36 13
-52 41 -78 30 -28 43 -33 86 -33 51 0 51 0 70 45 16 36 24 45 44 45 18 0 30
-9 42 -31 15 -30 18 -31 65 -26 28 4 51 2 55 -4 9 -15 3 -18 -59 -25 l-56 -7
-22 37 c-11 20 -24 36 -28 36 -4 0 -13 -19 -21 -42 -13 -36 -20 -43 -50 -50
-81 -18 -148 14 -181 86 -27 59 -24 90 11 130 71 81 250 156 250 105z m-1961
-19 c53 -27 124 -87 138 -118 26 -55 -13 -144 -77 -177 -30 -15 -96 -20 -125
-9 -9 4 -25 27 -36 51 -21 48 -30 49 -49 3 -12 -29 -15 -30 -71 -30 -55 0 -77
10 -65 29 3 4 24 3 46 -3 41 -10 42 -10 73 28 40 47 65 45 82 -4 14 -43 48
-62 94 -54 65 11 111 63 111 126 0 30 -7 42 -41 71 -51 44 -131 84 -183 92
-30 5 -36 9 -25 16 19 13 82 3 128 -21z"/>
<path d="M844 3746 c-30 -23 -7 -50 47 -54 24 -2 49 -8 56 -13 8 -8 16 -2 27
20 14 27 14 31 0 45 -20 20 -103 21 -130 2z"/>
<path d="M770 3671 c-14 -28 -12 -94 4 -116 12 -17 17 -17 45 -5 24 9 29 16
21 25 -6 7 -8 24 -5 37 15 57 -39 106 -65 59z"/>
<path d="M3760 3754 c-28 -11 -39 -33 -27 -58 10 -20 16 -22 66 -18 75 6 103
31 68 60 -16 13 -86 23 -107 16z"/>
<path d="M3891 3676 c-9 -11 -34 -121 -27 -121 0 0 12 -6 24 -13 21 -12 27
-11 43 4 24 21 26 90 3 122 -18 26 -27 27 -43 8z"/>
<path d="M1141 3624 c-41 -7 -75 -15 -77 -17 -2 -2 10 -19 26 -38 44 -51 36
-56 -17 -9 -44 39 -48 41 -51 21 -4 -24 61 -111 81 -111 7 1 24 19 39 40 17
24 36 40 48 40 15 0 20 7 20 29 0 23 6 31 30 40 69 24 19 26 -99 5z"/>
<path d="M1230 3587 c0 -30 6 -36 31 -30 28 8 21 47 -8 51 -18 3 -23 -1 -23
-21z"/>
<path d="M980 3539 c0 -7 23 -36 50 -65 28 -29 50 -57 50 -62 0 -5 11 -12 25
-14 44 -9 29 23 -38 83 -73 65 -87 74 -87 58z"/>
<path d="M1152 3498 c-12 -18 -20 -34 -18 -35 2 -2 24 6 49 17 54 24 63 50 18
50 -22 0 -34 -8 -49 -32z"/>
<path d="M930 3500 c0 -6 19 -31 41 -55 49 -53 44 -58 -12 -13 -21 17 -41 29
-43 27 -6 -8 -37 -191 -32 -196 2 -2 10 8 18 24 9 19 22 29 41 31 19 2 29 10
33 28 4 15 21 32 45 45 22 10 39 23 39 27 0 5 -15 22 -32 39 -49 46 -98 67
-98 43z"/>
<path d="M1018 3369 c-33 -25 -39 -69 -9 -69 12 0 23 11 29 28 5 15 13 35 17
45 9 22 -4 21 -37 -4z"/>
<path d="M917 3293 c-4 -3 -7 -15 -7 -25 0 -12 7 -18 24 -18 24 0 41 23 30 41
-6 10 -38 12 -47 2z"/>
<path d="M3468 3615 c24 -11 32 -20 32 -40 0 -20 7 -28 29 -36 16 -6 36 -25
47 -45 10 -18 21 -34 23 -34 17 0 91 88 91 107 0 31 -11 29 -46 -8 -49 -52
-67 -54 -28 -2 l36 47 -83 13 c-46 7 -95 12 -109 12 -23 0 -23 -1 8 -14z"/>
<path d="M3433 3594 c-8 -22 5 -44 27 -44 28 0 28 46 -1 53 -12 3 -22 0 -26
-9z"/>
<path d="M3649 3484 c-35 -30 -67 -64 -72 -76 -6 -18 -4 -19 20 -13 16 3 32
14 37 22 4 8 28 35 52 59 41 40 55 64 36 64 -5 0 -37 -25 -73 -56z"/>
<path d="M3484 3515 c-8 -20 1 -29 45 -44 44 -14 50 -8 24 27 -24 32 -60 41
-69 17z"/>
<path d="M3704 3469 c-43 -34 -63 -61 -48 -66 33 -11 73 -45 76 -65 2 -17 11
-24 33 -28 18 -3 34 -14 40 -28 15 -33 28 -27 20 11 -3 17 -12 63 -19 100
l-12 68 -43 -31 c-23 -17 -45 -30 -47 -28 -2 3 14 22 36 43 22 22 40 43 40 47
0 18 -40 6 -76 -23z"/>
<path d="M3659 3349 c10 -22 23 -45 29 -51 15 -15 32 -1 32 27 0 19 -10 30
-39 45 l-40 20 18 -41z"/>
<path d="M3744 3285 c-7 -18 12 -45 31 -45 18 0 24 21 13 43 -11 21 -37 22
-44 2z"/>
<path d="M3750 1245 c-15 -18 -6 -45 13 -45 21 0 38 25 31 44 -8 20 -28 21
-44 1z"/>
<path d="M3805 1218 c-6 -14 -22 -25 -40 -28 -21 -4 -31 -12 -35 -30 -3 -15
-20 -33 -43 -45 -20 -11 -37 -24 -37 -28 0 -14 74 -77 98 -83 40 -11 37 5 -8
51 -51 52 -47 57 12 15 l42 -31 12 68 c7 37 16 83 19 101 8 37 -5 43 -20 10z"/>
<path d="M3684 1198 c-6 -7 -17 -30 -27 -51 l-17 -37 41 20 c34 18 40 25 37
47 -3 30 -20 40 -34 21z"/>
<path d="M3578 1091 c7 -20 129 -131 144 -131 18 0 6 24 -34 64 -24 24 -51 53
-60 64 -23 29 -60 30 -50 3z"/>
<path d="M3520 1025 c-23 -8 -35 -19 -35 -31 0 -31 39 -29 64 2 35 45 30 50
-29 29z"/>
<path d="M3576 1006 c-11 -20 -31 -39 -47 -45 -22 -8 -29 -16 -29 -36 0 -20
-8 -29 -32 -40 -31 -13 -31 -14 -8 -14 14 0 63 5 109 12 l83 13 -36 47 c-44
57 -34 61 19 7 45 -46 55 -49 55 -18 0 19 -74 108 -90 108 -3 0 -14 -16 -24
-34z"/>
<path d="M3431 932 c-13 -24 3 -42 30 -35 27 7 26 53 -1 53 -10 0 -24 -8 -29
-18z"/>
<path d="M921 1250 c-7 -4 -11 -16 -9 -26 4 -21 35 -31 49 -17 21 21 -15 59
-40 43z"/>
<path d="M880 1236 c0 -15 33 -191 36 -195 2 -2 22 10 45 28 53 44 59 35 9
-14 -55 -53 -53 -82 3 -54 27 14 87 70 87 81 0 4 -17 17 -39 27 -24 13 -41 30
-45 45 -4 17 -14 26 -33 28 -17 2 -32 12 -39 26 -13 26 -24 39 -24 28z"/>
<path d="M990 1176 c0 -16 11 -32 31 -46 16 -12 32 -20 34 -18 3 3 -3 23 -12
46 -19 48 -53 60 -53 18z"/>
<path d="M1103 1103 c-13 -2 -23 -9 -23 -14 0 -6 -23 -34 -51 -64 -28 -30 -49
-59 -47 -66 5 -16 148 112 148 133 0 10 -1 17 -2 17 -2 -1 -13 -4 -25 -6z"/>
<path d="M1149 1008 c22 -37 81 -54 81 -24 0 12 -76 56 -97 56 -3 0 4 -15 16
-32z"/>
<path d="M1055 986 c-23 -28 -35 -53 -33 -67 3 -20 7 -18 51 21 53 47 61 42
17 -9 -16 -19 -28 -36 -26 -38 1 -2 44 -10 94 -19 98 -17 138 -14 85 6 -27 10
-33 17 -33 41 0 22 -5 29 -20 29 -12 0 -31 16 -48 40 -15 21 -32 39 -39 40 -6
0 -28 -20 -48 -44z"/>
<path d="M1230 914 c0 -21 4 -25 23 -22 14 2 23 11 25 26 3 18 -1 22 -22 22
-21 0 -26 -5 -26 -26z"/>
<path d="M770 941 c-5 -11 -10 -36 -10 -56 0 -46 15 -75 40 -75 26 0 42 34 35
74 -5 22 -3 36 5 41 9 6 6 12 -11 21 -33 18 -47 17 -59 -5z"/>
<path d="M945 821 c-6 -6 -30 -11 -54 -13 -54 -4 -77 -31 -47 -54 27 -19 105
-18 127 2 17 15 17 19 3 45 -16 33 -16 33 -29 20z"/>
<path d="M3882 956 c-12 -6 -20 -17 -17 -24 3 -8 5 -29 5 -47 0 -18 9 -43 20
-56 l20 -24 20 24 c26 31 27 101 2 124 -21 19 -18 19 -50 3z"/>
<path d="M3733 804 c-15 -33 4 -54 52 -60 45 -5 88 13 93 38 4 22 -22 34 -84
40 -45 4 -51 2 -61 -18z"/>
<path d="M3930 3820 c0 -25 21 -26 51 0 l24 19 -37 1 c-31 0 -38 -3 -38 -20z"/>
<path d="M680 3772 c0 -33 16 -43 27 -16 3 8 -2 23 -11 32 -15 15 -16 14 -16
-16z"/>
<path d="M4010 3774 c-12 -22 -12 -27 0 -34 25 -16 30 -11 30 25 0 41 -11 45
-30 9z"/>
<path d="M571 3606 c-18 -45 -26 -116 -13 -116 24 0 46 88 32 125 -7 18 -9 18
-19 -9z"/>
<path d="M4121 3574 c-1 -49 3 -67 20 -85 l20 -24 -5 51 c-2 28 -11 66 -20 85
l-14 34 -1 -61z"/>
<path d="M543 3428 c-15 -17 -52 -54 -80 -83 -63 -61 -66 -84 -17 -122 19 -15
50 -49 69 -75 19 -26 43 -52 55 -58 20 -11 20 -9 20 180 0 111 -4 190 -9 190
-6 0 -22 -14 -38 -32z m12 -153 c0 -67 -14 -85 -35 -46 -20 39 -6 111 23 111
8 0 12 -21 12 -65z"/>
<path d="M4118 3363 c-2 -49 -1 -135 2 -193 l5 -105 40 44 c22 25 61 65 88 90
26 25 47 55 47 65 0 11 -24 42 -52 70 -29 28 -66 66 -81 84 -16 17 -32 32 -37
32 -5 0 -10 -39 -12 -87z m82 -95 c0 -35 -16 -68 -33 -68 -9 0 -12 18 -11 63
2 34 3 64 3 66 1 2 10 -4 21 -14 11 -10 20 -31 20 -47z"/>
<path d="M548 3055 c-8 -8 20 -127 32 -139 19 -19 11 100 -8 124 -9 12 -20 19
-24 15z"/>
<path d="M4130 3030 c-16 -31 -24 -116 -12 -124 12 -7 42 80 42 121 0 28 -16
30 -30 3z"/>
<path d="M574 2595 c-14 -24 -36 -126 -29 -133 2 -3 11 1 19 8 18 14 29 63 24
111 -3 31 -4 32 -14 14z"/>
<path d="M4113 2553 c4 -38 13 -63 26 -77 l21 -20 0 25 c0 39 -29 129 -42 129
-7 0 -9 -19 -5 -57z"/>
<path d="M538 2403 c-18 -21 -57 -61 -85 -90 -29 -29 -53 -57 -53 -63 0 -6 24
-34 53 -63 28 -29 67 -69 85 -90 19 -20 38 -37 43 -37 5 0 9 81 9 190 0 109
-4 190 -9 190 -5 0 -24 -17 -43 -37z m16 -110 c-4 -10 -8 -29 -8 -43 0 -14 4
-33 8 -42 6 -14 4 -18 -11 -18 -18 0 -43 35 -43 60 0 28 22 60 41 60 16 0 19
-4 13 -17z"/>
<path d="M4116 2405 c-10 -50 -6 -319 5 -336 6 -11 17 -4 46 30 21 25 59 65
86 90 26 25 47 54 47 63 0 9 -17 31 -39 48 -21 17 -53 51 -70 76 -18 24 -40
48 -51 54 -15 8 -19 5 -24 -25z m79 -135 c7 -31 -13 -87 -30 -82 -9 2 -15 108
-7 125 7 14 31 -13 37 -43z"/>
<path d="M547 2033 c-8 -13 18 -122 33 -136 19 -19 8 110 -12 129 -9 9 -18 12
-21 7z"/>
<path d="M4136 2021 c-22 -24 -36 -131 -18 -131 14 0 45 102 40 131 l-3 21
-19 -21z"/>
<path d="M4115 1587 c-15 -36 12 -137 37 -137 14 0 4 76 -16 122 -11 28 -15
30 -21 15z"/>
<path d="M576 1581 c-10 -16 -35 -135 -30 -141 3 -3 14 6 25 19 13 16 19 39
19 77 0 53 -3 63 -14 45z"/>
<path d="M4118 1331 c-4 -138 2 -281 12 -281 5 0 21 14 37 32 15 17 52 54 81
83 62 61 65 84 16 122 -19 15 -50 49 -69 75 -19 26 -43 52 -54 57 -19 11 -20
7 -23 -88z m72 -50 c16 -31 12 -76 -10 -96 -11 -10 -20 -16 -21 -14 0 2 -1 32
-3 67 -2 65 12 83 34 43z"/>
<path d="M541 1379 c-20 -23 -57 -62 -83 -88 -27 -25 -48 -55 -48 -65 0 -11
24 -43 53 -71 28 -29 65 -66 80 -83 16 -18 32 -32 38 -32 5 0 9 78 9 190 0
105 -3 190 -7 190 -3 0 -22 -18 -42 -41z m14 -154 c0 -67 -14 -85 -35 -46 -20
39 -6 111 23 111 8 0 12 -21 12 -65z"/>
<path d="M4137 1008 c-13 -19 -17 -41 -15 -85 l3 -58 18 57 c10 32 17 70 15
85 l-3 28 -18 -27z"/>
<path d="M553 967 c7 -52 25 -102 34 -94 9 10 5 95 -7 117 -19 36 -33 23 -27
-23z"/>
<path d="M4010 760 c-12 -7 -12 -12 0 -34 19 -36 30 -32 30 9 0 36 -5 41 -30
25z"/>
<path d="M680 728 c0 -30 1 -31 16 -16 9 9 14 24 11 32 -11 27 -27 17 -27 -16z"/>
<path d="M577 733 c-13 -12 -7 -99 8 -119 13 -17 14 -12 15 54 0 66 -6 83 -23
65z"/>
<path d="M4121 673 c0 -47 3 -62 9 -48 12 28 12 103 0 110 -6 4 -10 -19 -9
-62z"/>
<path d="M3930 680 c0 -17 7 -20 38 -20 l37 1 -24 19 c-30 26 -51 25 -51 0z"/>
<path d="M732 678 c-19 -19 -14 -25 18 -25 22 0 30 5 30 19 0 21 -29 25 -48 6z"/>
<path d="M4134 596 c-11 -5 -25 -19 -30 -30 -8 -19 -3 -24 40 -44 27 -12 51
-21 53 -19 2 2 -7 26 -19 53 -20 44 -25 48 -44 40z"/>
<path d="M534 553 c-11 -27 -20 -51 -22 -55 -3 -6 92 28 106 38 8 5 -24 44
-35 44 -7 0 -13 5 -13 10 0 25 -19 6 -36 -37z"/>
<path d="M3953 575 c4 -12 71 -19 104 -11 43 11 23 21 -42 21 -39 0 -64 -4
-62 -10z"/>
<path d="M630 569 c0 -11 29 -19 65 -19 39 0 65 8 65 21 0 4 -29 7 -65 6 -36
-1 -65 -5 -65 -8z"/>
<path d="M895 571 c-6 -11 46 -28 115 -38 41 -6 44 -5 31 10 -23 29 -132 49
-146 28z"/>
<path d="M1108 573 c-21 -2 -38 -8 -38 -13 0 -5 21 -26 48 -46 26 -21 65 -57
88 -81 22 -24 46 -43 53 -43 7 0 36 22 64 50 29 27 70 65 92 84 22 19 36 38
32 43 -9 8 -276 14 -339 6z m222 -44 c0 -13 -27 -29 -58 -35 -32 -6 -88 18
-78 34 5 9 136 11 136 1z"/>
<path d="M1511 567 c-14 -6 -26 -18 -29 -26 -4 -11 4 -12 34 -7 62 11 114 28
114 38 0 13 -92 9 -119 -5z"/>
<path d="M1980 571 c0 -6 10 -13 23 -16 127 -29 145 -28 114 2 -20 20 -137 32
-137 14z"/>
<path d="M2164 568 c-4 -6 8 -24 30 -42 21 -17 59 -52 85 -78 30 -31 56 -48
71 -48 15 0 40 17 69 48 26 26 63 60 84 75 70 52 58 57 -147 57 -129 0 -187
-3 -192 -12z m161 -30 c19 -8 31 -8 51 1 29 13 46 7 38 -14 -8 -19 -55 -34
-87 -28 -30 6 -52 27 -42 43 8 13 8 13 40 -2z"/>
<path d="M2589 561 c-13 -11 -22 -22 -19 -25 9 -8 129 19 142 32 22 22 -96 15
-123 -7z"/>
<path d="M3086 570 c13 -13 136 -39 148 -32 5 3 -1 13 -13 24 -17 13 -40 18
-84 18 -42 0 -58 -3 -51 -10z"/>
<path d="M3260 571 c0 -5 21 -27 46 -48 25 -21 64 -57 87 -80 51 -55 76 -55
117 -3 18 22 52 54 76 71 24 16 48 39 54 49 10 20 6 20 -185 20 -113 0 -195
-4 -195 -9z m258 -35 c13 -13 -30 -36 -68 -36 -36 0 -60 14 -60 35 0 11 116
13 128 1z"/>
<path d="M3685 560 c-18 -19 -17 -20 3 -20 35 0 121 21 128 31 3 5 -21 9 -54
9 -46 0 -63 -4 -77 -20z"/>
<path d="M4372 488 c-23 -23 -13 -59 28 -100 42 -42 73 -47 78 -13 4 28 -44
73 -60 57 -18 -18 -28 -15 -28 8 0 24 32 27 73 6 36 -20 34 -4 -4 28 -33 28
-68 33 -87 14z"/>
<path d="M251 464 c-39 -33 -40 -49 -1 -29 34 18 66 19 76 4 10 -18 -13 -34
-29 -21 -11 10 -20 8 -41 -9 -50 -39 -21 -85 34 -53 51 31 80 114 44 128 -30
11 -53 6 -83 -20z"/>
<path d="M390 397 c-20 -12 -53 -35 -73 -51 -30 -23 -44 -28 -72 -23 -34 6
-35 5 -35 -30 0 -32 2 -35 24 -29 29 7 50 -15 41 -44 -6 -18 -2 -20 35 -20 38
0 40 1 30 21 -13 24 1 69 27 91 22 18 65 88 61 98 -2 5 -19 -1 -38 -13z m-30
-67 c0 -6 -7 -13 -15 -16 -8 -4 -15 -12 -15 -20 0 -18 -8 -18 -26 0 -12 13
-11 15 6 21 11 3 20 11 20 16 0 5 7 9 15 9 8 0 15 -5 15 -10z"/>
<path d="M4280 413 c0 -5 22 -37 50 -73 50 -66 60 -96 38 -118 -9 -9 -3 -12
29 -12 39 0 42 2 40 28 -2 24 2 27 31 30 29 3 32 6 32 37 0 32 -1 34 -32 29
-26 -5 -42 1 -74 24 -40 29 -98 62 -109 62 -3 0 -5 -3 -5 -7z m114 -81 c19
-14 21 -20 10 -30 -17 -16 -24 -15 -24 2 0 8 -7 17 -16 20 -8 3 -12 10 -9 16
8 14 13 13 39 -8z"/>
<path d="M4222 338 c-10 -13 -15 -34 -13 -55 1 -14 50 -73 61 -73 4 0 -1 17
-11 37 -23 45 -24 62 -4 69 24 10 36 -5 22 -26 -10 -17 -8 -24 15 -47 27 -26
28 -26 47 -9 20 18 20 20 3 48 -25 44 -100 79 -120 56z"/>
<path d="M435 326 c-40 -18 -78 -60 -73 -83 5 -29 43 -28 67 3 19 25 20 28 5
39 -20 14 -3 31 21 21 19 -7 19 -29 0 -66 -20 -39 -4 -38 29 1 30 35 33 61 10
83 -18 19 -20 19 -59 2z"/>
<path d="M4450 246 c0 -8 14 -26 31 -40 52 -44 67 -29 23 23 -27 33 -54 41
-54 17z"/>
<path d="M211 215 c-34 -40 -37 -45 -18 -45 18 0 67 48 67 65 0 24 -16 17 -49
-20z"/>
</g>
</svg>
