<?xml version="1.0" standalone="no"?>
<!DOCTYPE svg PUBLIC "-//W3C//DTD SVG 20010904//EN"
 "http://www.w3.org/TR/2001/REC-SVG-20010904/DTD/svg10.dtd">
<svg version="1.0" xmlns="http://www.w3.org/2000/svg"
 width="470.000000pt" height="450.000000pt" viewBox="0 0 470.000000 450.000000"
 preserveAspectRatio="xMidYMid meet">
<metadata>
Created by potrace 1.12, written by Peter Selinger 2001-2015
</metadata>
<g transform="translate(0.000000,450.000000) scale(0.100000,-0.100000)"
fill="#000000" stroke="none">
<path d="M1239 4484 c-7 -9 -15 -44 -17 -78 -3 -50 0 -66 15 -85 27 -33 49
-22 63 30 12 42 9 70 -12 122 -12 31 -29 35 -49 11z"/>
<path d="M2320 4464 c-14 -36 -12 -126 4 -146 34 -46 66 -8 66 77 0 31 -5 65
-10 76 -15 28 -49 24 -60 -7z"/>
<path d="M3430 4475 c-15 -18 -25 -95 -16 -129 3 -13 13 -31 21 -40 46 -46 85
68 51 149 -16 37 -36 44 -56 20z"/>
<path d="M59 4442 c5 -9 19 -26 30 -36 33 -30 82 -113 91 -153 8 -35 6 -39
-36 -78 -24 -23 -44 -47 -44 -53 0 -20 15 -13 38 18 31 41 42 38 42 -15 0 -39
5 -50 43 -90 38 -39 49 -45 85 -45 43 0 51 -7 30 -28 -9 -9 -9 -12 0 -12 16 0
32 33 33 67 0 15 4 37 8 48 7 18 13 14 63 -35 61 -61 88 -123 88 -200 0 -45
25 -90 50 -90 19 0 10 -54 -15 -86 -17 -22 -33 -66 -46 -125 -23 -107 -38
-140 -78 -168 -39 -28 -76 -27 -106 3 -33 33 -40 67 -21 105 9 17 19 31 21 31
3 0 11 -16 19 -35 16 -37 49 -48 74 -23 34 34 -2 88 -59 88 -67 0 -104 -55
-88 -130 8 -34 27 -56 79 -92 l25 -17 -32 0 c-35 -1 -86 35 -107 78 -8 14 -17
46 -21 71 -10 62 -21 80 -30 51 -17 -55 25 -169 75 -200 l29 -17 -30 -18 c-50
-29 -90 -133 -74 -193 9 -35 20 -17 29 49 12 80 82 154 138 146 20 -3 18 -7
-23 -35 -73 -51 -88 -133 -33 -184 61 -57 168 1 121 66 -21 28 -66 13 -74 -25
-3 -17 -9 -30 -14 -30 -12 0 -39 42 -39 63 0 56 65 106 113 88 53 -21 80 -69
106 -190 14 -63 28 -102 46 -122 23 -28 25 -39 25 -121 0 -83 -2 -95 -29 -137
-17 -28 -35 -77 -45 -123 -26 -130 -68 -188 -135 -188 -59 0 -100 76 -71 131
14 25 38 24 42 -2 2 -12 12 -28 23 -35 18 -12 24 -11 43 2 45 32 11 94 -52 94
-106 0 -128 -152 -30 -209 41 -25 45 -44 7 -35 -62 14 -108 66 -119 134 -10
66 -14 80 -24 80 -13 0 -13 -65 1 -115 6 -22 28 -56 49 -77 l38 -38 -38 -38
c-21 -21 -43 -55 -49 -77 -14 -50 -14 -115 -1 -115 10 0 14 14 24 80 11 68 57
120 119 134 38 9 34 -10 -7 -35 -98 -57 -76 -209 30 -209 63 0 97 62 52 94
-19 13 -25 14 -43 2 -11 -7 -21 -23 -23 -35 -4 -26 -28 -27 -42 -2 -30 57 12
131 74 131 63 0 107 -62 132 -187 10 -47 28 -96 45 -124 27 -42 29 -54 29
-137 0 -82 -2 -93 -25 -121 -18 -20 -32 -59 -46 -122 -26 -121 -53 -169 -106
-190 -48 -18 -113 32 -113 88 0 21 27 63 39 63 5 0 11 -13 14 -30 8 -38 53
-53 74 -25 47 65 -60 123 -121 66 -55 -52 -38 -137 37 -188 38 -25 40 -28 19
-31 -56 -8 -126 66 -138 146 -9 66 -20 84 -29 49 -16 -60 24 -164 74 -193 l30
-18 -29 -17 c-49 -31 -89 -134 -74 -194 5 -20 9 -23 15 -13 5 7 9 22 9 33 1
82 71 175 131 174 l34 0 -25 -17 c-52 -36 -71 -58 -79 -92 -16 -76 21 -130 90
-130 40 0 69 24 69 57 0 53 -69 58 -85 6 -12 -41 -20 -41 -41 -2 -19 38 -12
72 21 105 30 30 67 31 106 3 40 -28 57 -64 79 -170 13 -58 28 -101 45 -123 25
-32 34 -86 15 -86 -25 0 -50 -45 -50 -90 0 -77 -27 -139 -88 -200 -50 -49 -56
-53 -63 -35 -4 11 -8 33 -8 48 -1 34 -17 67 -33 67 -9 0 -9 -3 0 -12 21 -21
13 -28 -29 -28 -36 0 -48 -6 -85 -44 -39 -39 -44 -48 -44 -90 0 -25 -4 -46 -9
-46 -5 0 -21 14 -35 32 -14 18 -28 30 -31 26 -11 -10 13 -46 50 -73 30 -23 33
-31 28 -58 -9 -48 -36 -96 -88 -156 -25 -29 -43 -56 -40 -59 2 -3 28 15 57 39
106 89 181 110 216 62 21 -29 82 -70 82 -55 0 4 -14 21 -30 37 -17 16 -30 32
-30 36 0 4 18 7 40 7 44 1 101 30 125 65 8 12 15 38 15 59 0 26 4 38 14 38 8
0 17 -6 19 -12 4 -8 6 -9 6 -2 2 20 -26 35 -78 41 -28 3 -51 9 -51 14 0 4 21
29 48 56 54 56 121 83 199 83 47 0 55 3 79 34 24 29 31 33 56 26 15 -5 41 -18
57 -29 16 -12 71 -30 126 -40 97 -20 107 -24 158 -70 37 -33 36 -74 -2 -112
-35 -34 -78 -38 -112 -10 -23 19 -23 20 -4 26 39 13 50 22 53 49 3 20 -2 28
-22 36 -34 13 -56 3 -71 -32 -28 -67 16 -123 97 -123 48 0 53 2 94 49 48 55
62 56 44 2 -20 -62 -68 -91 -185 -111 -34 -6 -37 -8 -21 -17 43 -24 182 21
207 68 16 30 23 30 43 -1 31 -47 151 -86 201 -65 24 10 12 15 -54 25 -88 12
-131 45 -151 114 -11 41 9 42 32 2 24 -44 65 -66 117 -65 37 1 49 7 73 33 30
34 33 46 18 85 -13 35 -50 52 -79 37 -40 -22 -21 -81 26 -81 30 0 29 -15 -2
-36 -52 -34 -135 10 -135 72 0 52 63 99 159 119 107 23 136 33 168 58 25 20
39 22 148 22 115 0 122 -1 161 -28 27 -18 69 -33 125 -43 94 -18 131 -34 165
-71 42 -46 25 -108 -36 -133 -24 -10 -36 -10 -59 0 -38 15 -49 40 -18 40 42 0
64 49 35 78 -33 33 -92 -7 -92 -61 0 -44 25 -73 75 -88 31 -10 43 -9 75 7 21
11 49 35 62 54 25 38 39 40 34 6 -9 -63 -74 -112 -161 -123 -70 -8 -75 -23 -7
-23 70 0 129 23 161 64 l25 31 25 -31 c32 -41 91 -64 161 -64 66 0 64 15 -3
24 -78 10 -129 41 -154 92 -27 58 -12 83 19 30 32 -54 67 -71 139 -67 12 1 34
11 48 24 50 42 29 137 -30 137 -55 0 -61 -69 -7 -85 40 -12 40 -20 1 -41 -38
-19 -72 -12 -105 21 -36 37 -32 80 12 120 35 32 50 38 188 69 38 9 84 27 102
41 31 24 40 25 156 25 119 0 124 -1 165 -29 27 -18 67 -33 110 -41 100 -17
131 -29 169 -62 45 -40 48 -95 8 -127 -29 -23 -74 -27 -105 -11 -26 15 -24 27
6 34 53 13 50 86 -4 86 -37 0 -61 -28 -61 -72 0 -28 7 -42 31 -62 56 -47 148
-25 184 44 31 59 48 26 19 -36 -21 -44 -68 -72 -143 -85 -70 -13 -81 -29 -20
-29 65 0 120 21 160 61 l36 36 29 -34 c34 -40 90 -62 157 -63 66 0 59 16 -14
29 -98 17 -159 68 -159 133 0 19 6 15 44 -27 42 -49 45 -50 99 -50 65 0 93 20
103 71 9 46 -16 84 -55 84 -57 0 -68 -53 -16 -80 17 -8 32 -16 35 -18 13 -9
-37 -32 -68 -32 -24 0 -42 8 -63 29 -33 33 -35 50 -14 91 21 41 73 69 157 85
86 16 120 28 158 55 33 23 80 27 80 6 0 -23 47 -46 94 -46 68 0 152 -36 203
-86 23 -24 43 -48 43 -53 0 -5 -21 -13 -47 -16 -55 -7 -75 -16 -81 -36 -4 -11
-2 -12 9 -1 22 20 29 14 29 -24 0 -30 8 -45 43 -79 35 -36 51 -44 97 -50 l54
-7 -37 -30 c-20 -17 -37 -34 -37 -39 0 -17 59 20 82 51 37 50 103 36 200 -43
94 -76 105 -72 32 13 -83 97 -107 174 -61 199 24 13 70 72 62 80 -3 2 -20 -10
-38 -27 -18 -18 -36 -32 -40 -32 -4 0 -7 19 -7 41 0 78 -59 139 -135 139 -37
0 -43 8 -23 28 9 9 9 12 0 12 -16 0 -32 -42 -32 -85 0 -19 -5 -37 -10 -40 -6
-3 -34 18 -64 48 -59 59 -86 123 -86 204 0 36 -5 46 -30 65 -37 27 -38 49 -1
107 18 28 33 73 41 116 16 92 41 147 78 173 39 28 74 28 106 -1 39 -33 44 -77
12 -113 l-25 -29 -1 26 c0 31 -17 49 -45 49 -46 0 -62 -57 -23 -84 51 -36 120
-11 137 49 17 61 -11 120 -72 151 -35 18 -27 35 12 24 68 -19 102 -62 116
-145 4 -22 9 -49 12 -59 11 -38 25 13 18 62 -9 60 -37 115 -72 140 l-28 20 28
22 c50 40 87 142 68 191 -10 28 -13 23 -31 -63 -13 -66 -40 -105 -86 -124 -67
-28 -85 -13 -29 23 47 31 66 63 67 114 0 36 -5 48 -31 71 -53 47 -131 29 -131
-31 0 -42 25 -59 58 -40 15 8 28 25 30 37 6 41 37 18 48 -35 5 -25 0 -37 -23
-63 -44 -49 -85 -46 -133 8 -31 34 -40 57 -60 142 -15 67 -30 111 -46 130 -22
25 -24 38 -24 122 0 84 3 98 24 127 14 19 28 48 31 65 31 149 38 169 72 207
28 31 42 39 70 39 64 0 104 -72 73 -131 -14 -26 -27 -24 -34 6 -14 56 -86 52
-86 -5 0 -61 81 -81 131 -31 24 24 29 38 29 76 0 40 -5 52 -33 79 -18 17 -41
36 -52 42 -30 18 -11 27 28 15 34 -12 76 -50 95 -86 5 -11 13 -44 17 -72 4
-29 11 -53 16 -53 5 0 9 24 9 53 0 66 -30 132 -70 155 -16 9 -30 19 -30 22 0
3 14 13 30 22 40 23 70 89 70 156 0 28 -4 52 -9 52 -5 0 -12 -24 -16 -52 -4
-29 -12 -62 -17 -73 -19 -36 -61 -74 -95 -86 -39 -12 -58 -3 -28 15 11 6 34
25 52 42 28 27 33 39 33 79 0 38 -5 52 -29 76 -50 50 -131 30 -131 -31 0 -57
72 -61 86 -5 7 30 20 32 34 6 31 -59 -9 -131 -73 -131 -28 0 -42 8 -70 39 -34
38 -41 58 -72 207 -3 17 -17 46 -31 65 -21 29 -24 43 -24 127 0 84 2 97 24
122 16 19 31 63 46 130 20 85 29 108 60 142 48 54 89 57 133 8 23 -26 28 -38
23 -63 -10 -50 -46 -79 -46 -37 0 27 -47 57 -69 43 -24 -15 -26 -58 -2 -82 29
-29 73 -27 110 5 26 22 31 33 31 69 0 60 -15 88 -61 116 -47 29 -50 44 -7 35
71 -14 113 -66 124 -153 7 -59 19 -75 28 -39 13 53 -23 148 -71 186 l-28 22
28 20 c35 25 63 80 72 140 7 49 -7 100 -18 62 -3 -10 -8 -37 -12 -59 -14 -83
-48 -126 -116 -145 -39 -11 -47 6 -12 24 61 31 89 90 72 151 -17 60 -86 85
-137 49 -39 -27 -23 -84 23 -84 28 0 45 18 45 49 l1 26 25 -29 c32 -36 27 -80
-12 -113 -32 -29 -67 -29 -106 -1 -37 26 -62 81 -78 173 -8 43 -23 88 -41 116
-37 58 -36 80 1 107 25 19 30 29 30 65 0 81 27 145 86 204 30 30 58 51 64 48
5 -3 10 -21 10 -40 0 -43 16 -85 32 -85 9 0 9 3 0 12 -20 20 -14 28 23 28 76
0 135 61 135 139 0 22 3 41 7 41 4 0 22 -14 40 -32 18 -17 35 -29 38 -27 8 8
-38 67 -62 80 -46 25 -22 102 61 199 73 85 62 89 -32 13 -97 -79 -163 -93
-200 -43 -23 31 -82 68 -82 51 0 -5 17 -22 37 -39 l37 -30 -54 -7 c-46 -6 -62
-14 -97 -50 -35 -34 -43 -49 -43 -79 0 -38 -7 -44 -29 -23 -11 10 -13 9 -9 -2
6 -20 26 -29 81 -36 26 -3 47 -11 47 -16 0 -5 -20 -29 -43 -53 -51 -50 -135
-86 -203 -86 -47 0 -94 -23 -94 -46 0 -21 -47 -17 -80 6 -38 27 -72 39 -159
55 -85 17 -143 51 -162 97 -27 65 46 128 119 102 36 -13 36 -27 -1 -44 -54
-25 -45 -80 14 -80 39 0 64 38 55 84 -10 51 -38 71 -103 71 -54 0 -57 -1 -99
-50 -38 -42 -44 -46 -44 -27 0 65 61 116 159 133 73 13 80 29 14 29 -67 -1
-123 -23 -157 -63 l-29 -34 -36 36 c-40 40 -95 61 -160 61 -61 0 -50 -16 20
-29 75 -13 122 -41 143 -85 29 -62 12 -95 -19 -36 -52 101 -215 86 -215 -19 0
-44 24 -71 63 -71 52 0 54 73 2 86 -30 7 -32 19 -6 34 31 16 76 12 105 -11 40
-32 37 -87 -8 -127 -38 -33 -69 -45 -169 -62 -43 -8 -83 -23 -110 -41 -41 -28
-46 -29 -165 -29 -116 0 -125 1 -156 25 -30 23 -99 45 -187 59 -52 9 -127 60
-135 92 -10 41 7 77 48 99 35 19 38 19 72 2 44 -21 45 -30 4 -42 -54 -16 -48
-85 7 -85 59 0 80 95 30 137 -14 13 -36 23 -48 24 -72 4 -107 -13 -139 -67
-31 -53 -46 -28 -19 30 25 51 76 82 154 92 68 10 68 24 0 24 -72 0 -136 -28
-162 -70 l-19 -31 -22 31 c-31 44 -92 70 -163 70 -70 0 -68 -15 4 -23 88 -11
153 -60 161 -124 5 -34 -8 -31 -34 7 -13 19 -41 43 -62 54 -32 16 -44 17 -75
7 -50 -15 -75 -44 -75 -88 0 -56 63 -96 94 -59 21 26 8 60 -28 72 -32 10 -33
12 -17 27 25 26 60 30 94 13 77 -40 64 -123 -25 -169 -16 -8 -67 -22 -113 -31
-56 -10 -98 -25 -125 -43 -39 -27 -46 -28 -161 -28 -114 0 -122 1 -160 27 -25
17 -75 35 -134 47 -51 12 -101 26 -110 33 -53 40 -71 63 -71 93 0 61 83 105
135 71 31 -21 32 -36 2 -36 -49 0 -67 -62 -23 -81 30 -14 63 2 76 37 15 39 12
51 -18 85 -51 57 -149 41 -190 -32 -23 -40 -43 -39 -32 2 20 69 63 102 151
114 65 10 78 15 54 25 -54 20 -170 -17 -201 -65 -20 -31 -27 -31 -43 -1 -25
47 -164 92 -207 68 -16 -9 -13 -11 21 -17 117 -20 165 -49 185 -111 18 -53 4
-53 -43 1 -41 46 -46 49 -94 49 -41 1 -57 -4 -76 -22 -31 -29 -38 -61 -22
-100 15 -35 37 -45 71 -32 20 8 25 16 22 36 -3 27 -14 36 -53 49 -19 6 -19 7
4 26 32 26 74 24 110 -7 41 -34 42 -80 4 -115 -51 -46 -61 -50 -158 -70 -55
-10 -110 -28 -126 -40 -16 -11 -42 -24 -57 -29 -25 -7 -32 -3 -56 26 -24 31
-32 34 -79 34 -77 0 -144 28 -199 82 -27 26 -48 51 -48 56 0 5 24 13 54 16 51
7 87 28 72 43 -3 3 -6 1 -6 -5 0 -7 -7 -12 -15 -12 -11 0 -15 11 -15 38 0 21
-7 47 -15 59 -24 35 -81 64 -125 65 -22 0 -40 3 -40 7 0 4 14 20 30 36 17 16
30 33 30 37 0 15 -61 -26 -82 -54 -13 -19 -28 -28 -47 -28 -36 0 -110 39 -170
90 -51 43 -67 50 -52 22z m174 -137 c26 -25 36 -55 18 -55 -9 0 -71 66 -71 75
0 13 28 2 53 -20z m4297 6 c0 -16 -51 -71 -66 -71 -24 0 -16 27 17 54 32 27
49 33 49 17z m-4192 -36 c-12 -26 -12 -24 69 -139 48 -68 10 -61 -89 17 -31
24 -44 29 -73 24 -35 -6 -35 -5 -35 30 0 32 2 35 24 29 29 -7 50 15 41 44 -6
18 -2 20 34 20 40 0 40 -1 29 -25z m146 -16 c30 -35 33 -61 10 -83 -19 -19
-17 -19 -57 -2 -42 18 -80 59 -75 83 5 26 41 28 63 3 16 -17 17 -25 7 -40 -13
-21 -1 -35 23 -26 19 7 19 29 0 66 -20 39 -4 38 29 -1z m3775 -6 c-10 -21 -19
-43 -19 -50 0 -16 18 -26 36 -19 12 5 12 9 2 26 -11 17 -9 23 14 47 27 26 28
26 47 9 20 -18 20 -20 3 -48 -20 -35 -83 -71 -107 -62 -39 15 -36 64 8 112 30
33 37 27 16 -15z m178 10 c-2 -25 2 -28 31 -31 29 -3 32 -6 32 -37 0 -33 -1
-34 -30 -28 -25 4 -42 -1 -83 -29 -128 -85 -137 -82 -57 22 50 66 60 96 38
118 -9 9 -3 12 29 12 39 0 42 -2 40 -27z m-4147 -119 c51 -31 80 -114 44 -128
-30 -11 -53 -6 -83 20 -39 33 -40 49 -1 29 34 -18 66 -19 76 -4 10 18 -13 34
-29 21 -11 -10 -20 -8 -41 9 -35 28 -34 60 2 68 2 1 16 -6 32 -15z m4187 -24
c4 -31 -42 -69 -60 -51 -17 17 -27 13 -27 -9 0 -24 32 -27 73 -6 36 20 34 4
-4 -28 -83 -70 -137 8 -59 86 44 44 74 47 77 8z m-3154 -60 c29 -27 70 -65 92
-84 22 -19 36 -38 32 -43 -12 -11 -363 -10 -374 1 -4 4 12 25 37 45 24 20 65
57 91 84 26 26 52 47 59 47 6 0 35 -22 63 -50z m1096 -7 c26 -27 63 -61 84
-76 70 -53 58 -57 -153 -57 -211 0 -221 4 -154 57 20 15 58 49 83 75 60 62 81
62 140 1z m1106 -5 c29 -29 69 -69 91 -88 l39 -35 -194 -3 c-107 -1 -197 0
-200 4 -3 3 16 25 42 48 27 22 67 60 89 84 23 23 50 42 61 42 11 0 44 -24 72
-52z m-2907 -84 c8 -5 -24 -44 -35 -44 -7 0 -13 -4 -13 -10 0 -25 -19 -6 -36
37 -11 27 -20 51 -22 55 -3 6 92 -28 106 -38z m3580 28 c-1 -4 -11 -28 -21
-53 -17 -43 -20 -45 -41 -36 -13 6 -27 20 -32 32 -8 17 -3 23 36 42 49 23 64
27 58 15z m-3166 -42 c-13 -10 -43 -22 -67 -26 -44 -6 -84 1 -72 13 11 10 99
32 132 32 l30 0 -23 -19z m540 4 c32 -9 58 -21 58 -25 0 -13 -92 -10 -119 4
-30 15 -39 37 -15 37 10 0 44 -7 76 -16z m556 4 c-7 -22 -51 -38 -100 -38 -49
0 -65 16 -25 25 120 28 130 29 125 13z m544 -9 c58 -15 56 -29 -4 -29 -51 0
-98 19 -98 40 0 10 34 6 102 -11z m549 -11 c-17 -13 -40 -18 -84 -18 -77 0
-66 15 24 34 74 15 92 11 60 -16z m577 -1 c25 -11 23 -12 -32 -15 -50 -3 -63
0 -80 19 l-21 21 53 -6 c29 -4 65 -12 80 -19z m-3054 7 c36 -14 12 -24 -49
-22 -62 3 -80 10 -52 21 18 8 83 8 101 1z m3326 -14 c8 -5 12 -10 10 -12 -11
-8 -130 5 -124 13 7 12 95 11 114 -1z m-3470 -101 c0 -52 -3 -70 -12 -67 -25
9 -18 138 7 138 3 0 5 -32 5 -71z m3542 -17 c0 -19 -5 -39 -11 -45 -8 -8 -11
8 -10 59 0 57 2 65 10 44 6 -14 11 -40 11 -58z m-3362 17 c0 -26 -14 -30 -38
-13 -30 21 -27 31 8 31 22 0 30 -5 30 -18z m3130 -15 c0 -19 7 -29 30 -37 17
-6 30 -19 30 -28 0 -23 25 -42 47 -35 17 6 18 -54 18 -1464 0 -1410 -1 -1470
-18 -1464 -22 7 -47 -12 -47 -35 0 -9 -13 -22 -30 -28 -23 -9 -30 -18 -30 -37
l0 -26 -1555 0 -1555 0 0 25 c0 20 -6 27 -30 32 -19 3 -30 12 -30 22 0 22 -19
41 -41 41 -15 0 -17 59 -24 721 -4 396 -4 1058 0 1470 7 688 9 749 24 749 22
0 41 19 41 41 0 10 11 19 30 23 24 4 30 11 30 30 0 13 4 26 10 28 5 2 705 2
1555 0 l1545 -2 0 -26z m71 6 c-30 -26 -51 -25 -51 0 0 17 7 20 38 20 l37 -1
-24 -19z m-3274 -64 c-11 -27 -27 -17 -27 16 0 30 1 31 16 16 9 -9 14 -24 11
-32z m3333 9 c0 -36 -5 -41 -30 -25 -12 7 -12 12 0 34 19 36 30 32 30 -9z
m-3448 -205 c-6 -43 -19 -70 -34 -70 -13 0 -5 71 13 116 10 27 12 27 19 9 4
-11 5 -36 2 -55z m3564 -44 l5 -51 -20 24 c-17 18 -21 36 -20 85 l1 61 14 -34
c9 -19 18 -57 20 -85z m-3566 -246 c0 -189 0 -191 -20 -180 -12 6 -36 32 -55
58 -19 26 -50 60 -69 75 -49 38 -46 61 17 122 28 29 65 66 80 83 16 18 32 32
38 32 5 0 9 -79 9 -190z m3577 148 c15 -18 52 -56 81 -84 28 -28 52 -59 52
-70 0 -10 -21 -40 -47 -65 -27 -25 -66 -65 -88 -90 l-40 -44 -5 105 c-6 133
-1 280 10 280 5 0 21 -15 37 -32z m-3577 -455 c0 -30 -4 -52 -9 -49 -11 7 -31
87 -31 123 l1 28 19 -24 c15 -17 20 -38 20 -78z m3570 64 c0 -41 -30 -128 -42
-121 -12 8 -4 93 12 124 14 27 30 25 30 -3z m-3574 -513 c-6 -31 -31 -62 -41
-52 -7 7 15 109 29 133 10 18 11 17 14 -14 2 -19 1 -49 -2 -67z m3559 44 c8
-28 15 -63 15 -77 l0 -25 -21 20 c-13 14 -22 39 -26 77 -7 73 11 76 32 5z
m-3555 -308 c0 -109 -4 -190 -9 -190 -5 0 -24 17 -43 37 -18 21 -57 61 -85 90
-29 29 -53 57 -53 63 0 6 24 34 53 63 28 29 67 69 85 90 19 20 38 37 43 37 5
0 9 -81 9 -190z m3601 126 c17 -25 49 -59 70 -76 22 -17 39 -39 39 -48 0 -9
-21 -38 -47 -63 -27 -25 -65 -65 -86 -90 -29 -34 -40 -41 -46 -30 -11 17 -15
286 -5 336 5 30 9 33 24 25 11 -6 33 -30 51 -54z m-3603 -428 c3 -49 2 -60 -8
-51 -15 14 -41 123 -33 136 14 22 37 -26 41 -85z m3557 -3 c-21 -72 -39 -72
-33 0 3 35 12 62 24 76 l19 21 3 -21 c2 -12 -4 -46 -13 -76z m12 -451 c6 -47
-8 -60 -26 -25 -15 28 -25 98 -16 118 6 15 10 13 21 -15 8 -18 17 -53 21 -78z
m-3567 42 c0 -38 -6 -61 -19 -77 -28 -35 -32 -21 -15 50 23 99 34 108 34 27z
m3605 -174 c19 -26 50 -60 69 -75 49 -38 46 -61 -16 -122 -29 -29 -66 -66 -81
-83 -16 -18 -32 -32 -37 -32 -11 0 -16 132 -12 278 3 98 4 102 23 91 11 -5 35
-31 54 -57z m-3605 -132 c0 -112 -4 -190 -9 -190 -6 0 -22 14 -38 32 -15 17
-52 54 -80 83 -29 28 -53 60 -53 71 0 10 21 40 48 65 26 26 63 65 83 88 20 23
39 41 42 41 4 0 7 -85 7 -190z m3553 -308 l-18 -57 -3 58 c-2 44 2 66 15 85
l18 27 3 -28 c2 -15 -5 -53 -15 -85z m-3563 68 c12 -22 16 -107 7 -117 -9 -8
-27 42 -34 94 -6 46 8 59 27 23z m3460 -255 c0 -41 -11 -45 -30 -9 -12 22 -12
27 0 34 25 16 30 11 30 -25z m-3333 9 c3 -8 -2 -23 -11 -32 -15 -15 -16 -14
-16 16 0 33 16 43 27 16z m-107 -76 c-1 -66 -2 -71 -15 -54 -15 20 -21 107 -8
119 17 18 23 1 23 -65z m3539 19 c-1 -76 -18 -89 -18 -14 -1 43 3 66 9 62 6
-3 10 -25 9 -48z m-158 -7 l24 -19 -37 -1 c-31 0 -38 3 -38 20 0 25 21 26 51
0z m-3201 -7 c0 -13 -9 -18 -30 -19 -32 -1 -37 5 -18 24 18 18 48 15 48 -5z
m3417 -170 c-2 -2 -26 7 -53 19 -43 20 -48 25 -40 44 5 11 19 25 30 30 19 8
24 4 44 -40 12 -27 21 -51 19 -53z m-3627 87 c0 -5 6 -10 13 -10 11 0 43 -39
35 -44 -14 -10 -109 -44 -106 -38 2 4 11 28 22 55 17 43 36 62 36 37z m3510
-12 c0 -20 -120 -23 -127 -3 -2 6 23 10 62 10 36 0 65 -3 65 -7z m-3320 -7 c0
-13 -26 -21 -65 -21 -36 0 -65 8 -65 19 0 3 29 7 65 8 36 1 65 -2 65 -6z m231
-1 c20 -6 43 -18 50 -27 13 -15 10 -16 -31 -10 -69 10 -121 27 -115 38 8 12
51 12 96 -1z m456 -3 c4 -5 -10 -24 -32 -43 -22 -19 -63 -57 -92 -84 -28 -28
-57 -50 -64 -50 -7 0 -31 19 -53 43 -23 24 -62 60 -88 81 -27 20 -48 41 -48
46 0 5 17 11 38 13 63 8 330 2 339 -6z m183 5 c0 -10 -52 -27 -114 -38 -30 -5
-38 -4 -34 7 3 8 15 20 29 26 27 14 119 18 119 5z m487 -15 c31 -30 13 -31
-114 -2 -13 3 -23 10 -23 16 0 18 117 6 137 -14z m423 8 c0 -8 -17 -27 -37
-42 -21 -15 -58 -49 -84 -75 -29 -31 -54 -48 -69 -48 -15 0 -41 17 -71 48 -26
26 -64 61 -85 78 -22 18 -34 36 -30 42 5 9 63 12 192 12 154 0 184 -2 184 -15z
m172 3 c-13 -13 -133 -40 -142 -32 -3 3 6 14 19 25 27 22 145 29 123 7z m509
-6 c32 -27 14 -31 -60 -16 -90 19 -101 34 -24 34 44 0 67 -5 84 -18z m419 -2
c-6 -10 -30 -33 -54 -49 -24 -17 -58 -49 -76 -71 -41 -52 -66 -52 -117 3 -23
23 -62 59 -87 80 -25 21 -46 43 -46 48 0 5 82 9 195 9 191 0 195 0 185 -20z
m176 11 c-7 -10 -93 -31 -128 -31 -20 0 -21 1 -3 20 14 16 31 20 77 20 33 0
57 -4 54 -9z m643 -97 c38 -32 40 -48 4 -28 -41 21 -73 18 -73 -6 0 -23 10
-26 28 -8 16 16 64 -29 60 -57 -5 -34 -36 -29 -78 13 -78 78 -24 156 59 86z
m-4125 10 c36 -14 7 -97 -44 -128 -55 -32 -84 14 -34 53 21 17 30 19 41 9 16
-13 39 3 29 21 -10 15 -42 14 -76 -4 -39 -20 -38 -4 1 29 30 26 53 31 83 20z
m4053 -122 c41 -28 58 -33 83 -29 29 6 30 5 30 -28 0 -31 -3 -34 -32 -37 -29
-3 -33 -6 -31 -30 2 -26 -1 -28 -40 -28 -32 0 -38 3 -29 12 22 22 12 52 -38
118 -80 104 -71 107 57 22z m-3980 1 c-13 -21 -31 -44 -40 -51 -26 -22 -40
-67 -27 -91 10 -20 8 -21 -30 -21 -37 0 -41 2 -35 20 9 29 -12 51 -41 44 -22
-6 -24 -3 -24 29 0 35 1 36 35 30 28 -5 42 0 72 23 58 45 108 74 111 64 2 -5
-8 -26 -21 -47z m3901 -42 c9 -5 25 -23 34 -39 17 -28 17 -30 -3 -48 -19 -17
-20 -17 -47 9 -23 23 -25 30 -15 47 14 21 2 36 -22 26 -20 -7 -19 -24 4 -69
10 -20 15 -37 11 -37 -11 0 -60 59 -61 73 -6 62 30 76 99 38z m-3814 3 c23
-22 20 -48 -10 -83 -33 -39 -49 -40 -29 -1 19 37 19 59 0 66 -24 10 -41 -7
-21 -21 15 -11 14 -14 -5 -39 -24 -31 -62 -32 -67 -3 -5 23 33 65 73 83 39 17
41 17 59 -2z m4010 -95 c44 -52 29 -67 -23 -23 -33 27 -41 54 -17 54 8 0 26
-14 40 -31z m-4244 6 c0 -17 -49 -65 -67 -65 -19 0 -16 5 18 45 33 37 49 44
49 20z"/>
<path d="M303 4205 c-10 -11 -9 -15 7 -20 11 -4 20 -11 20 -16 0 -5 7 -9 15
-9 8 0 15 5 15 10 0 6 -7 13 -15 16 -8 4 -15 12 -15 20 0 18 -11 17 -27 -1z"/>
<path d="M4380 4196 c0 -8 -8 -17 -17 -20 -12 -5 -13 -10 -5 -18 8 -8 18 -5
36 9 19 15 22 23 13 32 -15 15 -27 14 -27 -3z"/>
<path d="M1210 3991 c-14 -11 -23 -21 -20 -22 22 -5 140 -4 140 1 0 14 -29 31
-62 36 -25 4 -40 1 -58 -15z"/>
<path d="M2323 4003 c-29 -6 -49 -31 -36 -44 7 -7 19 -6 36 2 21 9 33 10 53 0
29 -13 46 -7 38 14 -4 10 -63 40 -68 34 -1 -1 -11 -4 -23 -6z"/>
<path d="M3402 3988 c-25 -25 -12 -34 48 -32 69 1 84 9 56 30 -24 17 -88 18
-104 2z"/>
<path d="M868 3782 c-9 -4 -42 -31 -72 -60 -74 -71 -84 -124 -33 -180 l21 -22
-23 -40 c-22 -40 -26 -88 -6 -82 6 1 10 12 10 25 0 31 49 37 67 8 16 -27 38
-27 38 -1 0 15 -12 26 -41 38 l-40 17 21 28 c17 21 30 27 61 27 47 0 50 14 9
35 -32 17 -36 29 -20 69 13 36 63 36 86 1 21 -32 34 -32 34 2 0 16 11 39 27
55 30 31 43 35 43 13 0 -26 31 -65 51 -65 25 0 24 27 -1 35 -15 5 -20 15 -20
42 0 33 2 35 25 29 15 -4 25 -2 25 4 0 22 -33 22 -76 0 l-44 -23 -23 21 c-24
22 -91 36 -119 24z m106 -38 c14 -14 14 -18 0 -45 -11 -22 -19 -28 -27 -20 -7
5 -32 11 -56 13 -54 4 -77 31 -47 54 27 19 110 18 130 -2z m-143 -81 c5 -15 7
-38 4 -51 -3 -13 -1 -30 5 -37 8 -9 3 -16 -21 -25 -28 -12 -33 -12 -45 5 -16
22 -18 88 -4 116 16 28 49 24 61 -8z"/>
<path d="M3731 3755 l-30 -26 -33 21 c-35 21 -88 27 -88 10 0 -5 11 -10 25
-10 21 0 25 -5 25 -30 0 -19 -7 -33 -20 -40 -27 -14 -25 -32 3 -28 13 2 28 15
37 35 17 38 21 39 49 16 18 -15 26 -36 30 -85 2 -18 22 -6 35 21 14 25 19 28
47 22 24 -5 35 -14 42 -35 9 -26 6 -32 -23 -56 -28 -23 -30 -28 -16 -33 10 -4
28 -7 40 -7 12 0 33 -11 45 -24 l22 -24 -38 -18 c-24 -12 -39 -27 -41 -41 -4
-29 24 -31 33 -3 5 15 15 20 41 20 32 0 34 -2 28 -25 -7 -27 12 -36 22 -10 7
16 -20 80 -37 91 -7 4 -1 16 15 33 23 24 33 65 27 119 -2 20 -94 110 -125 121
-45 18 -82 13 -115 -14z m136 -17 c35 -29 7 -54 -68 -60 -50 -4 -56 -2 -66 18
-12 25 -1 47 27 58 21 7 91 -3 107 -16z m67 -70 c23 -32 21 -101 -3 -122 -16
-15 -22 -16 -43 -4 -12 7 -24 13 -24 13 -7 0 18 110 27 121 16 19 25 18 43 -8z"/>
<path d="M1360 3750 c-11 -11 -20 -26 -20 -33 0 -7 -6 -22 -14 -32 -13 -19
-15 -18 -32 18 -17 36 -19 37 -75 37 -55 0 -77 -10 -65 -29 3 -4 24 -3 46 3
41 10 42 10 73 -28 40 -47 67 -46 83 4 14 43 47 62 93 54 88 -15 139 -109 95
-173 -27 -38 -131 -99 -191 -112 -46 -9 -53 -13 -39 -21 53 -29 228 64 263
140 26 55 -13 144 -77 177 -43 22 -115 20 -140 -5z"/>
<path d="M3226 3760 c-39 -12 -66 -38 -87 -85 -31 -66 -25 -93 29 -145 26 -25
72 -58 102 -73 53 -27 130 -37 130 -17 0 6 -12 10 -27 10 -42 0 -126 43 -178
92 -45 41 -47 44 -42 87 4 36 13 52 41 78 30 28 43 33 86 33 51 0 51 0 70 -45
16 -36 24 -45 44 -45 18 0 30 9 42 31 15 30 18 31 65 26 28 -4 51 -2 55 4 9
15 3 18 -59 25 l-56 7 -22 -37 c-11 -20 -24 -36 -28 -36 -4 0 -13 18 -20 40
-6 21 -15 41 -19 44 -17 10 -99 14 -126 6z"/>
<path d="M1130 3638 c-107 -15 -111 -17 -122 -48 -11 -34 -35 -39 -46 -10 -7
20 -7 20 -20 0 -10 -17 -10 -20 3 -20 8 0 15 -9 15 -20 0 -13 -7 -20 -19 -20
-27 0 -51 -37 -51 -79 0 -19 -5 -63 -11 -99 -15 -88 -4 -114 49 -110 27 2 40
9 47 25 5 12 21 24 36 27 19 4 31 16 42 45 18 44 31 55 67 55 21 1 25 5 22 28
-3 28 27 58 60 58 18 0 50 38 42 51 -2 4 6 13 18 20 30 15 38 28 38 60 0 50
-30 57 -170 37z m140 -4 c0 -3 -13 -10 -30 -15 -24 -9 -30 -17 -30 -40 0 -22
-5 -29 -20 -29 -12 0 -31 -16 -48 -40 -15 -21 -32 -39 -39 -40 -20 0 -85 87
-81 111 3 20 7 18 51 -21 53 -47 61 -42 17 9 -16 19 -28 36 -26 38 5 5 146 30
179 32 15 0 27 -1 27 -5z m8 -50 c2 -14 -3 -23 -17 -27 -25 -6 -31 0 -31 30 0
20 5 24 23 21 13 -2 23 -11 25 -24z m-211 -103 c67 -60 82 -92 38 -83 -14 2
-25 9 -25 14 0 5 -22 33 -50 62 -27 29 -50 58 -50 65 0 16 14 7 87 -58z m163
34 c0 -12 -88 -60 -96 -52 -2 1 6 17 18 35 15 24 27 32 49 32 19 0 29 -5 29
-15z m-257 -16 c27 -14 87 -70 87 -81 0 -4 -17 -17 -39 -27 -24 -13 -41 -30
-45 -45 -4 -18 -14 -26 -33 -28 -19 -2 -32 -12 -41 -31 -8 -16 -16 -26 -18
-24 -5 5 26 188 32 196 2 2 22 -10 43 -27 56 -45 61 -40 12 13 -54 59 -54 82
2 54z m82 -126 c-4 -10 -12 -30 -17 -45 -6 -17 -17 -28 -29 -28 -30 0 -24 44
9 69 33 25 46 26 37 4z m-91 -82 c11 -18 -6 -41 -30 -41 -17 0 -24 6 -24 18 0
10 3 22 7 25 9 10 41 8 47 -2z"/>
<path d="M3432 3639 c-19 -7 -23 -15 -20 -46 2 -27 9 -41 24 -47 11 -5 25 -23
30 -40 7 -23 18 -33 52 -44 23 -7 43 -19 43 -25 1 -7 2 -23 3 -37 1 -22 5 -25
32 -23 27 2 34 -2 48 -31 9 -19 16 -39 16 -45 0 -6 14 -14 31 -18 19 -4 34
-14 39 -29 17 -45 93 -44 104 1 4 15 2 54 -5 88 -6 34 -12 76 -13 92 -5 51
-16 74 -39 77 -14 2 -22 10 -22 23 0 11 6 19 13 18 16 -4 15 5 -1 22 -11 11
-16 10 -25 -6 -17 -27 -26 -24 -43 13 -14 31 -17 33 -104 45 -49 7 -101 14
-115 17 -14 2 -35 0 -48 -5z m137 -22 l83 -13 -36 -47 c-39 -52 -21 -50 28 2
35 37 46 39 46 8 0 -19 -74 -107 -91 -107 -2 0 -13 16 -23 34 -11 20 -31 39
-47 45 -22 8 -29 16 -29 36 0 20 -8 29 -32 40 -31 13 -31 14 -8 14 14 0 63 -5
109 -12z m-89 -43 c0 -17 -6 -24 -20 -24 -22 0 -35 22 -27 44 9 24 47 7 47
-20z m250 -45 c0 -5 -20 -30 -44 -53 -24 -24 -48 -51 -52 -59 -5 -8 -21 -19
-37 -22 -24 -6 -26 -5 -20 13 8 21 130 132 145 132 4 0 8 -5 8 -11z m-177 -31
c26 -35 20 -41 -24 -27 -44 15 -53 24 -45 44 9 24 45 15 69 -17z m227 -6 c0
-4 -18 -25 -40 -47 -22 -21 -38 -40 -36 -43 2 -2 24 11 47 28 l43 31 12 -68
c7 -37 16 -83 19 -100 8 -38 -5 -44 -20 -11 -6 14 -22 25 -40 28 -22 4 -31 11
-33 28 -3 20 -43 54 -76 65 -15 5 5 32 48 66 36 29 76 41 76 23z m-60 -167 c0
-28 -17 -42 -32 -27 -6 6 -19 29 -29 51 l-18 41 40 -20 c29 -15 39 -26 39 -45z
m68 -42 c19 -36 -12 -59 -38 -28 -15 18 -6 45 14 45 9 0 19 -8 24 -17z"/>
<path d="M780 3317 c0 -63 0 -63 36 -81 41 -19 39 -25 -19 -46 l-42 -15 -3
-64 c-3 -54 0 -67 22 -95 31 -41 82 -66 134 -66 36 0 45 6 90 55 27 30 59 74
70 97 25 52 32 109 15 115 -8 3 -13 -5 -13 -21 0 -63 -88 -196 -140 -215 -83
-29 -178 64 -156 153 4 18 18 28 48 38 57 19 62 47 14 83 -36 27 -45 56 -27
84 12 18 3 41 -15 41 -11 0 -14 -16 -14 -63z"/>
<path d="M3894 3353 c17 -58 17 -71 1 -84 -41 -34 -65 -59 -65 -69 0 -6 23
-20 50 -32 l50 -21 0 -51 c-1 -76 -50 -126 -124 -126 -32 0 -44 6 -76 42 -46
50 -90 133 -90 170 0 15 -4 30 -10 33 -19 11 -10 -78 11 -122 12 -24 43 -68
69 -96 46 -50 50 -52 98 -51 87 1 152 68 152 156 0 55 -6 63 -60 86 l-45 19
38 23 c37 22 38 23 35 79 -2 45 -7 56 -21 59 -14 3 -18 -1 -13 -15z"/>
<path d="M1305 3350 c3 -5 20 -10 36 -10 36 0 45 -18 29 -65 -12 -37 -30 -47
-30 -17 0 26 -11 34 -27 21 -17 -15 -17 -30 0 -23 12 4 44 -62 34 -72 -2 -3
-23 1 -45 8 -29 9 -38 16 -34 28 5 13 3 13 -11 1 -24 -19 -21 -29 11 -33 27
-4 27 -4 -11 -23 -47 -23 -71 -13 -75 34 -4 40 -22 41 -22 1 0 -34 30 -70 59
-70 10 0 38 7 62 15 43 15 43 15 91 -17 26 -18 48 -35 48 -38 0 -4 -16 -4 -35
-2 -37 4 -95 -14 -95 -29 0 -13 14 -11 36 6 10 8 30 14 44 14 32 0 77 -24 62
-33 -6 -3 -13 -2 -17 4 -3 5 -11 10 -16 10 -6 0 -7 -4 -4 -10 3 -5 2 -10 -4
-10 -5 0 -11 6 -14 13 -2 6 -8 9 -12 5 -12 -11 5 -28 29 -28 13 0 29 -7 36
-15 10 -12 8 -16 -11 -24 l-24 -10 23 0 c13 -1 39 -8 58 -17 19 -9 37 -14 40
-12 7 8 -7 38 -18 38 -5 0 -6 -4 -3 -10 11 -17 -11 -11 -28 8 -40 44 -7 43 57
-3 27 -19 52 -33 54 -30 3 2 -13 28 -36 57 -25 33 -37 57 -32 62 6 6 17 2 30
-9 22 -20 28 -41 8 -29 -9 5 -9 2 1 -9 18 -22 35 -22 28 1 -23 73 -36 96 -42
79 -10 -24 -35 -3 -35 29 0 25 -15 40 -25 24 -3 -5 0 -10 7 -10 10 0 9 -3 -1
-9 -12 -8 -12 -12 -2 -25 9 -10 9 -16 3 -16 -30 0 -43 79 -17 100 17 14 20 30
5 30 -16 0 -33 -43 -32 -82 1 -21 0 -38 -1 -38 -2 0 -19 21 -37 47 l-34 46 17
47 c21 60 21 73 -1 93 -20 18 -87 24 -77 7z"/>
<path d="M3332 3344 c-25 -17 -27 -35 -10 -98 13 -50 8 -65 -38 -121 l-25 -30
7 38 c6 38 -10 97 -27 97 -13 0 -11 -18 6 -44 18 -26 12 -68 -11 -87 -17 -14
-18 -5 -2 20 6 10 8 26 4 36 -9 24 -34 3 -38 -32 -3 -30 -28 -44 -29 -16 0 14
-3 12 -11 -7 -6 -14 -17 -38 -24 -55 -15 -35 -1 -47 24 -21 16 16 16 17 -3 10
-20 -7 -20 -7 -1 14 18 21 46 30 46 15 0 -5 -16 -28 -35 -52 -36 -44 -45 -69
-22 -54 7 4 32 21 55 37 23 16 46 26 49 22 11 -10 -12 -41 -30 -41 -9 0 -22
-6 -29 -14 -11 -11 -9 -13 12 -8 41 9 106 36 88 37 -33 0 -19 29 17 36 19 3
38 11 41 16 4 6 -2 7 -16 3 -15 -5 -20 -4 -16 4 4 6 3 11 -3 11 -5 0 -13 -4
-16 -10 -3 -5 -11 -10 -17 -10 -21 0 14 29 43 35 20 5 38 1 54 -9 28 -18 35
-20 35 -7 0 15 -59 34 -90 27 -40 -8 -37 3 9 37 45 31 62 33 121 12 39 -14 46
-14 67 0 17 12 23 24 22 53 0 37 -6 32 -23 -20 -6 -20 -32 -23 -71 -8 -29 11
-25 30 7 30 17 0 18 2 8 15 -7 9 -16 12 -19 7 -9 -14 -72 -44 -79 -38 -3 3 1
24 8 46 10 29 18 39 28 35 12 -4 13 -3 2 10 -17 21 -30 19 -30 -6 0 -34 -24
-16 -34 25 -11 43 0 56 47 56 15 0 27 5 27 10 0 16 -53 12 -78 -6z"/>
<path d="M3764 1551 c-29 -13 -99 -95 -124 -145 -21 -44 -28 -132 -10 -121 6
3 10 18 10 33 0 37 44 120 90 170 32 36 44 42 76 42 74 0 123 -50 124 -126 l0
-51 -50 -21 c-27 -12 -50 -26 -50 -32 0 -10 24 -35 65 -69 16 -13 16 -26 -1
-84 -5 -14 -1 -18 13 -15 14 3 19 14 21 59 3 56 2 57 -35 79 l-38 23 45 19
c24 10 48 24 52 31 13 20 9 96 -7 127 -32 62 -127 104 -181 81z"/>
<path d="M832 1533 c-56 -27 -82 -71 -82 -136 0 -62 13 -82 60 -92 44 -10 46
-23 6 -42 -36 -17 -36 -17 -36 -80 0 -47 3 -63 14 -63 18 0 27 23 15 41 -18
28 -9 57 27 84 47 36 43 64 -13 82 -48 16 -58 35 -48 92 12 70 92 121 155 100
52 -19 140 -152 140 -215 0 -16 5 -24 13 -21 17 6 10 63 -15 115 -11 23 -43
67 -70 97 -45 50 -54 55 -92 55 -22 0 -56 -8 -74 -17z"/>
<path d="M1470 1534 c-14 -7 -36 -14 -50 -14 l-25 -1 24 -10 c19 -8 21 -12 11
-24 -7 -8 -23 -15 -36 -15 -24 0 -41 -17 -29 -28 4 -4 10 -1 12 6 3 6 9 12 14
12 6 0 7 -4 4 -10 -9 -14 8 -13 23 2 9 9 12 9 12 0 0 -30 -72 -42 -104 -17
-22 17 -36 19 -36 6 0 -15 58 -33 95 -29 19 2 35 2 35 -2 0 -3 -22 -20 -48
-38 -48 -32 -48 -32 -91 -17 -24 8 -52 15 -62 15 -29 0 -59 -36 -59 -70 0 -40
18 -39 22 1 4 47 28 57 75 34 38 -19 38 -19 11 -23 -31 -4 -35 -14 -13 -32 13
-11 14 -10 10 1 -4 10 8 18 36 27 23 7 44 11 46 8 10 -10 -22 -76 -34 -72 -17
7 -17 -8 0 -23 16 -13 27 -5 27 21 0 30 18 20 30 -17 16 -47 7 -65 -29 -65
-16 0 -33 -4 -36 -10 -11 -19 61 -11 78 8 21 23 21 39 1 87 -17 43 -11 68 31
120 l25 30 -2 -40 c-1 -42 15 -85 32 -85 15 0 12 16 -5 30 -26 22 -12 100 17
100 9 0 9 -3 0 -12 -15 -15 -16 -32 -2 -23 6 3 10 1 10 -4 0 -6 -5 -11 -11
-11 -5 0 -7 -5 -4 -10 10 -16 25 -1 25 24 0 32 25 53 35 29 6 -17 19 6 42 80
7 22 -10 22 -28 0 -10 -11 -10 -14 -1 -9 20 12 14 -9 -8 -29 -14 -13 -24 -15
-31 -8 -7 7 3 26 31 59 60 73 51 79 -29 20 -51 -38 -86 -32 -43 7 20 19 37 23
27 7 -3 -5 -2 -10 3 -10 8 0 22 22 22 36 0 8 -25 2 -50 -12z"/>
<path d="M3130 1542 c0 -5 16 -29 35 -53 19 -24 35 -47 35 -51 0 -16 -28 -7
-46 14 -19 21 -19 21 1 14 19 -7 19 -6 3 10 -25 26 -39 14 -24 -21 7 -16 18
-41 24 -55 8 -19 11 -21 11 -7 1 28 26 14 29 -16 4 -35 29 -56 38 -32 4 10 2
26 -4 36 -16 25 -15 34 2 20 23 -19 29 -61 11 -87 -17 -26 -19 -44 -6 -44 17
0 33 59 27 97 l-7 38 25 -30 c46 -56 51 -71 38 -121 -17 -63 -15 -81 10 -98
25 -18 78 -22 78 -6 0 6 -12 10 -27 10 -47 0 -58 13 -47 56 10 41 34 59 34 25
0 -25 13 -27 30 -6 11 13 10 14 -2 10 -10 -4 -18 6 -28 35 -7 22 -11 43 -7 46
6 7 70 -26 75 -39 2 -4 11 -2 19 4 12 11 10 14 -14 25 l-28 12 29 11 c46 18
69 11 78 -27 11 -42 28 -33 19 10 -9 46 -42 60 -94 42 -56 -20 -73 -18 -118
14 -46 33 -49 44 -9 36 31 -7 90 12 90 27 0 12 -2 12 -38 -6 -33 -17 -74 -12
-93 11 -8 9 -8 14 -1 14 6 0 14 -4 17 -10 3 -5 11 -10 16 -10 6 0 7 5 3 11 -4
8 1 9 16 4 14 -4 20 -3 16 3 -3 5 -22 13 -41 16 -36 7 -50 35 -17 37 9 0 1 5
-18 11 -19 5 -39 14 -44 19 -6 5 -19 9 -30 9 -16 0 -17 -3 -8 -12 7 -7 20 -13
29 -13 18 0 41 -31 30 -41 -3 -4 -26 6 -49 22 -64 44 -68 46 -68 36z"/>
<path d="M3752 1273 c-7 -3 -17 -15 -22 -28 -5 -14 -20 -24 -39 -28 -17 -4
-31 -12 -31 -18 0 -6 -7 -26 -16 -45 -14 -29 -21 -33 -48 -31 -27 2 -31 -1
-32 -23 -1 -14 -2 -30 -3 -37 0 -6 -20 -18 -43 -25 -34 -11 -45 -21 -52 -44
-5 -17 -19 -35 -30 -40 -15 -6 -22 -20 -24 -47 -5 -53 16 -58 158 -38 114 17
115 17 129 49 17 37 26 40 43 13 9 -16 14 -17 25 -6 16 17 17 26 1 22 -7 -1
-13 7 -13 18 0 13 8 21 22 23 24 4 33 20 39 77 3 22 9 66 15 98 10 59 5 96
-15 109 -12 9 -44 9 -64 1z m42 -29 c7 -19 -10 -44 -31 -44 -19 0 -28 27 -13
45 16 20 36 19 44 -1z m31 -36 c-3 -18 -12 -64 -19 -101 l-12 -68 -42 31 c-59
42 -63 37 -12 -15 45 -46 48 -62 8 -51 -24 6 -98 69 -98 83 0 4 17 17 37 28
23 12 40 30 43 45 4 18 14 26 35 30 18 3 34 14 40 28 15 33 28 27 20 -10z
m-107 -31 c3 -22 -3 -29 -37 -47 l-41 -20 17 37 c32 70 55 82 61 30z m-90 -89
c9 -11 36 -40 60 -64 40 -40 52 -64 34 -64 -15 0 -137 111 -144 131 -10 27 27
26 50 -3z m-58 -57 c0 -21 -44 -62 -64 -59 -35 5 -26 38 14 53 45 16 50 17 50
6z m78 -34 c24 -24 42 -52 42 -65 0 -31 -10 -28 -55 18 -53 54 -63 50 -19 -7
l36 -47 -83 -13 c-46 -7 -95 -12 -109 -12 -23 0 -23 1 8 14 24 11 32 20 32 40
0 20 7 28 29 36 16 6 36 25 47 45 10 18 21 34 24 34 3 0 25 -19 48 -43z m-168
-71 c0 -26 -31 -41 -49 -23 -15 15 5 47 29 47 14 0 20 -7 20 -24z"/>
<path d="M879 1247 c-8 -19 -8 -42 0 -89 6 -36 11 -80 11 -99 0 -42 24 -79 51
-79 12 0 19 -7 19 -20 0 -11 -7 -20 -15 -20 -13 0 -13 -3 -3 -20 13 -20 13
-20 20 0 10 28 35 25 42 -5 8 -33 29 -41 155 -56 72 -9 108 -9 120 -2 34 21
25 83 -14 101 -15 7 -24 16 -21 20 8 14 -23 52 -42 52 -33 0 -63 30 -60 58 3
23 -1 27 -22 28 -36 0 -49 11 -67 55 -11 29 -23 41 -42 45 -15 3 -31 15 -36
27 -7 16 -20 23 -47 25 -32 3 -40 -1 -49 -21z m86 -14 c3 -9 1 -21 -4 -26 -14
-14 -45 -4 -49 17 -7 35 39 43 53 9z m-61 -25 c7 -14 22 -24 39 -26 19 -2 29
-11 33 -28 4 -15 21 -32 45 -45 22 -10 39 -23 39 -27 0 -11 -60 -67 -87 -81
-56 -28 -56 -5 -2 54 49 53 44 58 -12 13 -21 -17 -41 -29 -43 -27 -3 4 -36
180 -36 195 0 11 11 -2 24 -28z m139 -50 c9 -23 15 -43 12 -46 -2 -2 -18 6
-34 18 -36 25 -44 70 -13 70 13 0 24 -14 35 -42z m87 -66 c0 -21 -143 -149
-148 -133 -2 7 19 36 47 66 28 30 51 58 51 64 0 5 10 12 23 14 12 2 23 5 25 6
1 0 2 -7 2 -17z m54 -72 c54 -24 63 -53 16 -48 -22 2 -37 12 -51 36 -12 17
-19 32 -16 32 2 0 25 -9 51 -20z m-42 -30 c17 -24 36 -40 48 -40 15 0 20 -7
20 -29 0 -24 6 -31 33 -41 53 -20 13 -23 -85 -6 -50 9 -93 17 -94 19 -2 2 10
19 26 38 44 51 36 56 -17 9 -44 -39 -48 -41 -51 -21 -4 24 61 111 81 111 7 -1
24 -19 39 -40z m136 -72 c-2 -15 -11 -24 -25 -26 -19 -3 -23 1 -23 22 0 21 5
26 26 26 21 0 25 -4 22 -22z"/>
<path d="M747 1103 c-14 -13 -6 -51 17 -86 l24 -35 -24 -23 c-55 -52 -38 -121
48 -199 46 -41 55 -45 99 -44 37 0 55 6 74 24 l25 23 43 -23 c42 -22 77 -22
77 0 0 6 -10 8 -25 4 -23 -6 -25 -4 -25 29 0 26 5 36 20 40 25 7 26 37 1 37
-20 0 -51 -39 -51 -65 0 -22 -13 -18 -43 13 -16 16 -27 39 -27 55 0 34 -13 34
-34 2 -23 -35 -73 -35 -86 1 -16 40 -12 52 20 69 41 21 38 35 -9 35 -31 0 -44
6 -61 27 l-21 28 40 17 c29 12 41 23 41 38 0 26 -22 26 -38 -1 -18 -28 -67
-23 -67 8 0 24 -8 36 -18 26z m82 -157 c17 -9 20 -15 11 -21 -8 -5 -10 -19 -5
-41 7 -40 -9 -74 -35 -74 -25 0 -40 29 -40 75 0 41 15 75 33 75 7 -1 23 -7 36
-14z m145 -145 c14 -26 14 -30 -3 -45 -22 -20 -100 -21 -127 -2 -30 23 -7 50
47 54 24 2 48 7 54 13 13 13 13 13 29 -20z"/>
<path d="M3944 1085 c6 -23 4 -25 -28 -25 -26 0 -36 5 -41 20 -9 28 -37 26
-33 -2 2 -13 18 -29 41 -41 l38 -20 -22 -23 c-12 -13 -33 -24 -45 -24 -12 0
-30 -3 -40 -7 -14 -5 -12 -10 16 -33 29 -24 32 -30 23 -56 -7 -21 -18 -30 -42
-35 -28 -6 -33 -3 -47 22 -13 27 -33 39 -35 22 -4 -50 -12 -70 -31 -85 -30
-23 -31 -23 -48 15 -9 20 -24 33 -37 35 -28 4 -30 -14 -3 -28 13 -7 20 -21 20
-40 0 -25 -4 -30 -25 -30 -14 0 -25 -4 -25 -10 0 -17 53 -11 88 10 l33 21 30
-26 c32 -27 70 -32 115 -15 29 11 105 83 122 115 16 32 3 97 -25 126 -14 16
-20 29 -14 33 18 11 41 69 35 88 -9 28 -27 22 -20 -7z m-12 -132 c25 -23 24
-93 -2 -124 l-20 -24 -20 24 c-11 13 -20 38 -20 56 0 18 -2 39 -5 47 -3 7 5
18 17 24 32 16 29 16 50 -3z m-63 -148 c33 -32 -25 -71 -89 -61 -45 7 -62 29
-47 60 10 20 16 22 66 18 31 -2 62 -10 70 -17z"/>
<path d="M3329 1066 c-94 -24 -209 -120 -209 -174 1 -39 33 -105 64 -129 32
-25 88 -36 136 -25 30 7 37 14 50 50 8 23 17 42 21 42 4 0 17 -16 28 -36 l22
-37 56 7 c62 7 68 10 59 25 -4 6 -27 8 -55 4 -47 -5 -50 -4 -65 26 -12 22 -24
31 -42 31 -20 0 -28 -9 -44 -45 -19 -45 -19 -45 -70 -45 -43 0 -56 5 -86 33
-28 26 -37 42 -41 78 -5 43 -3 46 42 87 52 49 136 92 178 92 15 0 27 4 27 9 0
16 -24 18 -71 7z"/>
<path d="M1311 1061 c-11 -7 -5 -11 25 -16 52 -8 132 -48 183 -92 34 -29 41
-41 41 -71 0 -63 -46 -115 -111 -126 -46 -8 -80 11 -94 54 -17 49 -42 51 -82
4 -31 -38 -32 -38 -73 -28 -22 6 -43 7 -46 3 -12 -19 10 -29 65 -29 56 0 59 1
71 30 19 46 28 45 49 -3 21 -49 34 -57 92 -57 74 0 141 57 153 130 8 46 -10
80 -63 125 -79 65 -175 100 -210 76z"/>
<path d="M520 3321 c-20 -39 -6 -111 23 -111 8 0 12 21 12 65 0 67 -14 85 -35
46z"/>
<path d="M4159 3329 c0 -2 -1 -32 -3 -66 -1 -45 2 -63 11 -63 34 0 44 87 13
115 -11 10 -20 16 -21 14z"/>
<path d="M510 2284 c-13 -32 -12 -38 2 -69 6 -14 20 -25 31 -25 15 0 17 4 11
18 -4 9 -8 28 -8 42 0 14 4 33 8 43 6 13 3 17 -13 17 -14 0 -25 -9 -31 -26z"/>
<path d="M4158 2313 c-8 -17 -2 -123 7 -125 17 -5 37 51 30 82 -6 30 -30 57
-37 43z"/>
<path d="M4156 1238 c2 -35 3 -65 3 -67 1 -2 10 4 21 14 31 28 21 115 -13 115
-9 0 -12 -18 -11 -62z"/>
<path d="M520 1271 c-20 -39 -6 -111 23 -111 8 0 12 21 12 65 0 67 -14 85 -35
46z"/>
<path d="M1194 528 c-10 -16 46 -40 78 -34 31 6 58 22 58 35 0 10 -131 8 -136
-1z"/>
<path d="M2285 540 c-10 -16 12 -37 42 -43 32 -6 79 9 87 28 8 21 -9 27 -38
14 -20 -9 -32 -9 -51 -1 -32 15 -32 15 -40 2z"/>
<path d="M3390 535 c0 -21 24 -35 60 -35 37 0 81 23 68 36 -13 12 -128 11
-128 -1z"/>
<path d="M4355 340 c-3 -6 1 -13 9 -16 9 -3 16 -12 16 -20 0 -17 7 -18 24 -2
11 10 9 16 -10 30 -26 21 -31 22 -39 8z"/>
<path d="M330 331 c0 -5 -9 -13 -20 -16 -17 -6 -18 -8 -6 -21 18 -18 26 -18
26 0 0 8 7 16 15 20 8 3 15 10 15 16 0 5 -7 10 -15 10 -8 0 -15 -4 -15 -9z"/>
<path d="M52 3309 c-28 -8 -33 -14 -30 -37 2 -18 11 -28 28 -33 105 -29 216
29 126 66 -40 17 -75 18 -124 4z"/>
<path d="M4553 3299 c-58 -12 -70 -36 -31 -63 27 -19 116 -21 153 -4 73 33
-24 87 -122 67z"/>
<path d="M64 2291 c-43 -11 -54 -19 -54 -41 0 -27 35 -43 95 -44 51 0 105 22
105 44 0 29 -91 55 -146 41z"/>
<path d="M4523 2278 c-61 -30 0 -74 93 -66 115 10 109 70 -8 75 -35 1 -73 -2
-85 -9z"/>
<path d="M4522 1264 c-50 -35 -11 -67 79 -66 58 1 99 17 99 39 0 24 -44 43
-100 43 -34 0 -64 -6 -78 -16z"/>
<path d="M50 1261 c-17 -5 -26 -15 -28 -33 -3 -23 2 -28 35 -37 51 -15 77 -14
119 4 90 37 -21 95 -126 66z"/>
<path d="M3443 202 c-49 -32 -41 -180 10 -190 20 -4 47 51 47 96 0 61 -30 111
-57 94z"/>
<path d="M1236 178 c-30 -42 -16 -161 19 -175 37 -14 65 85 43 153 -15 45 -40
54 -62 22z"/>
<path d="M2320 181 c-13 -25 -13 -112 0 -145 11 -31 45 -35 60 -7 5 11 10 45
10 76 0 65 -13 95 -40 95 -11 0 -24 -9 -30 -19z"/>
</g>
</svg>
